<svg width="65" height="65" viewBox="0 0 65 65" fill="none" xmlns="http://www.w3.org/2000/svg">
<path d="M32.8485 6.2762L32.1024 6.28645C17.7269 6.68197 6.18181 18.4724 6.18181 32.9429C6.18181 47.6362 18.1285 59.6095 32.8485 59.6095C47.5418 59.6095 59.5151 47.6362 59.5151 32.9429C59.5151 18.2229 47.5418 6.2762 32.8485 6.2762ZM27.5685 22.2762C28.3685 21.4762 29.6218 21.4762 30.3951 22.2762L39.7018 31.5295C40.0751 31.9029 40.2885 32.4095 40.2885 32.9429C40.2885 33.4762 40.0751 33.9829 39.7018 34.3562L30.3951 43.6095C30.0218 44.0095 29.5151 44.1962 29.0085 44.1962C28.4751 44.1962 27.9685 44.0095 27.5685 43.6095C26.7951 42.8095 26.7951 41.5562 27.5951 40.7829L35.4618 32.9429L27.5951 25.1029C26.7951 24.3295 26.7951 23.0495 27.5685 22.2762Z" fill="#9E0091"/>
</svg>
