<svg width="61" height="61" viewBox="0 0 61 61" fill="none" xmlns="http://www.w3.org/2000/svg">
<path d="M30.4167 0.000244141C47.1762 0.000244141 60.8333 13.6269 60.8333 30.4169C60.8333 47.1765 47.1762 60.8336 30.4167 60.8336C13.6267 60.8336 0 47.1765 0 30.4169C0 13.6269 13.6267 0.000244141 30.4167 0.000244141ZM21.4742 24.4248C20.5921 23.5123 19.1321 23.5123 18.25 24.3944C17.3375 25.3069 17.3375 26.7365 18.25 27.6186L28.8046 38.234C29.2304 38.6598 29.8083 38.9032 30.4167 38.9032C31.025 38.9032 31.6029 38.6598 32.0287 38.234L42.5833 27.6186C43.0396 27.1927 43.2525 26.6148 43.2525 26.0369C43.2525 25.4286 43.0396 24.8507 42.5833 24.3944C41.6708 23.5123 40.2412 23.5123 39.3592 24.4248L30.4167 33.3977L21.4742 24.4248Z" fill="#9E0091"/>
</svg>
