<svg width="65" height="65" viewBox="0 0 65 65" fill="none" xmlns="http://www.w3.org/2000/svg">
<path d="M32.1559 6.2762L32.902 6.28645C47.2775 6.68197 58.8226 18.4724 58.8226 32.9429C58.8226 47.6362 46.8759 59.6095 32.1559 59.6095C17.4626 59.6095 5.48926 47.6362 5.48926 32.9429C5.48926 18.2229 17.4626 6.2762 32.1559 6.2762ZM37.4359 22.2762C36.6359 21.4762 35.3826 21.4762 34.6093 22.2762L25.3026 31.5295C24.9293 31.9029 24.7159 32.4095 24.7159 32.9429C24.7159 33.4762 24.9293 33.9829 25.3026 34.3562L34.6093 43.6095C34.9826 44.0095 35.4893 44.1962 35.9959 44.1962C36.5293 44.1962 37.0359 44.0095 37.4359 43.6095C38.2093 42.8095 38.2093 41.5562 37.4093 40.7829L29.5426 32.9429L37.4093 25.1029C38.2093 24.3295 38.2093 23.0495 37.4359 22.2762Z" fill="#9E0091"/>
</svg>
