<svg width="266" height="313" viewBox="0 0 266 313" fill="none" xmlns="http://www.w3.org/2000/svg">
<g clip-path="url(#clip0_180_11554)">
<path d="M150.932 1.55286L151.12 54.744L135.232 145.942V59.3601L150.932 1.55286Z" fill="url(#paint0_radial_180_11554)"/>
<path d="M131.378 145.685C131.801 145.708 132.248 145.731 132.671 145.755C132.882 145.778 133.094 145.778 133.305 145.778C133.94 145.825 134.575 145.872 135.233 145.919V59.3603C134.598 59.3134 133.963 59.2665 133.305 59.2197C133.094 59.1962 132.882 59.1963 132.671 59.1963C132.248 59.1728 131.801 59.1494 131.378 59.126C131.355 59.126 131.331 59.126 131.308 59.126C130.908 59.1025 130.509 59.1025 130.109 59.0791C129.898 59.0791 129.686 59.0557 129.475 59.0557C128.84 59.0322 128.205 59.0322 127.571 59.0322V145.591C128.205 145.591 128.84 145.591 129.475 145.614C129.686 145.614 129.898 145.638 130.109 145.638C130.556 145.661 130.955 145.661 131.378 145.685Z" fill="url(#paint1_radial_180_11554)"/>
<path d="M127.594 59.0321V0.545288C136.126 0.545288 142.471 0.826475 150.932 1.55287L135.233 59.3602C132.718 59.1493 130.18 59.0321 127.594 59.0321Z" fill="url(#paint2_radial_180_11554)"/>
<path d="M127.994 59.079C131.025 58.4463 134.574 59.1259 134.527 59.3133L142.307 32.6709L135.185 59.2196V80.6132L134.433 59.8757C132.718 59.2196 130.085 58.9618 127.994 59.079Z" fill="white"/>
<path d="M86.9823 168.32C87.0293 168.226 87.0528 168.156 87.0998 168.062C87.1703 167.898 87.2643 167.711 87.3348 167.547C87.3583 167.476 87.4053 167.406 87.4288 167.336C87.5463 167.101 87.6638 166.844 87.7813 166.609C87.7813 166.586 87.8048 166.586 87.8048 166.562C87.9694 166.258 88.1339 165.953 88.2984 165.625C88.3219 165.578 88.3454 165.531 88.3924 165.485C88.5569 165.18 88.7449 164.875 88.9094 164.594C88.9329 164.547 88.9799 164.477 89.027 164.43C89.215 164.126 89.403 163.844 89.591 163.54C89.6145 163.493 89.638 163.469 89.6615 163.423C89.8495 163.141 90.0376 162.86 90.2491 162.579C90.2726 162.556 90.2961 162.509 90.3196 162.485C90.5311 162.204 90.7426 161.923 90.9542 161.642C91.0012 161.595 91.0247 161.525 91.0717 161.478C91.2832 161.197 91.4947 160.915 91.7297 160.658C91.7767 160.611 91.8002 160.564 91.8472 160.517C92.0823 160.236 92.3173 159.955 92.5523 159.697C92.5523 159.697 92.5523 159.673 92.5758 159.673C92.8108 159.392 93.0694 159.134 93.3044 158.853C93.3514 158.806 93.3984 158.76 93.4219 158.713C93.6804 158.455 93.9155 158.174 94.174 157.916C94.221 157.869 94.268 157.822 94.315 157.775C94.5735 157.518 94.832 157.26 95.1141 157.002C95.1611 156.979 95.1846 156.932 95.2316 156.908C95.5136 156.651 95.7956 156.393 96.0777 156.135L96.1012 156.112C96.3832 155.854 96.6887 155.596 96.9943 155.362C97.0413 155.315 97.0883 155.292 97.1353 155.245C97.4173 155.01 97.7228 154.776 98.0284 154.542C98.0754 154.495 98.1459 154.448 98.1929 154.425C98.4984 154.19 98.804 153.979 99.1095 153.769C99.1565 153.745 99.2035 153.698 99.2505 153.675C99.5795 153.44 99.9086 153.23 100.238 152.995C100.238 152.995 100.261 152.995 100.261 152.972C100.59 152.761 100.919 152.55 101.248 152.339C101.295 152.316 101.342 152.269 101.413 152.245C101.507 152.175 101.601 152.128 101.718 152.058C101.836 151.988 101.93 151.917 102.047 151.847C102.141 151.777 102.259 151.73 102.353 151.66C102.47 151.589 102.588 151.519 102.682 151.472C102.776 151.425 102.893 151.355 102.987 151.308C103.105 151.238 103.222 151.191 103.34 151.121C103.434 151.074 103.551 151.004 103.645 150.957C103.763 150.886 103.88 150.839 103.998 150.769C104.092 150.722 104.209 150.652 104.327 150.605C104.445 150.535 104.562 150.488 104.68 150.418C104.797 150.371 104.891 150.324 105.009 150.254C105.126 150.207 105.244 150.137 105.361 150.09C105.479 150.043 105.573 149.996 105.69 149.926C105.808 149.879 105.925 149.808 106.043 149.762C106.16 149.715 106.254 149.668 106.372 149.621C106.489 149.574 106.607 149.504 106.724 149.457C106.842 149.41 106.959 149.363 107.053 149.316C107.171 149.27 107.288 149.223 107.406 149.176C107.523 149.129 107.641 149.082 107.735 149.035C107.852 148.988 107.97 148.941 108.111 148.895C108.228 148.848 108.346 148.801 108.463 148.754C108.581 148.707 108.698 148.66 108.839 148.613C108.957 148.567 109.074 148.52 109.192 148.496C109.31 148.449 109.451 148.403 109.568 148.356C109.686 148.309 109.803 148.285 109.921 148.238C110.038 148.192 110.179 148.145 110.297 148.121C110.414 148.074 110.532 148.051 110.649 148.004C110.767 147.957 110.908 147.934 111.025 147.887C111.143 147.84 111.26 147.817 111.378 147.77C111.495 147.723 111.636 147.7 111.754 147.653C111.871 147.629 111.989 147.582 112.106 147.559C112.224 147.512 112.365 147.489 112.506 147.442C112.623 147.418 112.741 147.372 112.858 147.348C112.999 147.325 113.117 147.278 113.258 147.254C113.375 147.231 113.493 147.184 113.61 147.161C113.751 147.137 113.869 147.09 114.01 147.067C114.128 147.043 114.245 147.02 114.386 146.973C114.527 146.95 114.645 146.903 114.786 146.879C114.903 146.856 115.021 146.833 115.162 146.809C115.303 146.786 115.444 146.762 115.561 146.715C115.679 146.692 115.796 146.669 115.937 146.645C116.078 146.622 116.219 146.598 116.337 146.575C116.454 146.551 116.595 146.528 116.713 146.505C116.854 146.481 116.995 146.458 117.136 146.434C117.253 146.411 117.371 146.387 117.512 146.364C117.653 146.34 117.794 146.317 117.935 146.294C118.052 146.27 118.17 146.247 118.311 146.247C118.452 146.223 118.593 146.2 118.734 146.2C118.851 146.176 118.969 146.176 119.11 146.153C119.251 146.13 119.392 146.13 119.533 146.106C119.651 146.083 119.792 146.083 119.909 146.059C120.05 146.036 120.191 146.036 120.356 146.012C120.473 145.989 120.614 145.989 120.732 145.989C120.873 145.966 121.037 145.966 121.178 145.942C121.296 145.942 121.413 145.919 121.554 145.919C121.719 145.919 121.86 145.895 122.024 145.895C122.142 145.895 122.259 145.872 122.377 145.872C122.541 145.872 122.706 145.848 122.87 145.848C122.988 145.848 123.082 145.848 123.199 145.825C123.387 145.825 123.575 145.825 123.763 145.802C123.857 145.802 123.952 145.802 124.022 145.802C124.304 145.802 124.563 145.802 124.845 145.802L124.61 93.946C124.328 93.946 124.046 93.946 123.787 93.946C123.693 93.946 123.599 93.946 123.528 93.946C123.34 93.946 123.152 93.946 122.964 93.9695C122.847 93.9695 122.753 93.9695 122.635 93.9929C122.471 93.9929 122.306 94.0163 122.142 94.0163C122.024 94.0163 121.907 94.0398 121.789 94.0398C121.625 94.0398 121.484 94.0632 121.319 94.0632C121.202 94.0632 121.084 94.0866 120.943 94.0866C120.802 94.0866 120.638 94.1101 120.497 94.1335C120.379 94.1335 120.238 94.1569 120.121 94.1569C119.98 94.1804 119.839 94.1804 119.674 94.2038C119.557 94.2272 119.416 94.2272 119.298 94.2507C119.157 94.2741 119.016 94.2741 118.875 94.2975C118.757 94.321 118.64 94.321 118.499 94.3444C118.358 94.3678 118.217 94.3913 118.076 94.3913C117.958 94.4147 117.841 94.4381 117.7 94.4381C117.559 94.4616 117.418 94.485 117.277 94.5084C117.159 94.5318 117.018 94.5553 116.901 94.5787C116.76 94.6021 116.619 94.6256 116.478 94.649C116.36 94.6724 116.219 94.6959 116.102 94.7193C115.961 94.7427 115.82 94.7662 115.702 94.7896C115.585 94.813 115.467 94.8365 115.326 94.8599C115.185 94.8833 115.044 94.9068 114.927 94.9536C114.809 94.9771 114.692 95.0005 114.551 95.0239C114.41 95.0474 114.292 95.0942 114.151 95.1177C114.033 95.1411 113.916 95.1645 113.775 95.2114C113.634 95.2348 113.516 95.2817 113.375 95.3051C113.258 95.3285 113.14 95.3754 113.023 95.3988C112.882 95.4223 112.764 95.4691 112.623 95.4926C112.506 95.516 112.388 95.5629 112.271 95.5863C112.13 95.6332 112.012 95.6566 111.871 95.7035C111.754 95.7269 111.636 95.7738 111.519 95.7972C111.401 95.8441 111.26 95.8675 111.143 95.9143C111.025 95.9612 110.908 95.9846 110.79 96.0315C110.673 96.0784 110.532 96.1018 110.414 96.1487C110.297 96.1955 110.179 96.219 110.062 96.2658C109.944 96.3127 109.803 96.3596 109.686 96.383C109.568 96.4299 109.451 96.4533 109.333 96.5002C109.216 96.547 109.074 96.5939 108.957 96.6408C108.839 96.6876 108.722 96.7345 108.604 96.7579C108.487 96.8048 108.346 96.8516 108.228 96.8985C108.111 96.9454 107.993 96.9922 107.876 97.0391C107.758 97.086 107.641 97.1328 107.5 97.1797C107.382 97.2266 107.265 97.2734 107.171 97.3203C107.053 97.3671 106.936 97.414 106.818 97.4609C106.701 97.5077 106.583 97.5546 106.489 97.6015C106.372 97.6483 106.254 97.6952 106.137 97.7655C106.019 97.8124 105.925 97.8592 105.808 97.9061C105.69 97.953 105.573 98.0233 105.455 98.0701C105.338 98.117 105.244 98.1638 105.126 98.2341C105.009 98.281 104.891 98.3513 104.774 98.3982C104.656 98.445 104.562 98.4919 104.445 98.5622C104.327 98.6091 104.209 98.6794 104.092 98.7497C103.974 98.7965 103.88 98.8668 103.763 98.9137C103.645 98.984 103.528 99.0308 103.41 99.1011C103.316 99.148 103.199 99.2183 103.105 99.2652C102.987 99.3355 102.87 99.3823 102.752 99.4526C102.658 99.4995 102.541 99.5698 102.447 99.6166C102.329 99.6869 102.212 99.7338 102.118 99.8041C102.024 99.8744 101.906 99.9213 101.812 99.9916C101.695 100.062 101.601 100.132 101.483 100.202C101.389 100.273 101.295 100.32 101.178 100.39C101.154 100.413 101.131 100.413 101.107 100.437C101.084 100.46 101.06 100.484 101.013 100.484C100.684 100.695 100.355 100.905 100.026 101.116C100.026 101.116 100.003 101.116 100.003 101.14C99.6735 101.351 99.3445 101.585 99.0155 101.819C98.9685 101.843 98.9215 101.89 98.8745 101.913C98.5689 102.124 98.2634 102.358 97.9579 102.569C97.9109 102.616 97.8404 102.663 97.7933 102.686C97.4878 102.921 97.2058 103.155 96.9003 103.389C96.8532 103.436 96.8062 103.46 96.7592 103.506C96.4537 103.764 96.1717 103.998 95.8661 104.256L95.8426 104.28C95.5606 104.537 95.2786 104.795 94.9966 105.053C94.9496 105.076 94.9261 105.123 94.8791 105.147C94.597 105.404 94.3385 105.662 94.08 105.92C94.033 105.967 93.986 106.014 93.939 106.06C93.6804 106.318 93.4219 106.576 93.1869 106.857C93.1634 106.881 93.1634 106.881 93.1399 106.904C93.1164 106.927 93.0929 106.951 93.0694 106.998C92.8108 107.256 92.5758 107.537 92.3408 107.818C92.3408 107.818 92.3408 107.841 92.3173 107.841C92.0823 108.123 91.8472 108.38 91.6122 108.661C91.5652 108.708 91.5417 108.755 91.4947 108.802C91.2832 109.083 91.0482 109.341 90.8366 109.622C90.7896 109.669 90.7426 109.739 90.7191 109.786C90.5076 110.067 90.2961 110.349 90.0846 110.63C90.0611 110.653 90.0376 110.7 90.0141 110.724C89.826 111.005 89.6145 111.286 89.4265 111.567C89.403 111.614 89.3795 111.637 89.356 111.684C89.168 111.989 88.9799 112.27 88.7919 112.575C88.7449 112.622 88.7214 112.692 88.6744 112.739C88.4864 113.043 88.3219 113.324 88.1574 113.629C88.1339 113.676 88.1104 113.723 88.0634 113.77C87.8988 114.074 87.7343 114.379 87.5698 114.707C87.5698 114.707 87.5698 114.73 87.5463 114.73C87.4288 114.965 87.3113 115.199 87.1938 115.457C87.1703 115.527 87.1233 115.597 87.0998 115.668C87.0293 115.832 86.9352 116.019 86.8647 116.183C86.8177 116.277 86.7942 116.347 86.7472 116.441C86.6767 116.605 86.6062 116.792 86.5357 116.956C86.5122 117.027 86.4652 117.121 86.4417 117.191C86.3477 117.449 86.2537 117.683 86.1597 117.941L86.3947 169.796C86.4887 169.538 86.5827 169.304 86.6767 169.046C86.7002 168.976 86.7472 168.882 86.7707 168.812C86.8412 168.648 86.9117 168.484 86.9823 168.32Z" fill="url(#paint3_linear_180_11554)"/>
<path d="M86.136 117.941L86.371 169.796L6.86247 147.489L6.62744 95.6333L86.136 117.941Z" fill="url(#paint4_linear_180_11554)"/>
<path d="M6.62744 95.6332C23.5492 50.6902 69.7313 21.728 124.468 21.728V93.9696C106.536 93.9696 91.377 104.022 86.136 117.941L6.62744 95.6332Z" fill="url(#paint5_linear_180_11554)"/>
<path d="M38.6611 104.701L85.9949 116.535C85.9949 116.535 95.4429 93.5009 123.575 93.1025L124.468 53.4318V93.8289L124.703 120.05L123.528 94.0867C123.528 94.0867 98.2162 93.1494 86.512 117.425L86.7705 135.843L85.3839 117.425L38.6611 104.701Z" fill="white"/>
<path d="M172.437 19.1504V97.1328L147.806 148.59V70.6075L172.437 19.1504Z" fill="url(#paint6_linear_180_11554)"/>
<path d="M143.929 147.887C143.999 147.91 144.093 147.91 144.164 147.91C144.352 147.934 144.516 147.957 144.704 148.004C144.845 148.028 144.963 148.051 145.104 148.074C145.292 148.098 145.48 148.145 145.668 148.168C145.785 148.192 145.903 148.215 146.02 148.238C146.232 148.285 146.42 148.309 146.631 148.356C146.725 148.379 146.843 148.402 146.937 148.426C147.242 148.496 147.548 148.543 147.83 148.613V70.6075C147.524 70.5372 147.242 70.4669 146.937 70.4201C146.843 70.3966 146.725 70.3732 146.631 70.3498C146.42 70.3029 146.232 70.2795 146.02 70.2326C145.903 70.2092 145.785 70.1858 145.668 70.1623C145.48 70.1389 145.292 70.092 145.104 70.0686C144.986 70.0452 144.845 70.0217 144.704 69.9983C144.516 69.9749 144.352 69.9514 144.164 69.9046C144.117 69.9046 144.093 69.8811 144.046 69.8811C143.999 69.8811 143.952 69.8811 143.929 69.8577C143.435 69.7874 142.918 69.7171 142.401 69.6702C142.354 69.6702 142.307 69.6702 142.26 69.6468C141.719 69.5765 141.179 69.5297 140.638 69.4828V147.465C141.179 147.512 141.719 147.559 142.26 147.629C142.307 147.629 142.354 147.629 142.401 147.653C142.918 147.746 143.411 147.817 143.929 147.887Z" fill="url(#paint7_radial_180_11554)"/>
<path d="M140.638 69.5296L150.815 15.823C158.57 16.4791 164.987 17.5101 172.437 19.1504L147.806 70.6075C145.527 70.1155 143.129 69.7405 140.638 69.5296Z" fill="url(#paint8_linear_180_11554)"/>
<path d="M141.578 69.6233C141.578 69.6233 142.518 69.1547 148.018 70.092L162.895 38.9506L148.605 70.959L147.83 124.478L147.712 71.3339C147.712 71.287 143.975 69.8108 141.578 69.6233Z" fill="white"/>
<path d="M210.628 36.9589V108.802L163.459 154.565V82.7454L210.628 36.9589Z" fill="url(#paint9_linear_180_11554)"/>
<path d="M155.327 151.379C155.468 151.425 155.633 151.472 155.774 151.519C156.079 151.613 156.385 151.707 156.69 151.8C156.808 151.847 156.949 151.871 157.066 151.918C157.489 152.058 157.912 152.199 158.312 152.339C158.359 152.363 158.406 152.386 158.453 152.386C158.805 152.527 159.158 152.644 159.534 152.785C159.675 152.831 159.792 152.902 159.933 152.949C160.216 153.066 160.474 153.183 160.756 153.277C160.897 153.347 161.038 153.394 161.179 153.464C161.461 153.581 161.72 153.698 161.978 153.839C162.096 153.886 162.213 153.956 162.331 154.003C162.707 154.19 163.083 154.378 163.459 154.565V82.7456C163.083 82.5581 162.707 82.3707 162.331 82.1832C162.213 82.1364 162.096 82.0661 161.978 82.0192C161.72 81.902 161.438 81.7614 161.179 81.6443C161.038 81.574 160.897 81.5271 160.756 81.4568C160.498 81.3397 160.216 81.2225 159.933 81.1288C159.792 81.0819 159.675 81.0116 159.534 80.9647C159.181 80.8242 158.829 80.6836 158.453 80.5664C158.406 80.543 158.359 80.5195 158.312 80.5195C157.912 80.3789 157.489 80.2383 157.066 80.0978C156.949 80.0509 156.808 80.0275 156.69 79.9806C156.385 79.8869 156.079 79.7931 155.774 79.6994C155.633 79.6525 155.468 79.6057 155.327 79.5588C155.21 79.5119 155.069 79.4885 154.951 79.4417C154.786 79.3948 154.598 79.3479 154.434 79.3011C154.293 79.2542 154.175 79.2308 154.034 79.2073C153.611 79.0902 153.165 78.9964 152.718 78.8793V150.722C153.165 150.816 153.588 150.933 154.034 151.051C154.175 151.074 154.293 151.121 154.434 151.144C154.716 151.215 155.022 151.285 155.327 151.379Z" fill="url(#paint10_linear_180_11554)"/>
<path d="M152.718 78.8558L177.513 25.0554C189.993 27.9142 200.005 31.5227 210.628 36.959L163.459 82.7455C160.216 81.0819 156.596 79.7462 152.718 78.8558Z" fill="url(#paint11_linear_180_11554)"/>
<path d="M153.282 78.9963C153.282 78.9963 156.526 78.6448 163.224 82.6517L193.166 53.9238L163.459 83.6827V121.268L162.237 83.6593C162.213 83.6124 161.461 82.2534 153.282 78.9963Z" fill="white"/>
<path d="M258.809 96.5704V157.049L184 174.178V113.699L258.809 96.5704Z" fill="url(#paint12_linear_180_11554)"/>
<path d="M212.626 51.7446C235.353 63.3904 250.136 77.731 258.808 96.5705L184 113.699C181.345 106.482 175.351 100.202 167.267 95.7503L212.626 51.7446Z" fill="url(#paint13_linear_180_11554)"/>
<path d="M184 113.699V174.201C181.345 166.984 175.351 160.704 167.267 156.252V95.7269C175.375 100.202 181.345 106.482 184 113.699Z" fill="url(#paint14_linear_180_11554)"/>
<path d="M184 113.699V174.178C181.345 166.961 175.351 160.681 167.267 156.229V95.7269C175.375 100.202 181.345 106.482 184 113.699Z" fill="url(#paint15_linear_180_11554)"/>
<path d="M171.45 98.3279C171.45 98.3279 178.313 102.147 184.024 112.364L246.658 99.3589L184.235 113.746L184.024 152.597L183.178 113.793C183.154 113.793 178.642 103.436 171.45 98.3279Z" fill="white"/>
<path d="M186.233 146.669V215.606C186.233 212.677 185.693 209.842 184.706 207.124V138.186C185.693 140.904 186.233 143.74 186.233 146.669Z" fill="#643BB4"/>
<path d="M186.233 146.669V215.606C186.233 212.677 185.693 209.842 184.706 207.124V138.186C185.693 140.904 186.233 143.74 186.233 146.669Z" fill="#643BB4"/>
<path d="M213.308 221.277V290.214L165.151 243.467V174.553L213.308 221.277Z" fill="#643BB4"/>
<path d="M266 149.551C266 150.043 266 150.558 265.977 151.05C265.977 151.214 265.977 151.378 265.953 151.543C265.953 151.871 265.93 152.175 265.906 152.503C265.906 152.691 265.883 152.855 265.883 153.042C265.859 153.347 265.836 153.675 265.812 153.979C265.789 154.167 265.789 154.331 265.765 154.518C265.742 154.846 265.718 155.198 265.671 155.526C265.648 155.667 265.648 155.807 265.624 155.948C265.577 156.416 265.53 156.908 265.46 157.377C265.46 157.447 265.436 157.518 265.436 157.565C265.389 157.986 265.319 158.385 265.272 158.807C265.248 158.971 265.225 159.135 265.201 159.299C265.154 159.627 265.107 159.931 265.037 160.259C265.013 160.447 264.966 160.611 264.943 160.798C264.896 161.103 264.825 161.407 264.778 161.712C264.755 161.876 264.708 162.064 264.684 162.228C264.614 162.556 264.543 162.884 264.473 163.212C264.449 163.352 264.402 163.493 264.379 163.634C264.261 164.149 264.143 164.665 264.002 165.157C263.979 165.274 263.932 165.391 263.908 165.508C263.814 165.906 263.697 166.305 263.579 166.703C263.532 166.867 263.485 167.008 263.438 167.172C263.321 167.594 263.18 168.015 263.062 168.414C263.039 168.507 262.992 168.601 262.968 168.718C262.804 169.234 262.639 169.726 262.475 170.218C262.428 170.359 262.381 170.476 262.334 170.616C262.193 170.991 262.052 171.39 261.911 171.765C261.864 171.905 261.793 172.069 261.746 172.21C261.582 172.632 261.417 173.077 261.229 173.498C261.206 173.569 261.182 173.639 261.135 173.709C260.924 174.201 260.712 174.694 260.501 175.186C260.43 175.326 260.383 175.467 260.313 175.584C260.148 175.959 259.984 176.334 259.796 176.709C259.725 176.873 259.655 177.037 259.561 177.201C259.467 177.388 259.372 177.599 259.278 177.787C259.184 177.997 259.067 178.208 258.973 178.396C258.879 178.583 258.785 178.794 258.691 178.982C258.597 179.193 258.479 179.403 258.362 179.591C258.268 179.778 258.15 179.966 258.056 180.177C257.939 180.388 257.845 180.575 257.727 180.786C257.633 180.973 257.516 181.161 257.398 181.372C257.281 181.583 257.163 181.77 257.046 181.981C256.928 182.168 256.834 182.356 256.717 182.543C256.599 182.754 256.482 182.942 256.364 183.153C256.247 183.34 256.129 183.527 256.012 183.715C255.894 183.926 255.777 184.113 255.636 184.324C255.518 184.512 255.401 184.699 255.283 184.887C255.166 185.097 255.025 185.285 254.907 185.496C254.79 185.683 254.672 185.871 254.531 186.058C254.39 186.246 254.272 186.457 254.131 186.644C254.014 186.831 253.873 187.019 253.755 187.206C253.614 187.394 253.473 187.605 253.356 187.792C253.238 187.98 253.097 188.167 252.956 188.355C252.815 188.542 252.674 188.753 252.533 188.94C252.392 189.128 252.275 189.315 252.134 189.503C251.993 189.69 251.852 189.901 251.711 190.089C251.57 190.276 251.429 190.463 251.288 190.627C251.147 190.815 250.982 191.002 250.841 191.213C250.7 191.401 250.559 191.588 250.418 191.752C250.277 191.94 250.113 192.127 249.948 192.338C249.807 192.525 249.666 192.689 249.501 192.877C249.337 193.064 249.196 193.252 249.031 193.439C248.89 193.627 248.726 193.791 248.585 193.978C248.42 194.166 248.256 194.353 248.091 194.541C247.95 194.728 247.786 194.892 247.645 195.08C247.433 195.314 247.245 195.548 247.034 195.783C246.94 195.876 246.846 195.993 246.752 196.087C246.446 196.415 246.141 196.767 245.835 197.095C245.788 197.142 245.741 197.188 245.718 197.235C245.436 197.517 245.177 197.821 244.895 198.102C244.778 198.219 244.683 198.337 244.566 198.43C244.354 198.665 244.143 198.876 243.908 199.11C243.79 199.227 243.673 199.368 243.532 199.485C243.32 199.696 243.109 199.907 242.897 200.118C242.78 200.235 242.662 200.352 242.521 200.469C242.286 200.703 242.051 200.938 241.816 201.149C241.722 201.242 241.605 201.336 241.511 201.453C241.158 201.781 240.829 202.109 240.477 202.414C240.43 202.461 240.383 202.484 240.359 202.531C240.054 202.812 239.748 203.093 239.419 203.375C239.301 203.492 239.184 203.585 239.066 203.703C238.831 203.914 238.573 204.124 238.338 204.335C238.197 204.452 238.056 204.57 237.938 204.687C237.703 204.898 237.468 205.085 237.233 205.296C237.092 205.413 236.951 205.53 236.834 205.648C236.575 205.858 236.317 206.093 236.058 206.304C235.941 206.397 235.823 206.491 235.706 206.585C235.33 206.889 234.954 207.194 234.554 207.499C234.53 207.522 234.483 207.546 234.436 207.592C234.084 207.874 233.731 208.155 233.379 208.436C233.238 208.53 233.12 208.647 232.979 208.741C232.721 208.951 232.439 209.139 232.18 209.35C232.039 209.467 231.875 209.584 231.734 209.678C231.475 209.865 231.217 210.076 230.958 210.264C230.817 210.381 230.653 210.475 230.512 210.592C230.23 210.803 229.948 210.99 229.665 211.201C229.548 211.295 229.407 211.388 229.289 211.482C228.866 211.787 228.467 212.068 228.044 212.349C228.02 212.373 227.997 212.396 227.95 212.419C227.55 212.701 227.151 212.958 226.751 213.216C226.61 213.31 226.469 213.404 226.328 213.497C226.046 213.685 225.741 213.896 225.459 214.083C225.294 214.177 225.13 214.294 224.965 214.388C224.683 214.575 224.401 214.763 224.119 214.927C223.954 215.02 223.79 215.138 223.625 215.231C223.32 215.419 223.014 215.606 222.709 215.794C222.568 215.887 222.427 215.958 222.286 216.051C221.839 216.333 221.393 216.59 220.923 216.872C220.899 216.872 220.899 216.895 220.876 216.895C220.429 217.153 219.982 217.41 219.536 217.668C219.395 217.762 219.23 217.832 219.089 217.926C218.76 218.113 218.455 218.301 218.126 218.465C217.961 218.559 217.773 218.652 217.609 218.77C217.303 218.934 216.998 219.098 216.692 219.285C216.504 219.379 216.34 219.473 216.152 219.566C215.823 219.754 215.494 219.918 215.165 220.105C215 220.199 214.859 220.269 214.694 220.363C214.201 220.621 213.731 220.878 213.237 221.113V290.05C213.731 289.793 214.224 289.535 214.694 289.277C214.859 289.207 215 289.113 215.165 289.043C215.494 288.855 215.823 288.691 216.152 288.504C216.34 288.41 216.504 288.316 216.692 288.223C216.998 288.059 217.303 287.895 217.609 287.707C217.773 287.613 217.961 287.52 218.126 287.426C218.455 287.239 218.76 287.074 219.089 286.887C219.23 286.793 219.395 286.723 219.536 286.629C219.982 286.372 220.429 286.114 220.876 285.856C220.899 285.856 220.899 285.833 220.923 285.833C221.369 285.551 221.839 285.294 222.286 285.012C222.427 284.919 222.568 284.848 222.709 284.755C223.014 284.567 223.32 284.38 223.625 284.192C223.79 284.099 223.954 283.981 224.119 283.888C224.401 283.7 224.683 283.513 224.965 283.349C225.13 283.255 225.294 283.138 225.459 283.044C225.764 282.857 226.046 282.669 226.328 282.458C226.469 282.365 226.61 282.271 226.751 282.177C227.151 281.919 227.55 281.638 227.95 281.357C227.973 281.334 227.997 281.31 228.02 281.31C228.443 281.029 228.866 280.724 229.266 280.443C229.407 280.349 229.524 280.256 229.642 280.162C229.924 279.951 230.206 279.764 230.488 279.553C230.629 279.436 230.794 279.342 230.935 279.225C231.193 279.037 231.452 278.85 231.71 278.639C231.851 278.522 232.016 278.428 232.157 278.311C232.439 278.1 232.697 277.912 232.956 277.702C233.097 277.608 233.214 277.514 233.355 277.397C233.708 277.116 234.06 276.835 234.413 276.577C234.46 276.553 234.483 276.53 234.53 276.483C234.907 276.178 235.306 275.874 235.682 275.569C235.8 275.476 235.917 275.382 236.035 275.288C236.293 275.077 236.552 274.866 236.81 274.632C236.951 274.515 237.092 274.398 237.21 274.28C237.445 274.07 237.68 273.882 237.915 273.671C238.056 273.554 238.197 273.437 238.314 273.32C238.549 273.109 238.808 272.898 239.043 272.687C239.16 272.57 239.278 272.476 239.395 272.359C239.701 272.078 240.03 271.797 240.336 271.515C240.383 271.469 240.43 271.445 240.453 271.398C240.806 271.07 241.135 270.742 241.487 270.438C241.581 270.344 241.699 270.227 241.793 270.133C242.028 269.899 242.263 269.688 242.498 269.453C242.615 269.336 242.733 269.219 242.874 269.102C243.085 268.891 243.297 268.68 243.508 268.469C243.626 268.352 243.743 268.212 243.884 268.094C244.096 267.883 244.307 267.649 244.542 267.415C244.66 267.298 244.754 267.181 244.872 267.087C245.154 266.806 245.412 266.501 245.694 266.22C245.741 266.173 245.788 266.126 245.812 266.079C246.117 265.751 246.423 265.4 246.728 265.072C246.822 264.978 246.916 264.861 247.01 264.767C247.175 264.58 247.316 264.416 247.48 264.228C247.527 264.181 247.574 264.111 247.621 264.064C247.786 263.877 247.927 263.713 248.068 263.525C248.232 263.338 248.397 263.15 248.561 262.963C248.702 262.775 248.867 262.611 249.008 262.424C249.172 262.236 249.313 262.049 249.478 261.838C249.619 261.651 249.76 261.487 249.901 261.299C250.066 261.112 250.207 260.924 250.371 260.713C250.512 260.526 250.653 260.362 250.794 260.174C250.935 259.987 251.1 259.776 251.241 259.588C251.382 259.401 251.523 259.214 251.664 259.05C251.805 258.862 251.946 258.651 252.087 258.464C252.228 258.276 252.345 258.089 252.486 257.901C252.627 257.714 252.768 257.503 252.909 257.316C253.05 257.128 253.168 256.941 253.285 256.753C253.426 256.566 253.567 256.355 253.685 256.167C253.802 255.98 253.943 255.792 254.061 255.605C254.202 255.418 254.319 255.207 254.46 255.019C254.578 254.832 254.696 254.644 254.837 254.457C254.954 254.246 255.095 254.058 255.213 253.848C255.33 253.66 255.448 253.473 255.565 253.285C255.683 253.074 255.824 252.887 255.941 252.676C256.059 252.489 256.176 252.301 256.294 252.114C256.411 251.903 256.529 251.715 256.646 251.504C256.764 251.317 256.858 251.129 256.975 250.942C257.093 250.731 257.21 250.544 257.328 250.333C257.445 250.145 257.539 249.958 257.657 249.747C257.774 249.536 257.868 249.349 257.986 249.138C258.08 248.95 258.197 248.763 258.291 248.552C258.409 248.341 258.503 248.13 258.62 247.943C258.714 247.755 258.808 247.544 258.902 247.357C258.996 247.146 259.114 246.935 259.208 246.748C259.302 246.56 259.396 246.349 259.49 246.162C259.537 246.092 259.561 245.998 259.608 245.927C259.655 245.834 259.678 245.763 259.725 245.67C259.89 245.295 260.078 244.92 260.242 244.545C260.313 244.404 260.36 244.264 260.43 244.147C260.642 243.655 260.853 243.163 261.065 242.67C261.088 242.6 261.112 242.53 261.159 242.46C261.323 242.038 261.511 241.593 261.676 241.171C261.723 241.03 261.793 240.866 261.84 240.726C261.981 240.351 262.122 239.952 262.263 239.577C262.31 239.437 262.357 239.32 262.404 239.179C262.569 238.687 262.757 238.171 262.898 237.679C262.921 237.586 262.968 237.492 262.992 237.375C263.133 236.953 263.25 236.555 263.368 236.133C263.415 235.969 263.462 235.828 263.509 235.664C263.626 235.266 263.72 234.867 263.838 234.469C263.861 234.352 263.908 234.235 263.932 234.118C264.073 233.602 264.19 233.087 264.308 232.595C264.308 232.571 264.331 232.524 264.331 232.501C264.355 232.384 264.378 232.267 264.402 232.173C264.473 231.845 264.543 231.517 264.614 231.189C264.661 231.025 264.684 230.837 264.708 230.673C264.778 230.368 264.825 230.064 264.872 229.759C264.896 229.572 264.943 229.408 264.966 229.22C265.013 228.892 265.084 228.588 265.131 228.26C265.154 228.096 265.178 227.932 265.201 227.768C265.272 227.346 265.319 226.947 265.366 226.526C265.366 226.455 265.389 226.385 265.389 226.338C265.46 225.87 265.507 225.377 265.554 224.909C265.577 224.768 265.577 224.628 265.601 224.487C265.624 224.159 265.671 223.807 265.695 223.479C265.718 223.292 265.718 223.128 265.742 222.94C265.765 222.636 265.789 222.308 265.812 222.003C265.812 221.816 265.836 221.652 265.836 221.464C265.859 221.136 265.859 220.832 265.883 220.504C265.883 220.386 265.883 220.269 265.906 220.152C265.906 220.105 265.906 220.058 265.906 220.011C265.93 219.519 265.93 219.004 265.93 218.512V149.551H266Z" fill="url(#paint16_linear_180_11554)"/>
<path d="M184.682 138.186L259.49 121.057C276.858 158.713 258.761 198.009 213.308 221.277L165.151 174.553C177.866 168.531 186.233 158.291 186.233 146.669C186.233 143.74 185.692 140.904 184.682 138.186Z" fill="url(#paint17_linear_180_11554)"/>
<path d="M170.275 179.521L213.308 221.277C213.308 221.277 216.669 219.543 222.497 216.145C235.118 208.272 257.046 191.377 263.814 166.024C263.814 166.024 258.056 200.305 213.543 222.8L213.308 261.393L212.415 222.847L170.275 179.521Z" fill="white"/>
<path d="M90.1317 161.431V207.663C88.792 210.686 88.0635 213.896 88.0635 217.247V171.015C88.0635 167.664 88.792 164.454 90.1317 161.431Z" fill="url(#paint18_radial_180_11554)"/>
<path d="M90.132 161.431V207.663C89.4975 209.092 89.0039 210.592 88.6514 212.091V165.86C89.0039 164.36 89.4975 162.86 90.132 161.431Z" fill="url(#paint19_radial_180_11554)"/>
<path d="M88.6515 165.86V212.091C88.3224 213.568 88.1109 215.091 88.0874 216.637V170.405C88.1109 168.859 88.3224 167.359 88.6515 165.86Z" fill="url(#paint20_radial_180_11554)"/>
<path d="M88.087 170.406V216.637C88.087 216.848 88.087 217.036 88.087 217.247V171.015C88.0635 170.804 88.0635 170.616 88.087 170.406Z" fill="url(#paint21_radial_180_11554)"/>
<path d="M205.011 295.205C205.575 294.924 206.139 294.62 206.68 294.339V248.107C206.116 248.411 205.575 248.693 205.011 248.974C204.87 249.044 204.729 249.114 204.588 249.185C204.048 249.466 203.484 249.747 202.943 250.005C202.52 250.216 202.097 250.427 201.674 250.614C201.133 250.872 200.593 251.106 200.076 251.364C198.877 251.926 197.679 252.465 196.456 253.004C195.869 253.262 195.258 253.52 194.647 253.777C193.401 254.293 192.155 254.808 190.91 255.277C190.393 255.488 189.876 255.675 189.359 255.886C187.596 256.542 185.833 257.175 184.024 257.784C183.812 257.855 183.601 257.925 183.389 257.995C181.791 258.511 180.193 259.026 178.571 259.495C178.289 259.589 178.007 259.659 177.725 259.729C177.514 259.799 177.302 259.846 177.09 259.917C177.02 259.94 176.949 259.963 176.855 259.987C176.409 260.104 175.986 260.221 175.539 260.338C175.328 260.409 175.116 260.456 174.881 260.526C174.247 260.69 173.636 260.854 173.001 261.018C172.366 261.182 171.732 261.346 171.097 261.487C169.758 261.815 168.395 262.119 167.031 262.424C166.514 262.541 166.021 262.658 165.504 262.752C163.647 263.127 161.79 263.502 159.91 263.806C159.746 263.83 159.581 263.853 159.417 263.877C159.323 263.9 159.229 263.9 159.135 263.923C159.064 263.923 158.994 263.947 158.923 263.97C158.242 264.087 157.56 264.181 156.878 264.298C156.69 264.322 156.526 264.345 156.338 264.392C155.656 264.486 154.951 264.603 154.246 264.697C153.612 264.79 153.001 264.861 152.366 264.931C151.073 265.095 149.781 265.236 148.465 265.376C147.807 265.447 147.148 265.517 146.49 265.564C145.08 265.681 143.67 265.798 142.26 265.892C141.766 265.915 141.273 265.962 140.779 265.986C140.051 266.032 139.346 266.056 138.617 266.103C138.335 266.126 138.029 266.126 137.747 266.15C136.854 266.196 135.961 266.22 135.092 266.243C134.692 266.243 134.269 266.243 133.87 266.267C132.318 266.29 130.744 266.314 129.193 266.314C128.817 266.314 128.417 266.314 128.041 266.29C127.148 266.267 126.278 266.267 125.385 266.243C125.103 266.243 124.821 266.22 124.539 266.22C123.905 266.196 123.247 266.173 122.612 266.15C122.353 266.15 122.118 266.126 121.86 266.103C120.168 266.032 118.499 265.915 116.83 265.798C116.525 265.775 116.196 265.751 115.89 265.728C114.104 265.587 112.341 265.4 110.579 265.212C110.203 265.165 109.803 265.119 109.427 265.072C108.581 264.978 107.735 264.861 106.889 264.744C106.63 264.697 106.348 264.673 106.09 264.626C105.408 264.533 104.75 264.439 104.069 264.345C103.857 264.322 103.646 264.275 103.434 264.252C101.765 263.994 100.097 263.713 98.428 263.408C98.1225 263.361 97.8169 263.291 97.5114 263.244C95.7722 262.916 94.033 262.541 92.3174 262.166C91.9648 262.096 91.5888 262.002 91.2363 261.908C89.4736 261.51 87.7344 261.088 86.0187 260.62C85.7837 260.549 85.5487 260.479 85.3137 260.432C85.2902 260.432 85.2431 260.409 85.2196 260.409C85.0081 260.338 84.7966 260.291 84.5851 260.221C84.5381 260.221 84.5146 260.198 84.4676 260.198C84.256 260.151 84.0445 260.081 83.8565 260.034H83.833C83.6215 259.987 83.4335 259.917 83.2454 259.87C83.1984 259.846 83.1514 259.846 83.0809 259.823C82.9164 259.776 82.7754 259.729 82.6344 259.682C82.5874 259.659 82.5404 259.659 82.4934 259.635C82.3054 259.589 82.1173 259.518 81.9528 259.471C81.9058 259.448 81.8823 259.448 81.8353 259.425C81.6943 259.378 81.5533 259.331 81.3888 259.284C81.3418 259.26 81.2947 259.26 81.2477 259.237C81.0597 259.19 80.8952 259.12 80.7072 259.073C80.4017 258.979 80.0726 258.886 79.7671 258.792C78.1219 258.276 76.4768 257.737 74.8551 257.175C74.5026 257.058 74.1265 256.917 73.774 256.8C72.1053 256.214 70.4601 255.605 68.8385 254.972C66.9113 254.199 65.3601 253.543 63.8325 252.887C63.5269 252.746 63.2449 252.629 62.9394 252.512C61.3882 251.832 59.8606 251.106 58.3329 250.356C58.0039 250.192 57.6749 250.028 57.3458 249.864C55.7947 249.091 54.267 248.318 52.7629 247.474C51.0237 246.513 49.59 245.693 48.1799 244.826C47.9214 244.662 47.6393 244.498 47.3808 244.358C45.9472 243.491 44.537 242.577 43.1504 241.663C42.8919 241.475 42.6098 241.311 42.3513 241.124C40.9412 240.163 39.531 239.179 38.1679 238.171C36.6637 237.047 35.3711 236.039 34.102 235.008C33.8434 234.797 33.6084 234.61 33.3499 234.399C32.0808 233.368 30.8586 232.29 29.6365 231.189C29.4015 230.978 29.1665 230.743 28.9314 230.533C27.6858 229.384 26.4637 228.236 25.2886 227.041C8.48436 210.147 0 191.377 0 171.929V218.16C0 237.609 8.48436 256.378 25.2181 273.273C26.3932 274.468 27.6388 275.64 28.8609 276.764C29.096 276.975 29.331 277.21 29.566 277.42C30.7646 278.522 32.0103 279.576 33.2794 280.631C33.5379 280.842 33.7729 281.029 34.0315 281.24C35.3006 282.271 36.5932 283.279 38.0974 284.403C39.4605 285.411 40.8706 286.395 42.2808 287.356C42.5393 287.543 42.8213 287.707 43.0799 287.895C44.4665 288.832 45.8767 289.722 47.3103 290.589C47.5688 290.753 47.8509 290.917 48.1094 291.058C49.543 291.902 50.9767 292.745 52.6923 293.706C54.1965 294.526 55.7242 295.323 57.2753 296.096C57.6043 296.26 57.9334 296.424 58.2624 296.588C59.7666 297.338 61.3177 298.041 62.8689 298.744C63.1509 298.884 63.4564 299.002 63.762 299.119C65.2896 299.798 66.8408 300.431 68.768 301.204C70.3896 301.837 72.0348 302.446 73.7035 303.032C74.056 303.149 74.4321 303.29 74.7846 303.407C76.4062 303.969 78.0514 304.508 79.6966 305.024C80.0021 305.117 80.3312 305.211 80.6367 305.305C80.8247 305.352 80.9892 305.422 81.1772 305.469C81.2242 305.492 81.2712 305.492 81.3183 305.516C81.4593 305.563 81.6003 305.609 81.7648 305.656C81.8118 305.68 81.8353 305.68 81.8823 305.703C82.0703 305.75 82.2583 305.82 82.4229 305.867C82.4699 305.891 82.5169 305.891 82.5639 305.914C82.7049 305.961 82.8694 306.008 83.0104 306.055C83.0574 306.078 83.1044 306.078 83.1749 306.101C83.363 306.148 83.5745 306.219 83.7625 306.265H83.786C83.927 306.312 84.0915 306.359 84.2325 306.383C84.2795 306.406 84.3266 306.406 84.3971 306.43C84.4441 306.43 84.4676 306.453 84.5146 306.453C84.7261 306.5 84.9376 306.57 85.1491 306.64C85.1726 306.64 85.2197 306.664 85.2431 306.664C85.4782 306.734 85.7132 306.781 85.9482 306.851C87.6874 307.32 89.4266 307.742 91.1657 308.14C91.5183 308.234 91.8943 308.304 92.2469 308.398C93.9625 308.773 95.7017 309.148 97.4409 309.476C97.7464 309.523 98.0519 309.593 98.3575 309.64C100.026 309.944 101.695 310.226 103.363 310.483C103.575 310.507 103.787 310.554 103.998 310.577C104.21 310.6 104.398 310.647 104.609 310.671C105.079 310.741 105.549 310.811 106.019 310.858C106.278 310.905 106.56 310.929 106.818 310.975C107.664 311.093 108.511 311.186 109.357 311.303C109.733 311.35 110.132 311.397 110.508 311.444C112.271 311.655 114.057 311.819 115.82 311.96C116.125 311.983 116.454 312.006 116.76 312.03C118.429 312.147 120.121 312.264 121.789 312.334C122.048 312.358 122.283 312.358 122.541 312.381C122.612 312.381 122.706 312.381 122.776 312.381C123.341 312.405 123.905 312.428 124.469 312.428C124.751 312.428 125.033 312.452 125.315 312.452C126.208 312.475 127.077 312.498 127.97 312.498C128.347 312.498 128.746 312.498 129.122 312.522C130.673 312.522 132.248 312.522 133.799 312.475C134.199 312.475 134.622 312.475 135.021 312.452C135.914 312.428 136.807 312.405 137.677 312.358C137.959 312.334 138.265 312.334 138.547 312.311C138.993 312.288 139.463 312.264 139.91 312.241C140.168 312.217 140.427 312.217 140.709 312.194C141.202 312.17 141.696 312.124 142.189 312.1C143.6 312.006 145.01 311.889 146.42 311.772C147.078 311.702 147.736 311.655 148.394 311.585C149.687 311.444 151.003 311.303 152.295 311.139C152.93 311.069 153.541 310.975 154.176 310.905C154.881 310.811 155.562 310.718 156.267 310.6C156.455 310.577 156.62 310.554 156.808 310.507C156.996 310.483 157.184 310.46 157.372 310.413C157.866 310.343 158.359 310.249 158.829 310.179C158.994 310.155 159.158 310.132 159.346 310.108C159.417 310.108 159.487 310.085 159.558 310.085C159.652 310.062 159.746 310.062 159.84 310.038C161.72 309.71 163.577 309.359 165.433 308.984C165.95 308.866 166.444 308.749 166.961 308.656C168.324 308.351 169.664 308.046 171.027 307.718C171.661 307.554 172.296 307.414 172.931 307.25C173.565 307.086 174.2 306.922 174.811 306.758C175.022 306.687 175.257 306.64 175.469 306.57C175.845 306.476 176.221 306.359 176.597 306.265C176.667 306.242 176.714 306.242 176.785 306.219C177.067 306.148 177.349 306.055 177.655 305.984C177.937 305.914 178.219 305.82 178.501 305.75C180.122 305.281 181.72 304.766 183.319 304.25C183.53 304.18 183.742 304.11 183.953 304.039C185.739 303.454 187.526 302.798 189.288 302.141C189.805 301.954 190.322 301.743 190.839 301.532C192.085 301.04 193.354 300.548 194.576 300.033C195.187 299.775 195.775 299.517 196.386 299.259C197.608 298.72 198.807 298.181 200.005 297.619C200.546 297.361 201.086 297.127 201.603 296.869C202.026 296.658 202.45 296.471 202.873 296.26C203.437 295.979 203.977 295.721 204.518 295.44C204.729 295.346 204.87 295.276 205.011 295.205Z" fill="url(#paint22_radial_180_11554)"/>
<path d="M130.274 201.969C139.557 201.969 148.135 199.766 155.116 196.04L206.703 248.13C205.058 249.021 203.366 249.841 201.674 250.661C201.133 250.919 200.593 251.153 200.076 251.411C198.877 251.973 197.678 252.512 196.456 253.051C195.869 253.309 195.258 253.566 194.647 253.824C193.401 254.34 192.155 254.855 190.91 255.324C190.393 255.535 189.876 255.722 189.359 255.933C187.596 256.589 185.833 257.222 184.024 257.831C183.812 257.901 183.6 257.972 183.389 258.042C181.791 258.558 180.193 259.073 178.571 259.542C178.007 259.706 177.443 259.87 176.855 260.034C175.586 260.385 174.294 260.737 173.001 261.065C172.366 261.229 171.732 261.393 171.097 261.533C169.758 261.861 168.394 262.166 167.031 262.471C166.514 262.588 166.021 262.705 165.504 262.799C163.647 263.174 161.79 263.549 159.91 263.853C159.581 263.9 159.252 263.947 158.899 264.017C157.348 264.275 155.797 264.509 154.246 264.72C153.611 264.814 153 264.884 152.366 264.954C151.073 265.119 149.781 265.259 148.464 265.4C147.806 265.47 147.148 265.54 146.49 265.587C145.08 265.704 143.67 265.821 142.26 265.915C141.766 265.939 141.273 265.986 140.779 266.009C138.875 266.126 136.995 266.196 135.092 266.243C134.692 266.243 134.269 266.243 133.869 266.267C132.318 266.29 130.744 266.314 129.192 266.314C128.816 266.314 128.417 266.314 128.041 266.29C126.231 266.267 124.421 266.22 122.612 266.15C122.353 266.15 122.118 266.126 121.86 266.103C120.168 266.032 118.499 265.915 116.83 265.798C116.525 265.775 116.196 265.751 115.89 265.728C114.104 265.587 112.341 265.4 110.579 265.212C110.203 265.165 109.803 265.119 109.427 265.072C107.641 264.861 105.855 264.626 104.068 264.345C103.857 264.322 103.645 264.275 103.434 264.252C101.765 263.994 100.096 263.713 98.4278 263.408C98.1223 263.361 97.8168 263.291 97.5112 263.244C95.772 262.916 94.0329 262.541 92.3172 262.166C91.9647 262.096 91.5886 262.002 91.2361 261.908C89.4734 261.51 87.7342 261.088 86.0186 260.62C83.9268 260.057 82.3052 259.589 80.6835 259.096C80.378 259.003 80.049 258.909 79.7434 258.815C78.0983 258.3 76.4531 257.761 74.8314 257.198C74.4789 257.081 74.1029 256.941 73.7503 256.824C72.0816 256.238 70.4365 255.628 68.8148 254.996C66.8876 254.223 65.3365 253.566 63.8088 252.91C63.5033 252.77 63.2213 252.653 62.9157 252.535C61.3646 251.856 59.8369 251.129 58.3093 250.38C57.9802 250.216 57.6512 250.052 57.3222 249.888C55.771 249.114 54.2433 248.341 52.7392 247.497C51 246.537 49.5664 245.717 48.1562 244.85C47.8977 244.686 47.6157 244.522 47.3571 244.381C45.9235 243.514 44.5134 242.6 43.1267 241.686C42.8682 241.499 42.5862 241.335 42.3276 241.147C40.9175 240.187 39.5073 239.202 38.1442 238.195C36.6401 237.07 35.3474 236.063 34.0783 235.032C33.8198 234.821 33.5847 234.633 33.3262 234.422C32.0571 233.391 30.835 232.313 29.6128 231.212C29.3778 231.001 29.1428 230.767 28.9078 230.556C27.6621 229.408 26.44 228.26 25.2649 227.065C-0.0941711 201.477 -6.55733 171.601 6.74502 141.56L90.1315 161.431C88.7918 164.454 88.0633 167.664 88.0633 171.015C88.0633 188.097 106.959 201.969 130.274 201.969Z" fill="url(#paint23_radial_180_11554)"/>
<path d="M171.849 260.338C174.505 259.893 177.161 259.401 179.816 258.862C180.616 258.698 183.013 257.925 183.013 257.925C183.013 257.925 141.085 274.234 91.518 262.26C-0.752374 239.999 -0.000294781 177.201 -0.000294781 177.201C9.49467 236.273 66.1119 258.089 112.059 264.111C143.364 268.188 170.251 260.619 171.849 260.338Z" fill="white"/>
</g>
<defs>
<radialGradient id="paint0_radial_180_11554" cx="0" cy="0" r="1" gradientUnits="userSpaceOnUse" gradientTransform="translate(143.173 73.7458) scale(51.5034 51.3496)">
<stop offset="0.3832" stop-color="#F5E207"/>
<stop offset="0.4481" stop-color="#EBD70B"/>
<stop offset="0.5705" stop-color="#DFC90F"/>
<stop offset="0.7236" stop-color="#D8C112"/>
<stop offset="1" stop-color="#D6BF13"/>
</radialGradient>
<radialGradient id="paint1_radial_180_11554" cx="0" cy="0" r="1" gradientUnits="userSpaceOnUse" gradientTransform="translate(131.415 102.48) scale(54.6856 54.5222)">
<stop offset="0.3832" stop-color="#F5E207"/>
<stop offset="0.4481" stop-color="#EBD70B"/>
<stop offset="0.5705" stop-color="#DFC90F"/>
<stop offset="0.7236" stop-color="#D8C112"/>
<stop offset="1" stop-color="#D6BF13"/>
</radialGradient>
<radialGradient id="paint2_radial_180_11554" cx="0" cy="0" r="1" gradientUnits="userSpaceOnUse" gradientTransform="translate(139.267 29.9523) scale(45.5212 45.3853)">
<stop offset="0.3832" stop-color="#F5E207"/>
<stop offset="0.4481" stop-color="#EBD70B"/>
<stop offset="0.5705" stop-color="#DFC90F"/>
<stop offset="0.7236" stop-color="#D8C112"/>
<stop offset="1" stop-color="#D6BF13"/>
</radialGradient>
<linearGradient id="paint3_linear_180_11554" x1="106.06" y1="170.51" x2="104.762" y2="90.9495" gradientUnits="userSpaceOnUse">
<stop offset="0.2607" stop-color="#C7C7C7"/>
<stop offset="0.8367" stop-color="#A6A6A6"/>
</linearGradient>
<linearGradient id="paint4_linear_180_11554" x1="46.1794" y1="179.79" x2="46.7891" y2="90.2363" gradientUnits="userSpaceOnUse">
<stop offset="0.1107" stop-color="#C7C7C7"/>
<stop offset="0.6543" stop-color="#A6A6A6"/>
</linearGradient>
<linearGradient id="paint5_linear_180_11554" x1="100.116" y1="120.072" x2="42.6874" y2="17.4706" gradientUnits="userSpaceOnUse">
<stop offset="0.1037" stop-color="#C7C7C7"/>
<stop offset="0.7253" stop-color="#A6A6A6"/>
</linearGradient>
<linearGradient id="paint6_linear_180_11554" x1="156.116" y1="84.8295" x2="172.192" y2="80.9788" gradientUnits="userSpaceOnUse">
<stop offset="0.1162" stop-color="#B4DD00"/>
<stop offset="1" stop-color="#95CF10"/>
</linearGradient>
<radialGradient id="paint7_radial_180_11554" cx="0" cy="0" r="1" gradientUnits="userSpaceOnUse" gradientTransform="translate(146.349 119.973) scale(43.0788 42.9503)">
<stop offset="0.1162" stop-color="#B4DD00"/>
<stop offset="1" stop-color="#95CF10"/>
</radialGradient>
<linearGradient id="paint8_linear_180_11554" x1="146.049" y1="67.6078" x2="162.043" y2="15.8902" gradientUnits="userSpaceOnUse">
<stop offset="0.1162" stop-color="#B4DD00"/>
<stop offset="1" stop-color="#95CF10"/>
</linearGradient>
<linearGradient id="paint9_linear_180_11554" x1="230.179" y1="71.409" x2="144.014" y2="120.348" gradientUnits="userSpaceOnUse">
<stop stop-color="#82D118"/>
<stop offset="0.8349" stop-color="#01B13E"/>
</linearGradient>
<linearGradient id="paint10_linear_180_11554" x1="159.123" y1="87.92" x2="157.084" y2="144.644" gradientUnits="userSpaceOnUse">
<stop offset="0.1651" stop-color="#01B13E"/>
<stop offset="1" stop-color="#82D118"/>
</linearGradient>
<linearGradient id="paint11_linear_180_11554" x1="187.061" y1="46.1509" x2="163.098" y2="98.7067" gradientUnits="userSpaceOnUse">
<stop stop-color="#01B13E"/>
<stop offset="1" stop-color="#82D118"/>
</linearGradient>
<linearGradient id="paint12_linear_180_11554" x1="201.457" y1="141.332" x2="323.44" y2="104.697" gradientUnits="userSpaceOnUse">
<stop offset="0.1871" stop-color="#4EB4EC"/>
<stop offset="0.5246" stop-color="#00A2E0"/>
</linearGradient>
<linearGradient id="paint13_linear_180_11554" x1="167.279" y1="82.7179" x2="258.815" y2="82.7179" gradientUnits="userSpaceOnUse">
<stop offset="0.2766" stop-color="#3FBBEC"/>
<stop offset="1" stop-color="#00A2E0"/>
</linearGradient>
<linearGradient id="paint14_linear_180_11554" x1="167.279" y1="134.963" x2="184.006" y2="134.963" gradientUnits="userSpaceOnUse">
<stop stop-color="#3FBBEC"/>
<stop offset="1" stop-color="#00A2E0"/>
</linearGradient>
<linearGradient id="paint15_linear_180_11554" x1="173.272" y1="173.533" x2="177.986" y2="96.3914" gradientUnits="userSpaceOnUse">
<stop offset="0.4378" stop-color="#3FBBEC"/>
<stop offset="0.9529" stop-color="#00A2E0"/>
</linearGradient>
<linearGradient id="paint16_linear_180_11554" x1="213.308" y1="219.881" x2="265.997" y2="219.881" gradientUnits="userSpaceOnUse">
<stop stop-color="#8F59D9"/>
<stop offset="1" stop-color="#562FAD"/>
</linearGradient>
<linearGradient id="paint17_linear_180_11554" x1="165.15" y1="171.165" x2="265.997" y2="171.165" gradientUnits="userSpaceOnUse">
<stop stop-color="#8F59D9"/>
<stop offset="1" stop-color="#562FAD"/>
</linearGradient>
<radialGradient id="paint18_radial_180_11554" cx="0" cy="0" r="1" gradientUnits="userSpaceOnUse" gradientTransform="translate(89.1041 189.337) scale(19.8039 19.7448)">
<stop offset="0.2337" stop-color="#BF1D5F"/>
<stop offset="0.3175" stop-color="#B3195A"/>
<stop offset="0.5646" stop-color="#95104C"/>
<stop offset="0.7043" stop-color="#8A0C47"/>
</radialGradient>
<radialGradient id="paint19_radial_180_11554" cx="0" cy="0" r="1" gradientUnits="userSpaceOnUse" gradientTransform="translate(89.395 186.766) scale(17.9744 17.9208)">
<stop offset="0.2337" stop-color="#BF1D5F"/>
<stop offset="0.3175" stop-color="#B3195A"/>
<stop offset="0.5646" stop-color="#95104C"/>
<stop offset="0.7043" stop-color="#8A0C47"/>
</radialGradient>
<radialGradient id="paint20_radial_180_11554" cx="0" cy="0" r="1" gradientUnits="userSpaceOnUse" gradientTransform="translate(88.3666 191.255) scale(18.0045 17.9506)">
<stop offset="0.2337" stop-color="#BF1D5F"/>
<stop offset="0.3175" stop-color="#B3195A"/>
<stop offset="0.5646" stop-color="#95104C"/>
<stop offset="0.7043" stop-color="#8A0C47"/>
</radialGradient>
<radialGradient id="paint21_radial_180_11554" cx="0" cy="0" r="1" gradientUnits="userSpaceOnUse" gradientTransform="translate(88.0756 193.827) scale(16.6063 16.5567)">
<stop offset="0.2337" stop-color="#BF1D5F"/>
<stop offset="0.3175" stop-color="#B3195A"/>
<stop offset="0.5646" stop-color="#95104C"/>
<stop offset="0.7043" stop-color="#8A0C47"/>
</radialGradient>
<radialGradient id="paint22_radial_180_11554" cx="0" cy="0" r="1" gradientUnits="userSpaceOnUse" gradientTransform="translate(7.72821 290.308) scale(164.509 164.018)">
<stop stop-color="#BF1D5F"/>
<stop offset="0.1473" stop-color="#B3195A"/>
<stop offset="0.581" stop-color="#95104C"/>
<stop offset="0.8263" stop-color="#8A0C47"/>
</radialGradient>
<radialGradient id="paint23_radial_180_11554" cx="0" cy="0" r="1" gradientUnits="userSpaceOnUse" gradientTransform="translate(103.344 203.934) scale(158.454 157.981)">
<stop offset="0.2337" stop-color="#BF1D5F"/>
<stop offset="0.3175" stop-color="#B3195A"/>
<stop offset="0.5646" stop-color="#95104C"/>
<stop offset="0.7043" stop-color="#8A0C47"/>
</radialGradient>
<clip-path id="clip0_180_11554">
<rect width="266" height="312" fill="white" transform="translate(0 0.545288)"/>
</clip-path>
</defs>
</svg>
