<svg width="22" height="23" viewBox="0 0 22 23" fill="none" xmlns="http://www.w3.org/2000/svg">
<path fill-rule="evenodd" clip-rule="evenodd" d="M2.44544 0.592143C2.06518 0.191616 1.44866 0.191616 1.0684 0.592143C0.688138 0.99267 0.688138 1.64205 1.0684 2.04258L9.83839 11.28L1.06872 20.5171C0.688462 20.9176 0.688323 21.5672 1.06841 21.9679C1.44849 22.3686 2.06486 22.3687 2.44512 21.9682L11.2154 12.7304L19.9851 21.9676C20.3654 22.3681 20.9819 22.3681 21.3622 21.9676C21.7424 21.567 21.7424 20.9177 21.3622 20.5171L12.5925 11.28L21.3619 2.04318C21.7421 1.64266 21.7423 0.993141 21.3622 0.592438C20.9821 0.191736 20.3657 0.191588 19.9855 0.592111L11.2154 9.82958L2.44544 0.592143Z" fill="#A2A2A2"/>
</svg>
