<svg width="117" height="117" viewBox="0 0 117 117" fill="none" xmlns="http://www.w3.org/2000/svg">
<path d="M17.1434 82.5205C12.5677 82.5205 10.2798 80.1102 10.2798 75.3529V68.1856C10.2798 63.3651 12.5677 61.018 17.1434 61.018H22.2912V53.0896H27.3117V82.5205H17.1434ZM22.3547 66.0923H17.3341C15.9995 66.0923 15.3004 66.8536 15.3004 68.3124V75.2261C15.3004 76.6851 15.9995 77.4461 17.3341 77.4461H22.3547V66.0923Z" fill="#2C2C2C"/>
<path d="M39.641 82.5205C35.0652 82.5205 32.7773 80.1101 32.7773 75.353V68.1856C32.7773 63.3649 35.0652 61.0181 39.641 61.0181H43.0094C47.5849 61.0181 49.8728 63.4285 49.8728 68.1856V73.7038H37.6073V75.2262C37.6073 76.6849 38.2428 77.4462 39.5775 77.4462H49.2373V82.5205H39.641ZM45.1064 67.9952C45.1064 66.4731 44.4074 65.7118 43.0729 65.7118H39.641C38.3063 65.7118 37.6708 66.4731 37.6708 67.9952V69.7712H45.1064V67.9952Z" fill="#2C2C2C"/>
<path d="M60.8673 82.5207C57.2448 82.5207 55.4019 80.5543 55.4019 76.6853V74.5921C55.4019 71.2303 57.2448 69.5811 60.9308 69.5811H67.7945V68.376C67.7945 66.9173 67.0955 66.156 65.7609 66.156H56.7364V60.9548H65.7609C70.3367 60.9548 72.5609 63.3653 72.5609 68.1224V82.5207H60.8673ZM67.7945 73.3869H61.63C60.6132 73.3869 60.1047 73.9578 60.1047 75.0361V76.3046C60.1047 77.2562 60.6132 77.7634 61.63 77.7634H67.7945V73.3869Z" fill="#2C2C2C"/>
<path d="M78.6621 82.5205V53.0896H83.6828V82.5205H78.6621Z" fill="#2C2C2C"/>
<path d="M89.2751 82.5206V77.4463H100.016C101.096 77.4463 101.604 76.9388 101.604 75.9239V75.1629C101.604 74.1479 101.096 73.6405 100.016 73.6405H95.0584C92.9613 73.6405 91.3724 73.2601 90.292 72.372C89.2116 71.5475 88.7031 70.2153 88.7031 68.3759V67.1708C88.7031 64.9508 89.2116 63.3652 90.292 62.3503C91.3724 61.3354 92.9613 60.8914 95.1219 60.8914H105.29V66.0291H94.8678C93.8509 66.0291 93.3424 66.5366 93.3424 67.5515V67.9319C93.3424 69.0102 93.9144 69.5811 94.9949 69.5811H100.079C102.113 69.5811 103.638 70.0251 104.718 70.8496C105.799 71.6743 106.307 72.9428 106.307 74.7188V76.1144C106.307 80.364 104.21 82.5206 100.079 82.5206H89.2751Z" fill="#2C2C2C"/>
<path d="M14.1563 116.709V112.015H20.5751C21.9097 112.015 22.5453 111.191 22.5453 109.605V107.765H17.2704C12.6946 107.765 10.4067 105.419 10.4067 100.725V95.7142C10.4067 90.8935 12.6946 88.5466 17.2704 88.5466H27.5659V109.415C27.5659 114.299 25.4051 116.772 21.02 116.772H14.1563V116.709ZM22.5453 93.621H17.4611C16.1265 93.621 15.4274 94.382 15.4274 95.841V100.915C15.4274 102.374 16.1265 103.072 17.4611 103.072H22.5453V93.621Z" fill="#2C2C2C"/>
<path d="M38.3062 110.049C34.6838 110.049 32.8408 108.082 32.8408 104.213V102.12C32.8408 98.7584 34.6838 97.1092 38.3698 97.1092H45.2335V95.8407C45.2335 94.3817 44.5344 93.6206 43.1999 93.6206H34.1754V88.4829H43.1999C47.7757 88.4829 50.0001 90.8932 50.0001 95.6502V109.985H38.3062V110.049ZM45.2335 100.915H39.069C38.0521 100.915 37.5437 101.486 37.5437 102.564V103.832C37.5437 104.784 38.0521 105.291 39.069 105.291H45.2335V100.915Z" fill="#2C2C2C"/>
<path d="M78.8524 110.049V95.8407C78.8524 94.3817 78.2805 93.6206 77.073 93.6206H74.0225C72.7515 93.6206 72.116 94.3817 72.116 95.8407V110.049H67.2224V95.8407C67.2224 94.3817 66.6504 93.6206 65.4429 93.6206H62.5195C61.185 93.6206 60.5495 94.3817 60.5495 95.9041V110.049H55.5923V88.4829H60.4224V90.8297C60.9306 89.8782 61.5026 89.3074 62.1383 88.9904C62.7738 88.6731 63.727 88.4829 64.8709 88.4829H66.8412C68.9383 88.4829 70.4001 89.3074 71.1627 91.02C71.6711 90.0687 72.3701 89.3708 73.26 89.0538C74.1496 88.6731 75.23 88.5463 76.374 88.5463H78.4077C81.9666 88.5463 83.7461 90.8932 83.7461 95.5868V110.112H78.8524V110.049Z" fill="#2C2C2C"/>
<path d="M96.0116 110.048C91.4358 110.048 89.1479 107.638 89.1479 102.881V95.7135C89.1479 90.893 91.4358 88.5461 96.0116 88.5461H99.38C103.956 88.5461 106.244 90.9564 106.244 95.7135V101.232H94.0416V102.754C94.0416 104.213 94.6771 104.974 96.0116 104.974H105.672V110.048H96.0116ZM101.477 95.5867C101.477 94.0645 100.778 93.3032 99.4435 93.3032H96.0116C94.6771 93.3032 94.0416 94.0645 94.0416 95.5867V97.3627H101.477V95.5867Z" fill="#2C2C2C"/>
<path d="M70.7812 12.432L70.3365 12.876C70.0822 13.1297 69.8281 13.2566 69.5102 13.2566C69.1926 13.2566 68.8747 13.1297 68.6841 12.876L63.9175 7.99199C63.4728 7.54801 63.4728 6.78684 63.9175 6.34286L64.2354 5.96228C67.9213 2.15657 73.0691 0 78.3439 0H110.629C111.01 0 111.391 0.190286 111.582 0.507429C111.773 0.824572 111.836 1.20514 111.709 1.58571L109.358 8.37257C109.167 8.81655 108.722 9.19714 108.214 9.19714H78.2804C75.5478 9.19714 72.815 10.3389 70.7812 12.432Z" fill="#2C2C2C"/>
<path d="M12.4405 18.2673H19.622C20.1304 18.2673 20.5752 18.5845 20.7659 19.0285L25.4052 32.2851H34.1118C36.9717 32.2851 39.7045 31.1433 41.6746 29.1135C41.7381 29.0501 41.7381 29.0501 41.8019 28.9867L46.8859 23.7222C47.0767 23.4685 47.3943 23.3415 47.7122 23.3415C48.0298 23.3415 48.3477 23.4685 48.5383 23.7222L53.3046 28.6063C53.4955 28.7965 53.6225 29.1135 53.6225 29.4308C53.6225 29.748 53.4955 30.065 53.3046 30.2552L48.2206 35.4564C44.5344 39.2622 39.3867 41.4188 34.1118 41.4188H19.6855C19.1771 41.4188 18.7322 41.1016 18.5416 40.5941L11.2966 19.853C11.1695 19.4725 11.233 19.0919 11.4237 18.7747C11.6144 18.4576 12.0592 18.2673 12.4405 18.2673Z" fill="#2C2C2C"/>
<path d="M5.06823 0.571392C5.32243 0.254249 5.70375 0.0639648 6.08507 0.0639648H38.3696C42.3099 0.0639648 46.1867 1.26911 49.4915 3.48911C49.9997 3.86967 50.5081 4.25025 51.0166 4.69424C51.525 5.13824 52.0335 5.58225 52.4784 6.02624L59.2148 12.8765L68.557 22.4542C68.6207 22.5177 68.6207 22.5177 68.6842 22.5811L74.976 28.9873C75.0395 28.9873 75.0395 29.0507 75.103 29.1141C77.0731 31.1439 79.8059 32.2857 82.6657 32.2857H91.3089L95.9482 19.0291C96.1388 18.5851 96.5837 18.268 97.0922 18.268H104.273C104.655 18.268 105.036 18.4583 105.227 18.7754C105.417 19.0925 105.481 19.4731 105.354 19.8537L98.0453 40.7218C97.8547 41.1656 97.4098 41.4828 96.9014 41.4828H82.4752C78.5984 41.4828 74.5946 40.2777 71.3533 38.0577C70.8449 37.677 70.3366 37.2966 69.8282 36.916C69.3197 36.4719 68.8113 36.0278 68.3664 35.584L57.4989 24.2936C57.4353 24.2302 57.4353 24.2302 57.4353 24.1668L48.0296 14.5891C47.9661 14.5891 47.9661 14.5257 47.9026 14.4622L45.9961 12.4959C45.9323 12.4325 45.8688 12.4325 45.8688 12.3691C43.8988 10.4028 41.1659 9.26109 38.3696 9.26109H8.4365C7.92808 9.26109 7.48322 8.94396 7.29257 8.43653L4.94113 1.64968C4.81402 1.26911 4.87757 0.888535 5.06823 0.571392Z" fill="#2C2C2C"/>
</svg>
