<svg width="84" height="33" viewBox="0 0 84 33" fill="none" xmlns="http://www.w3.org/2000/svg">
<path d="M51.7049 9.75791L51.3409 10.1291C51.1663 10.3075 50.9261 10.4094 50.6749 10.4094C50.4238 10.4094 50.1873 10.3075 50.0089 10.1291L46.2932 6.31145C45.9438 5.95479 45.9401 5.37977 46.2895 5.01948L46.5625 4.73561C49.4703 1.76225 53.5064 0.0517578 57.637 0.0517578H82.9596C83.2617 0.0517578 83.5419 0.197332 83.7166 0.441169C83.8913 0.685005 83.935 1.00163 83.8367 1.2855L81.9807 6.61351C81.8496 6.98837 81.5003 7.23584 81.1036 7.23584H57.637C55.4352 7.24312 53.2916 8.1384 51.7049 9.75791Z" fill="white"/>
<path d="M5.91783 14.3794H11.5443C11.9373 14.3794 12.2903 14.6305 12.4214 15.0017L16.0607 25.4321H22.9136C25.1445 25.4321 27.3063 24.5223 28.8458 22.9355C28.8712 22.9064 28.9003 22.8809 28.9331 22.8554L32.94 18.7321C33.1147 18.5537 33.3549 18.4518 33.606 18.4518C33.8571 18.4518 34.0973 18.5537 34.272 18.7321L37.9914 22.5461C38.1625 22.7172 38.2535 22.961 38.2535 23.2048C38.2535 23.4487 38.1589 23.6779 37.9914 23.8526L33.9918 27.9469C31.1022 30.9166 27.0625 32.6198 22.9136 32.6198H11.6171C11.2204 32.6198 10.871 32.3687 10.74 31.9975L5.04074 15.6131C4.94248 15.3293 4.98615 15.0163 5.16084 14.7688C5.33553 14.525 5.61576 14.3794 5.91783 14.3794Z" fill="white"/>
<path d="M0.171582 0.447028C0.346271 0.203191 0.626501 0.0576172 0.928567 0.0576172H26.2512C29.3592 0.0576172 32.3726 0.992931 34.9784 2.7653C35.3932 3.05644 35.7972 3.35851 36.1866 3.68241C36.587 4.01359 36.9618 4.36661 37.3257 4.74146L42.5992 10.1495C42.6028 10.1532 42.6101 10.1605 42.6137 10.1641L49.9543 17.7085C49.9798 17.734 50.0052 17.7631 50.0307 17.7958L54.9548 22.8545C54.9839 22.8764 55.013 22.9018 55.0385 22.931C56.5888 24.5213 58.747 25.4312 60.9597 25.4312H67.8235L71.4629 15.0008C71.5939 14.6296 71.9433 14.3785 72.34 14.3785H77.9773C78.2757 14.3785 78.5596 14.524 78.7343 14.7679C78.909 15.0117 78.9527 15.3283 78.8544 15.6122L73.1443 31.9966C73.0132 32.3678 72.6639 32.6189 72.2672 32.6189H60.9597C57.8954 32.6189 54.8019 31.6654 52.2435 29.9258C51.8286 29.6346 51.4246 29.3326 51.0461 29.016C50.6385 28.6884 50.2564 28.3318 49.8961 27.946L41.2854 19.0987C41.2599 19.0732 41.2344 19.0441 41.2126 19.0114L33.8502 11.4524C33.8174 11.4306 33.7883 11.4015 33.7592 11.3724L32.2707 9.83292C32.2306 9.80017 32.1906 9.76741 32.1579 9.72738C32.1506 9.7201 32.1433 9.71646 32.1397 9.70918C30.5929 8.14426 28.4457 7.24534 26.2548 7.24534H2.78464C2.38795 7.24534 2.03857 6.99422 1.90755 6.62301L0.0514831 1.28772C-0.0467795 1.00385 -0.00310722 0.690865 0.171582 0.447028Z" fill="white"/>
</svg>
