<svg width="220" height="40" viewBox="0 0 220 40" fill="none" xmlns="http://www.w3.org/2000/svg">
<path d="M8.00064 32.6268C2.94194 32.6268 0.412598 29.9737 0.412598 24.6675V16.7083C0.412598 11.4021 2.94194 8.74901 8.00064 8.74901H13.7253V0H19.2644V32.6268H8.00064ZM13.7253 14.43H8.18625C6.69412 14.43 5.95169 15.2525 5.95169 16.8975V24.5292C5.95169 26.1742 6.69776 26.9967 8.18625 26.9967H13.7253V14.43Z" fill="white"/>
<path d="M32.8429 32.6268C27.7842 32.6268 25.2549 29.9737 25.2549 24.6676V16.7083C25.2549 11.4021 27.7842 8.74902 32.8429 8.74902H36.566C41.6247 8.74902 44.154 11.4021 44.154 16.7083V22.8515H30.6557V24.5293C30.6557 26.1742 31.3836 26.9967 32.8429 26.9967H43.5026V32.6305H32.8429V32.6268ZM38.8915 16.57C38.8915 14.8959 38.1455 14.0552 36.657 14.0552H32.8393C31.3799 14.0552 30.6521 14.8959 30.6521 16.57V18.5243H38.8915V16.57Z" fill="white"/>
<path d="M56.3604 32.627C52.3279 32.627 50.3081 30.4689 50.3081 26.1563V23.8271C50.3081 20.104 52.3389 18.2407 56.4077 18.2407H63.9957V16.8905C63.9957 15.2455 63.2496 14.423 61.7612 14.423H51.7529V8.74561H61.7612C66.7871 8.74561 69.3019 11.3987 69.3019 16.7049V32.6234H56.3604V32.627ZM63.9921 22.5278H57.1501C56.0328 22.5278 55.4723 23.132 55.4723 24.3439V25.7414C55.4723 26.8259 56.0328 27.3718 57.1501 27.3718H63.9921V22.5278Z" fill="white"/>
<path d="M76.002 32.6268V0H81.541V32.6268H76.002Z" fill="white"/>
<path d="M87.7426 32.6268V26.9931H99.6142C100.793 26.9931 101.383 26.4326 101.383 25.319V24.4783C101.383 23.361 100.793 22.8006 99.6142 22.8006H94.1224C91.7932 22.8006 90.0499 22.3456 88.8853 21.4285C87.7207 20.5151 87.1421 19.0484 87.1421 17.0322V15.7293C87.1421 13.28 87.7317 11.504 88.9108 10.4013C90.09 9.3022 91.8732 8.74902 94.2643 8.74902H105.528V14.4264H94.0314C92.9141 14.4264 92.3536 14.9869 92.3536 16.1042V16.5227C92.3536 17.7346 92.9614 18.3387 94.1697 18.3387H99.7998C102.034 18.3387 103.741 18.7973 104.92 19.7108C106.099 20.6279 106.689 22.0618 106.689 24.0161V25.5519C106.689 30.2685 104.393 32.6268 99.7998 32.6268H87.7426Z" fill="white"/>
<path d="M117.199 40.0005V34.7853H124.274C125.733 34.7853 126.461 33.8863 126.461 32.0849V30.0359H120.642C115.583 30.0359 113.054 27.4483 113.054 22.2622V16.6795C113.054 11.3733 115.583 8.72021 120.642 8.72021H132V31.8519C132 37.2819 129.595 39.9968 124.783 39.9968H117.199V40.0005ZM126.461 14.4012H120.831C119.339 14.4012 118.596 15.2237 118.596 16.8687V22.5024C118.596 24.1147 119.343 24.9226 120.831 24.9226H126.461V14.4012Z" fill="white"/>
<path d="M143.9 32.5977C139.868 32.5977 137.848 30.4396 137.848 26.127V23.7978C137.848 20.0747 139.879 18.2114 143.948 18.2114H151.536V16.8612C151.536 15.2162 150.79 14.3937 149.301 14.3937H139.293V8.71631H149.301C154.327 8.71631 156.842 11.3694 156.842 16.6756V32.5941H143.9V32.5977ZM151.536 22.4985H144.694C143.576 22.4985 143.016 23.1027 143.016 24.3146V25.7121C143.016 26.7966 143.576 27.3425 144.694 27.3425H151.536V22.4985Z" fill="white"/>
<path d="M188.734 32.5978V16.8649C188.734 15.2199 188.083 14.3974 186.78 14.3974H183.381C181.983 14.3974 181.284 15.2199 181.284 16.8649V32.5978H175.84V16.8649C175.84 15.2199 175.189 14.3974 173.886 14.3974H170.625C169.165 14.3974 168.438 15.2344 168.438 16.9122V32.5978H162.946V8.72363H168.252V11.3294C168.812 10.3031 169.453 9.61527 170.184 9.25862C170.912 8.90196 171.928 8.72363 173.231 8.72363H175.421C177.747 8.72363 179.33 9.65531 180.167 11.515C180.728 10.4305 181.51 9.6917 182.518 9.30593C183.526 8.91652 184.684 8.72363 185.987 8.72363H188.268C192.206 8.72363 194.179 11.3149 194.179 16.4973V32.6014H188.734V32.5978Z" fill="white"/>
<path d="M207.695 32.598C202.636 32.598 200.107 29.9449 200.107 24.6387V16.6795C200.107 11.3733 202.636 8.72021 207.695 8.72021H211.418C216.477 8.72021 219.006 11.3733 219.006 16.6795V22.8227H205.508V24.5005C205.508 26.1454 206.236 26.9679 207.695 26.9679H218.355V32.6017H207.695V32.598ZM213.744 16.5412C213.744 14.8671 212.998 14.0264 211.509 14.0264H207.691C206.232 14.0264 205.504 14.8671 205.504 16.5412V18.4955H213.744V16.5412Z" fill="white"/>
</svg>



