<svg width="28" height="29" viewBox="0 0 28 29" fill="none" xmlns="http://www.w3.org/2000/svg">
<path d="M26.3198 19.3729L27.2447 19.7533C27.4033 19.3676 27.3059 18.924 27.0003 18.6402C26.6947 18.3564 26.2451 18.292 25.8722 18.4787L26.3198 19.3729ZM11.7773 1.62012L12.5843 2.21069C12.8298 1.87512 12.8421 1.42259 12.6151 1.07419C12.3881 0.725789 11.9692 0.554237 11.563 0.643347L11.7773 1.62012ZM21.1623 19.5891C15.2739 19.5891 10.4726 14.7321 10.4726 8.70596L8.47258 8.70596C8.47258 15.8056 14.1385 21.5891 21.1623 21.5891L21.1623 19.5891ZM25.8722 18.4787C24.452 19.1896 22.8541 19.5891 21.1623 19.5891L21.1623 21.5891C23.1728 21.5891 25.0764 21.1136 26.7675 20.2671L25.8722 18.4787ZM25.395 18.9925C23.6073 23.3391 19.3923 26.3774 14.4932 26.3774L14.4932 28.3774C20.2461 28.3774 25.1652 24.8091 27.2447 19.7533L25.395 18.9925ZM14.4932 26.3774C7.98431 26.3774 2.67995 21.0091 2.67995 14.3522L0.679948 14.3522C0.679948 22.0826 6.84893 28.3774 14.4932 28.3774L14.4932 26.3774ZM2.67995 14.3522C2.67995 8.57454 6.67931 3.76233 11.9916 2.59689L11.563 0.643347C5.33116 2.01053 0.679949 7.63714 0.679948 14.3522L2.67995 14.3522ZM10.4726 8.70596C10.4726 6.26875 11.2583 4.02255 12.5843 2.21069L10.9703 1.02954C9.40047 3.17459 8.47258 5.83236 8.47258 8.70596L10.4726 8.70596Z" fill="#EDF2F4"/>
</svg>
