<?xml version="1.0" encoding="UTF-8"?>
<svg fill="none" viewBox="0 0 799 436" xmlns="http://www.w3.org/2000/svg">
<g filter="url(#y)">
<rect x="20" y="16.879" width="758" height="394.32" rx="24" fill="#fff"/>
</g>
<path d="m406.43 61.545h-4.86l-5.86 9.88-5.86-9.88h-4.86v14h3.6v-9.6l5.82 9.6h2.6l5.82-9.6v9.6h3.6v-14zm9.529 2.02c-2.46 0-4.82 0.44-7.22 1.22l1.22 2.5c2.42-0.72 4.3-0.86 5.84-0.86 1.6 0 4.48 0.18 4.48 2.42-1.54-0.52-3.4-0.84-5.42-0.84-3.74 0-7.1 0.96-7.1 4.02 0 2.66 2.06 3.72 5.36 3.72 2.78 0 5.08-0.64 7.16-1.66v1.46h3.44v-5.94c-0.04-4.46-2.84-6.04-7.76-6.04zm4.32 8.32c-1.76 0.76-4.32 1.34-6.18 1.34-1.78 0-2.92-0.1-2.92-1.34 0-1.2 1.54-1.64 4.1-1.64 2.18 0 3.8 0.34 5 0.72v0.92zm16.084-5.26v-2.86h-5.58v-3.42l-3.44 0.98v2.44h-3.1v2.86h3.1v5.38c0 2.6 1.96 3.74 5 3.74 1.58 0 2.88-0.1 4.02-0.3v-2.76c-1.38 0.2-1.98 0.2-3.06 0.2-2.08 0-2.52-0.58-2.52-2.86v-3.4h5.58zm0.849 3.04c0 4.32 3.28 6.08 8.16 6.08 4.4 0 7.5-1.44 8.06-4.9h-3.5c-0.46 1.52-2.08 2.04-4.56 2.04-2.94 0-4.74-0.78-4.74-3.22 0-2.46 1.8-3.24 4.74-3.24 2.48 0 4.1 0.52 4.56 2.04h3.5c-0.56-3.46-3.66-4.9-8.06-4.9-4.88 0-8.16 1.76-8.16 6.1zm27.804-6.1c-2.86 0-5.18 0.94-6.86 2.26v-6.28h-3.42v16h3.42v-6.6c1.06-1.24 3.54-2.42 5.84-2.42 2.82 0 3.66 1.3 3.66 3.8v5.22h3.44l0.04-6.52c-0.04-4.34-2.98-5.46-6.12-5.46zm15.273 9.4c-2.28 0-4.08-0.62-4.46-2.5h12.72c0-5.36-3.58-6.9-8.06-6.9-4.78 0-8.16 1.76-8.16 6.1 0 4.32 3.48 6.08 7.96 6.08 4.36 0 7.28-1.42 8.06-4.42h-3.4c-0.86 1.2-2.3 1.64-4.66 1.64zm0.18-6.8c2.16 0 3.84 0.46 4.42 2.12h-8.94c0.54-1.66 2.18-2.12 4.52-2.12zm8.853 5.24c0 3.76 4.2 4.34 8.74 4.34s7.54-0.58 7.54-3.9c0-3.14-3.14-3.26-7.74-3.6-4.06-0.3-4.68-0.42-4.68-1.16 0-0.68 0.92-0.92 4.16-0.92 3.18 0 4.42 0.24 4.42 1.22h3.44c0-3.24-3.22-3.82-7.66-3.82-4.2 0-7.8 0.58-7.8 3.66 0 2.84 2.54 3.24 7.72 3.54 4.14 0.26 4.7 0.32 4.7 1.22 0 0.92-0.6 1.16-4.3 1.16-3.82 0-5.12-0.48-5.12-1.74h-3.42z" fill="#2C2C2C"/>
<path d="m444.86 113.79h-3.645l-4.395 7.41-4.395-7.41h-3.645v10.5h2.7v-7.2l4.365 7.2h1.95l4.365-7.2v7.2h2.7v-10.5zm7.147 1.515c-1.845 0-3.615 0.33-5.415 0.915l0.915 1.875c1.815-0.54 3.225-0.645 4.38-0.645 1.2 0 3.36 0.135 3.36 1.815-1.155-0.39-2.55-0.63-4.065-0.63-2.805 0-5.325 0.72-5.325 3.015 0 1.995 1.545 2.79 4.02 2.79 2.085 0 3.81-0.48 5.37-1.245v1.095h2.58v-4.455c-0.03-3.345-2.13-4.53-5.82-4.53zm3.24 6.24c-1.32 0.57-3.24 1.005-4.635 1.005-1.335 0-2.19-0.075-2.19-1.005 0-0.9 1.155-1.23 3.075-1.23 1.635 0 2.85 0.255 3.75 0.54v0.69zm12.063-3.945v-2.145h-4.185v-2.565l-2.58 0.735v1.83h-2.325v2.145h2.325v4.035c0 1.95 1.47 2.805 3.75 2.805 1.185 0 2.16-0.075 3.015-0.225v-2.07c-1.035 0.15-1.485 0.15-2.295 0.15-1.56 0-1.89-0.435-1.89-2.145v-2.55h4.185zm0.637 2.28c0 3.24 2.46 4.56 6.12 4.56 3.3 0 5.625-1.08 6.045-3.675h-2.625c-0.345 1.14-1.56 1.53-3.42 1.53-2.205 0-3.555-0.585-3.555-2.415 0-1.845 1.35-2.43 3.555-2.43 1.86 0 3.075 0.39 3.42 1.53h2.625c-0.42-2.595-2.745-3.675-6.045-3.675-3.66 0-6.12 1.32-6.12 4.575zm20.853-4.575c-2.145 0-3.885 0.705-5.145 1.695v-4.71h-2.565v12h2.565v-4.95c0.795-0.93 2.655-1.815 4.38-1.815 2.115 0 2.745 0.975 2.745 2.85v3.915h2.58l0.03-4.89c-0.03-3.255-2.235-4.095-4.59-4.095zm11.455 7.05c-1.71 0-3.06-0.465-3.345-1.875h9.54c0-4.02-2.685-5.175-6.045-5.175-3.585 0-6.12 1.32-6.12 4.575 0 3.24 2.61 4.56 5.97 4.56 3.27 0 5.46-1.065 6.045-3.315h-2.55c-0.645 0.9-1.725 1.23-3.495 1.23zm0.135-5.1c1.62 0 2.88 0.345 3.315 1.59h-6.705c0.405-1.245 1.635-1.59 3.39-1.59zm6.639 3.93c0 2.82 3.15 3.255 6.555 3.255s5.655-0.435 5.655-2.925c0-2.355-2.355-2.445-5.805-2.7-3.045-0.225-3.51-0.315-3.51-0.87 0-0.51 0.69-0.69 3.12-0.69 2.385 0 3.315 0.18 3.315 0.915h2.58c0-2.43-2.415-2.865-5.745-2.865-3.15 0-5.85 0.435-5.85 2.745 0 2.13 1.905 2.43 5.79 2.655 3.105 0.195 3.525 0.24 3.525 0.915 0 0.69-0.45 0.87-3.225 0.87-2.865 0-3.84-0.36-3.84-1.305h-2.565zm26.848-7.155c0.66 0 1.26 0.03 1.845 0.075v-1.815c-1.305-0.15-1.77-0.15-2.655-0.15-2.58 0-3.66 0.855-3.66 2.655v0.66h-2.325v2.145h2.325v6.69h2.58v-6.69h3.735v-2.145h-3.735c0.045-1.11 0.42-1.425 1.89-1.425zm2.818-1.74v2.235h2.565v-2.235h-2.565zm0 3.165v8.835h2.565v-8.835h-2.565zm10.948-0.15c-1.65 0-3.21 0.465-4.53 1.65v-1.5h-2.565v8.835h2.565v-5.295c1.56-1.215 3.21-1.545 4.65-1.545 0.75 0 1.425 0.09 2.265 0.3v-2.145c-0.6-0.15-1.335-0.3-2.385-0.3zm2.789 5.88c0 2.82 3.15 3.255 6.555 3.255s5.655-0.435 5.655-2.925c0-2.355-2.355-2.445-5.805-2.7-3.045-0.225-3.51-0.315-3.51-0.87 0-0.51 0.69-0.69 3.12-0.69 2.385 0 3.315 0.18 3.315 0.915h2.58c0-2.43-2.415-2.865-5.745-2.865-3.15 0-5.85 0.435-5.85 2.745 0 2.13 1.905 2.43 5.79 2.655 3.105 0.195 3.525 0.24 3.525 0.915 0 0.69-0.45 0.87-3.225 0.87-2.865 0-3.84-0.36-3.84-1.305h-2.565zm21.556-3.585v-2.145h-4.185v-2.565l-2.58 0.735v1.83h-2.325v2.145h2.325v4.035c0 1.95 1.47 2.805 3.75 2.805 1.185 0 2.16-0.075 3.015-0.225v-2.07c-1.035 0.15-1.485 0.15-2.295 0.15-1.56 0-1.89-0.435-1.89-2.145v-2.55h4.185zm14.293 4.425v-8.235h-2.7c0 2.01-2.055 2.01-3.6 2.01v2.28c1.095 0 2.49 0 3.63-1.005l-0.015 4.95h-3.615v2.265h9.9v-2.265h-3.6z" fill="#2C2C2C"/>
<path d="m444.86 153.88h-3.645l-4.395 7.41-4.395-7.41h-3.645v10.5h2.7v-7.2l4.365 7.2h1.95l4.365-7.2v7.2h2.7v-10.5zm7.147 1.515c-1.845 0-3.615 0.33-5.415 0.915l0.915 1.875c1.815-0.54 3.225-0.645 4.38-0.645 1.2 0 3.36 0.135 3.36 1.815-1.155-0.39-2.55-0.63-4.065-0.63-2.805 0-5.325 0.72-5.325 3.015 0 1.995 1.545 2.79 4.02 2.79 2.085 0 3.81-0.48 5.37-1.245v1.095h2.58v-4.455c-0.03-3.345-2.13-4.53-5.82-4.53zm3.24 6.24c-1.32 0.57-3.24 1.005-4.635 1.005-1.335 0-2.19-0.075-2.19-1.005 0-0.9 1.155-1.23 3.075-1.23 1.635 0 2.85 0.255 3.75 0.54v0.69zm12.063-3.945v-2.145h-4.185v-2.565l-2.58 0.735v1.83h-2.325v2.145h2.325v4.035c0 1.95 1.47 2.805 3.75 2.805 1.185 0 2.16-0.075 3.015-0.225v-2.07c-1.035 0.15-1.485 0.15-2.295 0.15-1.56 0-1.89-0.435-1.89-2.145v-2.55h4.185zm0.637 2.28c0 3.24 2.46 4.56 6.12 4.56 3.3 0 5.625-1.08 6.045-3.675h-2.625c-0.345 1.14-1.56 1.53-3.42 1.53-2.205 0-3.555-0.585-3.555-2.415 0-1.845 1.35-2.43 3.555-2.43 1.86 0 3.075 0.39 3.42 1.53h2.625c-0.42-2.595-2.745-3.675-6.045-3.675-3.66 0-6.12 1.32-6.12 4.575zm20.853-4.575c-2.145 0-3.885 0.705-5.145 1.695v-4.71h-2.565v12h2.565v-4.95c0.795-0.93 2.655-1.815 4.38-1.815 2.115 0 2.745 0.975 2.745 2.85v3.915h2.58l0.03-4.89c-0.03-3.255-2.235-4.095-4.59-4.095zm11.455 7.05c-1.71 0-3.06-0.465-3.345-1.875h9.54c0-4.02-2.685-5.175-6.045-5.175-3.585 0-6.12 1.32-6.12 4.575 0 3.24 2.61 4.56 5.97 4.56 3.27 0 5.46-1.065 6.045-3.315h-2.55c-0.645 0.9-1.725 1.23-3.495 1.23zm0.135-5.1c1.62 0 2.88 0.345 3.315 1.59h-6.705c0.405-1.245 1.635-1.59 3.39-1.59zm6.639 3.93c0 2.82 3.15 3.255 6.555 3.255s5.655-0.435 5.655-2.925c0-2.355-2.355-2.445-5.805-2.7-3.045-0.225-3.51-0.315-3.51-0.87 0-0.51 0.69-0.69 3.12-0.69 2.385 0 3.315 0.18 3.315 0.915h2.58c0-2.43-2.415-2.865-5.745-2.865-3.15 0-5.85 0.435-5.85 2.745 0 2.13 1.905 2.43 5.79 2.655 3.105 0.195 3.525 0.24 3.525 0.915 0 0.69-0.45 0.87-3.225 0.87-2.865 0-3.84-0.36-3.84-1.305h-2.565zm26.848-7.155c0.66 0 1.26 0.03 1.845 0.075v-1.815c-1.305-0.15-1.77-0.15-2.655-0.15-2.58 0-3.66 0.855-3.66 2.655v0.66h-2.325v2.145h2.325v6.69h2.58v-6.69h3.735v-2.145h-3.735c0.045-1.11 0.42-1.425 1.89-1.425zm2.818-1.74v2.235h2.565v-2.235h-2.565zm0 3.165v8.835h2.565v-8.835h-2.565zm10.948-0.15c-1.65 0-3.21 0.465-4.53 1.65v-1.5h-2.565v8.835h2.565v-5.295c1.56-1.215 3.21-1.545 4.65-1.545 0.75 0 1.425 0.09 2.265 0.3v-2.145c-0.6-0.15-1.335-0.3-2.385-0.3zm2.789 5.88c0 2.82 3.15 3.255 6.555 3.255s5.655-0.435 5.655-2.925c0-2.355-2.355-2.445-5.805-2.7-3.045-0.225-3.51-0.315-3.51-0.87 0-0.51 0.69-0.69 3.12-0.69 2.385 0 3.315 0.18 3.315 0.915h2.58c0-2.43-2.415-2.865-5.745-2.865-3.15 0-5.85 0.435-5.85 2.745 0 2.13 1.905 2.43 5.79 2.655 3.105 0.195 3.525 0.24 3.525 0.915 0 0.69-0.45 0.87-3.225 0.87-2.865 0-3.84-0.36-3.84-1.305h-2.565zm21.556-3.585v-2.145h-4.185v-2.565l-2.58 0.735v1.83h-2.325v2.145h2.325v4.035c0 1.95 1.47 2.805 3.75 2.805 1.185 0 2.16-0.075 3.015-0.225v-2.07c-1.035 0.15-1.485 0.15-2.295 0.15-1.56 0-1.89-0.435-1.89-2.145v-2.55h4.185zm19.753-0.66c0-2.61-2.115-3.3-5.73-3.3-3.48 0-5.94 0.78-5.94 4.275h2.7c0-1.665 1.065-2.01 3.39-2.01s2.88 0.375 2.88 1.245c0 2.385-9.21 1.41-9.21 5.775v1.365h11.76v-2.265h-7.98c0.66-2.085 8.13-1.02 8.13-5.085z" fill="#2C2C2C"/>
<path d="m444.86 193.97h-3.645l-4.395 7.41-4.395-7.41h-3.645v10.5h2.7v-7.2l4.365 7.2h1.95l4.365-7.2v7.2h2.7v-10.5zm7.147 1.515c-1.845 0-3.615 0.33-5.415 0.915l0.915 1.875c1.815-0.54 3.225-0.645 4.38-0.645 1.2 0 3.36 0.135 3.36 1.815-1.155-0.39-2.55-0.63-4.065-0.63-2.805 0-5.325 0.72-5.325 3.015 0 1.995 1.545 2.79 4.02 2.79 2.085 0 3.81-0.48 5.37-1.245v1.095h2.58v-4.455c-0.03-3.345-2.13-4.53-5.82-4.53zm3.24 6.24c-1.32 0.57-3.24 1.005-4.635 1.005-1.335 0-2.19-0.075-2.19-1.005 0-0.9 1.155-1.23 3.075-1.23 1.635 0 2.85 0.255 3.75 0.54v0.69zm12.063-3.945v-2.145h-4.185v-2.565l-2.58 0.735v1.83h-2.325v2.145h2.325v4.035c0 1.95 1.47 2.805 3.75 2.805 1.185 0 2.16-0.075 3.015-0.225v-2.07c-1.035 0.15-1.485 0.15-2.295 0.15-1.56 0-1.89-0.435-1.89-2.145v-2.55h4.185zm0.637 2.28c0 3.24 2.46 4.56 6.12 4.56 3.3 0 5.625-1.08 6.045-3.675h-2.625c-0.345 1.14-1.56 1.53-3.42 1.53-2.205 0-3.555-0.585-3.555-2.415 0-1.845 1.35-2.43 3.555-2.43 1.86 0 3.075 0.39 3.42 1.53h2.625c-0.42-2.595-2.745-3.675-6.045-3.675-3.66 0-6.12 1.32-6.12 4.575zm20.853-4.575c-2.145 0-3.885 0.705-5.145 1.695v-4.71h-2.565v12h2.565v-4.95c0.795-0.93 2.655-1.815 4.38-1.815 2.115 0 2.745 0.975 2.745 2.85v3.915h2.58l0.03-4.89c-0.03-3.255-2.235-4.095-4.59-4.095zm11.455 7.05c-1.71 0-3.06-0.465-3.345-1.875h9.54c0-4.02-2.685-5.175-6.045-5.175-3.585 0-6.12 1.32-6.12 4.575 0 3.24 2.61 4.56 5.97 4.56 3.27 0 5.46-1.065 6.045-3.315h-2.55c-0.645 0.9-1.725 1.23-3.495 1.23zm0.135-5.1c1.62 0 2.88 0.345 3.315 1.59h-6.705c0.405-1.245 1.635-1.59 3.39-1.59zm6.639 3.93c0 2.82 3.15 3.255 6.555 3.255s5.655-0.435 5.655-2.925c0-2.355-2.355-2.445-5.805-2.7-3.045-0.225-3.51-0.315-3.51-0.87 0-0.51 0.69-0.69 3.12-0.69 2.385 0 3.315 0.18 3.315 0.915h2.58c0-2.43-2.415-2.865-5.745-2.865-3.15 0-5.85 0.435-5.85 2.745 0 2.13 1.905 2.43 5.79 2.655 3.105 0.195 3.525 0.24 3.525 0.915 0 0.69-0.45 0.87-3.225 0.87-2.865 0-3.84-0.36-3.84-1.305h-2.565zm26.848-7.155c0.66 0 1.26 0.03 1.845 0.075v-1.815c-1.305-0.15-1.77-0.15-2.655-0.15-2.58 0-3.66 0.855-3.66 2.655v0.66h-2.325v2.145h2.325v6.69h2.58v-6.69h3.735v-2.145h-3.735c0.045-1.11 0.42-1.425 1.89-1.425zm2.818-1.74v2.235h2.565v-2.235h-2.565zm0 3.165v8.835h2.565v-8.835h-2.565zm10.948-0.15c-1.65 0-3.21 0.465-4.53 1.65v-1.5h-2.565v8.835h2.565v-5.295c1.56-1.215 3.21-1.545 4.65-1.545 0.75 0 1.425 0.09 2.265 0.3v-2.145c-0.6-0.15-1.335-0.3-2.385-0.3zm2.789 5.88c0 2.82 3.15 3.255 6.555 3.255s5.655-0.435 5.655-2.925c0-2.355-2.355-2.445-5.805-2.7-3.045-0.225-3.51-0.315-3.51-0.87 0-0.51 0.69-0.69 3.12-0.69 2.385 0 3.315 0.18 3.315 0.915h2.58c0-2.43-2.415-2.865-5.745-2.865-3.15 0-5.85 0.435-5.85 2.745 0 2.13 1.905 2.43 5.79 2.655 3.105 0.195 3.525 0.24 3.525 0.915 0 0.69-0.45 0.87-3.225 0.87-2.865 0-3.84-0.36-3.84-1.305h-2.565zm21.556-3.585v-2.145h-4.185v-2.565l-2.58 0.735v1.83h-2.325v2.145h2.325v4.035c0 1.95 1.47 2.805 3.75 2.805 1.185 0 2.16-0.075 3.015-0.225v-2.07c-1.035 0.15-1.485 0.15-2.295 0.15-1.56 0-1.89-0.435-1.89-2.145v-2.55h4.185zm18.133 1.44c1.005-0.48 1.62-1.2 1.62-2.295 0-2.325-2.115-3.105-5.805-3.105-3.645 0-6.105 0.78-6.105 4.125h2.7c0-1.59 0.99-1.86 3.555-1.86 2.325 0 2.955 0.27 2.955 1.185 0 1.05-0.885 1.14-4.455 1.14v1.62c3.645 0 4.455 0.09 4.455 1.14 0 1.005-0.81 1.185-2.955 1.185-2.31 0-3.555-0.18-3.555-1.86h-2.7c0 3.345 2.46 4.125 6.105 4.125 3.69 0 5.805-0.78 5.805-3.105 0-1.095-0.615-1.815-1.62-2.295z" fill="#2C2C2C"/>
<path d="m444.86 234.07h-3.645l-4.395 7.41-4.395-7.41h-3.645v10.5h2.7v-7.2l4.365 7.2h1.95l4.365-7.2v7.2h2.7v-10.5zm7.147 1.515c-1.845 0-3.615 0.33-5.415 0.915l0.915 1.875c1.815-0.54 3.225-0.645 4.38-0.645 1.2 0 3.36 0.135 3.36 1.815-1.155-0.39-2.55-0.63-4.065-0.63-2.805 0-5.325 0.72-5.325 3.015 0 1.995 1.545 2.79 4.02 2.79 2.085 0 3.81-0.48 5.37-1.245v1.095h2.58v-4.455c-0.03-3.345-2.13-4.53-5.82-4.53zm3.24 6.24c-1.32 0.57-3.24 1.005-4.635 1.005-1.335 0-2.19-0.075-2.19-1.005 0-0.9 1.155-1.23 3.075-1.23 1.635 0 2.85 0.255 3.75 0.54v0.69zm12.063-3.945v-2.145h-4.185v-2.565l-2.58 0.735v1.83h-2.325v2.145h2.325v4.035c0 1.95 1.47 2.805 3.75 2.805 1.185 0 2.16-0.075 3.015-0.225v-2.07c-1.035 0.15-1.485 0.15-2.295 0.15-1.56 0-1.89-0.435-1.89-2.145v-2.55h4.185zm0.637 2.28c0 3.24 2.46 4.56 6.12 4.56 3.3 0 5.625-1.08 6.045-3.675h-2.625c-0.345 1.14-1.56 1.53-3.42 1.53-2.205 0-3.555-0.585-3.555-2.415 0-1.845 1.35-2.43 3.555-2.43 1.86 0 3.075 0.39 3.42 1.53h2.625c-0.42-2.595-2.745-3.675-6.045-3.675-3.66 0-6.12 1.32-6.12 4.575zm20.853-4.575c-2.145 0-3.885 0.705-5.145 1.695v-4.71h-2.565v12h2.565v-4.95c0.795-0.93 2.655-1.815 4.38-1.815 2.115 0 2.745 0.975 2.745 2.85v3.915h2.58l0.03-4.89c-0.03-3.255-2.235-4.095-4.59-4.095zm11.455 7.05c-1.71 0-3.06-0.465-3.345-1.875h9.54c0-4.02-2.685-5.175-6.045-5.175-3.585 0-6.12 1.32-6.12 4.575 0 3.24 2.61 4.56 5.97 4.56 3.27 0 5.46-1.065 6.045-3.315h-2.55c-0.645 0.9-1.725 1.23-3.495 1.23zm0.135-5.1c1.62 0 2.88 0.345 3.315 1.59h-6.705c0.405-1.245 1.635-1.59 3.39-1.59zm6.639 3.93c0 2.82 3.15 3.255 6.555 3.255s5.655-0.435 5.655-2.925c0-2.355-2.355-2.445-5.805-2.7-3.045-0.225-3.51-0.315-3.51-0.87 0-0.51 0.69-0.69 3.12-0.69 2.385 0 3.315 0.18 3.315 0.915h2.58c0-2.43-2.415-2.865-5.745-2.865-3.15 0-5.85 0.435-5.85 2.745 0 2.13 1.905 2.43 5.79 2.655 3.105 0.195 3.525 0.24 3.525 0.915 0 0.69-0.45 0.87-3.225 0.87-2.865 0-3.84-0.36-3.84-1.305h-2.565zm26.848-7.155c0.66 0 1.26 0.03 1.845 0.075v-1.815c-1.305-0.15-1.77-0.15-2.655-0.15-2.58 0-3.66 0.855-3.66 2.655v0.66h-2.325v2.145h2.325v6.69h2.58v-6.69h3.735v-2.145h-3.735c0.045-1.11 0.42-1.425 1.89-1.425zm2.818-1.74v2.235h2.565v-2.235h-2.565zm0 3.165v8.835h2.565v-8.835h-2.565zm10.948-0.15c-1.65 0-3.21 0.465-4.53 1.65v-1.5h-2.565v8.835h2.565v-5.295c1.56-1.215 3.21-1.545 4.65-1.545 0.75 0 1.425 0.09 2.265 0.3v-2.145c-0.6-0.15-1.335-0.3-2.385-0.3zm2.789 5.88c0 2.82 3.15 3.255 6.555 3.255s5.655-0.435 5.655-2.925c0-2.355-2.355-2.445-5.805-2.7-3.045-0.225-3.51-0.315-3.51-0.87 0-0.51 0.69-0.69 3.12-0.69 2.385 0 3.315 0.18 3.315 0.915h2.58c0-2.43-2.415-2.865-5.745-2.865-3.15 0-5.85 0.435-5.85 2.745 0 2.13 1.905 2.43 5.79 2.655 3.105 0.195 3.525 0.24 3.525 0.915 0 0.69-0.45 0.87-3.225 0.87-2.865 0-3.84-0.36-3.84-1.305h-2.565zm21.556-3.585v-2.145h-4.185v-2.565l-2.58 0.735v1.83h-2.325v2.145h2.325v4.035c0 1.95 1.47 2.805 3.75 2.805 1.185 0 2.16-0.075 3.015-0.225v-2.07c-1.035 0.15-1.485 0.15-2.295 0.15-1.56 0-1.89-0.435-1.89-2.145v-2.55h4.185zm20.203 2.7h-2.1v-6.51h-2.7l-7.41 6.51v2.28h7.41v1.71h2.7v-1.71h2.1v-2.28zm-9.3 0 4.5-3.81v3.81h-4.5z" fill="#2C2C2C"/>
<path d="m444.86 274.16h-3.645l-4.395 7.41-4.395-7.41h-3.645v10.5h2.7v-7.2l4.365 7.2h1.95l4.365-7.2v7.2h2.7v-10.5zm7.147 1.515c-1.845 0-3.615 0.33-5.415 0.915l0.915 1.875c1.815-0.54 3.225-0.645 4.38-0.645 1.2 0 3.36 0.135 3.36 1.815-1.155-0.39-2.55-0.63-4.065-0.63-2.805 0-5.325 0.72-5.325 3.015 0 1.995 1.545 2.79 4.02 2.79 2.085 0 3.81-0.48 5.37-1.245v1.095h2.58v-4.455c-0.03-3.345-2.13-4.53-5.82-4.53zm3.24 6.24c-1.32 0.57-3.24 1.005-4.635 1.005-1.335 0-2.19-0.075-2.19-1.005 0-0.9 1.155-1.23 3.075-1.23 1.635 0 2.85 0.255 3.75 0.54v0.69zm12.063-3.945v-2.145h-4.185v-2.565l-2.58 0.735v1.83h-2.325v2.145h2.325v4.035c0 1.95 1.47 2.805 3.75 2.805 1.185 0 2.16-0.075 3.015-0.225v-2.07c-1.035 0.15-1.485 0.15-2.295 0.15-1.56 0-1.89-0.435-1.89-2.145v-2.55h4.185zm0.637 2.28c0 3.24 2.46 4.56 6.12 4.56 3.3 0 5.625-1.08 6.045-3.675h-2.625c-0.345 1.14-1.56 1.53-3.42 1.53-2.205 0-3.555-0.585-3.555-2.415 0-1.845 1.35-2.43 3.555-2.43 1.86 0 3.075 0.39 3.42 1.53h2.625c-0.42-2.595-2.745-3.675-6.045-3.675-3.66 0-6.12 1.32-6.12 4.575zm20.853-4.575c-2.145 0-3.885 0.705-5.145 1.695v-4.71h-2.565v12h2.565v-4.95c0.795-0.93 2.655-1.815 4.38-1.815 2.115 0 2.745 0.975 2.745 2.85v3.915h2.58l0.03-4.89c-0.03-3.255-2.235-4.095-4.59-4.095zm11.455 7.05c-1.71 0-3.06-0.465-3.345-1.875h9.54c0-4.02-2.685-5.175-6.045-5.175-3.585 0-6.12 1.32-6.12 4.575 0 3.24 2.61 4.56 5.97 4.56 3.27 0 5.46-1.065 6.045-3.315h-2.55c-0.645 0.9-1.725 1.23-3.495 1.23zm0.135-5.1c1.62 0 2.88 0.345 3.315 1.59h-6.705c0.405-1.245 1.635-1.59 3.39-1.59zm6.639 3.93c0 2.82 3.15 3.255 6.555 3.255s5.655-0.435 5.655-2.925c0-2.355-2.355-2.445-5.805-2.7-3.045-0.225-3.51-0.315-3.51-0.87 0-0.51 0.69-0.69 3.12-0.69 2.385 0 3.315 0.18 3.315 0.915h2.58c0-2.43-2.415-2.865-5.745-2.865-3.15 0-5.85 0.435-5.85 2.745 0 2.13 1.905 2.43 5.79 2.655 3.105 0.195 3.525 0.24 3.525 0.915 0 0.69-0.45 0.87-3.225 0.87-2.865 0-3.84-0.36-3.84-1.305h-2.565zm26.848-7.155c0.66 0 1.26 0.03 1.845 0.075v-1.815c-1.305-0.15-1.77-0.15-2.655-0.15-2.58 0-3.66 0.855-3.66 2.655v0.66h-2.325v2.145h2.325v6.69h2.58v-6.69h3.735v-2.145h-3.735c0.045-1.11 0.42-1.425 1.89-1.425zm2.818-1.74v2.235h2.565v-2.235h-2.565zm0 3.165v8.835h2.565v-8.835h-2.565zm10.948-0.15c-1.65 0-3.21 0.465-4.53 1.65v-1.5h-2.565v8.835h2.565v-5.295c1.56-1.215 3.21-1.545 4.65-1.545 0.75 0 1.425 0.09 2.265 0.3v-2.145c-0.6-0.15-1.335-0.3-2.385-0.3zm2.789 5.88c0 2.82 3.15 3.255 6.555 3.255s5.655-0.435 5.655-2.925c0-2.355-2.355-2.445-5.805-2.7-3.045-0.225-3.51-0.315-3.51-0.87 0-0.51 0.69-0.69 3.12-0.69 2.385 0 3.315 0.18 3.315 0.915h2.58c0-2.43-2.415-2.865-5.745-2.865-3.15 0-5.85 0.435-5.85 2.745 0 2.13 1.905 2.43 5.79 2.655 3.105 0.195 3.525 0.24 3.525 0.915 0 0.69-0.45 0.87-3.225 0.87-2.865 0-3.84-0.36-3.84-1.305h-2.565zm21.556-3.585v-2.145h-4.185v-2.565l-2.58 0.735v1.83h-2.325v2.145h2.325v4.035c0 1.95 1.47 2.805 3.75 2.805 1.185 0 2.16-0.075 3.015-0.225v-2.07c-1.035 0.15-1.485 0.15-2.295 0.15-1.56 0-1.89-0.435-1.89-2.145v-2.55h4.185zm15.433-0.39c-1.71 0-2.835 0.3-4.38 0.96l0.675-2.235h7.275v-2.145h-9.285l-1.35 5.46 2.22 0.435c1.8-0.72 2.835-0.93 3.87-0.93 2.055 0 2.595 0.69 2.595 1.68 0 1.065-0.72 1.74-2.955 1.74-2.31 0-3.555-0.345-3.555-1.53h-2.7c0 3.105 2.7 3.795 6.18 3.795 3.51 0 5.73-1.095 5.73-3.705 0-2.25-1.605-3.525-4.32-3.525z" fill="#2C2C2C"/>
<path d="m444.86 314.25h-3.645l-4.395 7.41-4.395-7.41h-3.645v10.5h2.7v-7.2l4.365 7.2h1.95l4.365-7.2v7.2h2.7v-10.5zm7.147 1.515c-1.845 0-3.615 0.33-5.415 0.915l0.915 1.875c1.815-0.54 3.225-0.645 4.38-0.645 1.2 0 3.36 0.135 3.36 1.815-1.155-0.39-2.55-0.63-4.065-0.63-2.805 0-5.325 0.72-5.325 3.015 0 1.995 1.545 2.79 4.02 2.79 2.085 0 3.81-0.48 5.37-1.245v1.095h2.58v-4.455c-0.03-3.345-2.13-4.53-5.82-4.53zm3.24 6.24c-1.32 0.57-3.24 1.005-4.635 1.005-1.335 0-2.19-0.075-2.19-1.005 0-0.9 1.155-1.23 3.075-1.23 1.635 0 2.85 0.255 3.75 0.54v0.69zm12.063-3.945v-2.145h-4.185v-2.565l-2.58 0.735v1.83h-2.325v2.145h2.325v4.035c0 1.95 1.47 2.805 3.75 2.805 1.185 0 2.16-0.075 3.015-0.225v-2.07c-1.035 0.15-1.485 0.15-2.295 0.15-1.56 0-1.89-0.435-1.89-2.145v-2.55h4.185zm0.637 2.28c0 3.24 2.46 4.56 6.12 4.56 3.3 0 5.625-1.08 6.045-3.675h-2.625c-0.345 1.14-1.56 1.53-3.42 1.53-2.205 0-3.555-0.585-3.555-2.415 0-1.845 1.35-2.43 3.555-2.43 1.86 0 3.075 0.39 3.42 1.53h2.625c-0.42-2.595-2.745-3.675-6.045-3.675-3.66 0-6.12 1.32-6.12 4.575zm20.853-4.575c-2.145 0-3.885 0.705-5.145 1.695v-4.71h-2.565v12h2.565v-4.95c0.795-0.93 2.655-1.815 4.38-1.815 2.115 0 2.745 0.975 2.745 2.85v3.915h2.58l0.03-4.89c-0.03-3.255-2.235-4.095-4.59-4.095zm11.455 7.05c-1.71 0-3.06-0.465-3.345-1.875h9.54c0-4.02-2.685-5.175-6.045-5.175-3.585 0-6.12 1.32-6.12 4.575 0 3.24 2.61 4.56 5.97 4.56 3.27 0 5.46-1.065 6.045-3.315h-2.55c-0.645 0.9-1.725 1.23-3.495 1.23zm0.135-5.1c1.62 0 2.88 0.345 3.315 1.59h-6.705c0.405-1.245 1.635-1.59 3.39-1.59zm6.639 3.93c0 2.82 3.15 3.255 6.555 3.255s5.655-0.435 5.655-2.925c0-2.355-2.355-2.445-5.805-2.7-3.045-0.225-3.51-0.315-3.51-0.87 0-0.51 0.69-0.69 3.12-0.69 2.385 0 3.315 0.18 3.315 0.915h2.58c0-2.43-2.415-2.865-5.745-2.865-3.15 0-5.85 0.435-5.85 2.745 0 2.13 1.905 2.43 5.79 2.655 3.105 0.195 3.525 0.24 3.525 0.915 0 0.69-0.45 0.87-3.225 0.87-2.865 0-3.84-0.36-3.84-1.305h-2.565zm26.203-5.88c-1.845 0-3.615 0.33-5.415 0.915l0.915 1.875c1.815-0.54 3.225-0.645 4.38-0.645 1.2 0 3.36 0.135 3.36 1.815-1.155-0.39-2.55-0.63-4.065-0.63-2.805 0-5.325 0.72-5.325 3.015 0 1.995 1.545 2.79 4.02 2.79 2.085 0 3.81-0.48 5.37-1.245v1.095h2.58v-4.455c-0.03-3.345-2.13-4.53-5.82-4.53zm3.24 6.24c-1.32 0.57-3.24 1.005-4.635 1.005-1.335 0-2.19-0.075-2.19-1.005 0-0.9 1.155-1.23 3.075-1.23 1.635 0 2.85 0.255 3.75 0.54v0.69zm3.783-9.255v12h2.565v-12h-2.565zm3.765 0v12h2.565v-12h-2.565zm17.653 4.92c-1.98 0-3.375 0.51-4.185 1.14 0.27-2.13 1.44-2.565 3.57-2.565 1.95 0 3.48 0.345 4.965 0.63v-2.145c-1.275-0.27-3.015-0.63-5.625-0.63-3.09 0-5.67 1.305-5.67 5.655 0 3.39 1.8 5.145 6.3 5.145 3.705 0 5.7-1.23 5.7-3.675 0-2.535-1.995-3.555-5.055-3.555zm-0.945 5.085c-2.385 0-3.3-0.66-3.3-1.755 0-1.11 0.99-1.74 3.3-1.74 2.565 0 3.3 0.645 3.3 1.74s-0.75 1.755-3.3 1.755z" fill="#2C2C2C"/>
<path d="m440.31 359.14c0.525-0.585 0.825-1.305 0.825-2.04 0-1.545-0.735-2.76-3.12-2.76h-9.24v10.5h9.6c2.385 0 3.42-1.29 3.42-3.06 0-1.215-0.585-2.085-1.485-2.64zm-8.835-2.85h5.565c0.735 0 1.395 0 1.395 1.08 0 1.095-0.66 1.095-1.38 1.095h-5.58v-2.175zm6.24 6.465h-6.24v-2.22h6.24c0.72 0 1.38 0 1.38 1.11s-0.66 1.11-1.38 1.11zm14.711-6.75v4.95c-0.795 0.93-2.655 1.815-4.38 1.815-2.115 0-2.745-0.975-2.745-2.85v-3.915h-2.58l-0.03 4.89c0.03 3.255 2.235 4.095 4.59 4.095 2.145 0 3.885-0.705 5.145-1.695v1.545h2.565v-8.835h-2.565zm10.866-0.15c-1.65 0-3.21 0.465-4.53 1.65v-1.5h-2.565v8.835h2.565v-5.295c1.56-1.215 3.21-1.545 4.65-1.545 0.75 0 1.425 0.09 2.265 0.3v-2.145c-0.6-0.15-1.335-0.3-2.385-0.3zm11.147 0c-2.145 0-3.885 0.705-5.145 1.695v-1.545h-2.565v8.835h2.565v-4.95c0.795-0.93 2.655-1.815 4.38-1.815 2.115 0 2.745 0.975 2.745 2.85v3.915h2.58l0.03-4.89c-0.03-3.255-2.235-4.095-4.59-4.095zm20.975-1.515h-8.25v10.5h2.7v-2.805h5.55c2.385 0 4.02-1.5 4.02-3.84s-1.635-3.855-4.02-3.855zm-0.75 5.43h-4.8v-3.165h4.8c0.81 0 2.07 0 2.07 1.59 0 1.575-1.26 1.575-2.07 1.575zm11.551 5.22c3.645 0 6.12-1.32 6.12-4.56 0-3.255-2.475-4.575-6.12-4.575-3.66 0-6.12 1.32-6.12 4.575 0 3.24 2.46 4.56 6.12 4.56zm0-2.145c-2.385 0-3.555-0.585-3.555-2.415 0-1.845 1.17-2.43 3.555-2.43 2.37 0 3.54 0.585 3.54 2.43 0 1.83-1.17 2.415-3.54 2.415zm12.979 2.145c3.645 0 6.12-1.32 6.12-4.56 0-3.255-2.475-4.575-6.12-4.575-3.66 0-6.12 1.32-6.12 4.575 0 3.24 2.46 4.56 6.12 4.56zm0-2.145c-2.385 0-3.555-0.585-3.555-2.415 0-1.845 1.17-2.43 3.555-2.43 2.37 0 3.54 0.585 3.54 2.43 0 1.83-1.17 2.415-3.54 2.415zm7.096-10.005v12h2.565v-12h-2.565z" fill="#2C2C2C"/>
<ellipse cx="396.13" cy="119.16" rx="12" ry="11.83" fill="#F5E207"/>
<ellipse cx="396.13" cy="159.25" rx="12" ry="11.83" fill="#AAD805"/>
<ellipse cx="396.13" cy="199.35" rx="12" ry="11.83" fill="#16B638"/>
<ellipse cx="396.13" cy="239.44" rx="12" ry="11.83" fill="#3FBBEC"/>
<ellipse cx="396.13" cy="279.53" rx="12" ry="11.83" fill="#8854D4"/>
<ellipse cx="396.13" cy="319.62" rx="12" ry="11.83" fill="#BF1D5F"/>
<ellipse cx="396.13" cy="359.72" rx="12" ry="11.83" fill="#D9D9D9"/>
<path d="m704.61 115.5c0-3.132-2.538-3.96-6.876-3.96-4.284 0-7.236 0.828-7.236 5.13h4.68c0-1.17 1.08-1.17 2.736-1.17 1.566 0 2.016 0.09 2.016 0.63 0 1.764-9.612 1.314-9.612 6.03v2.16h14.112v-3.96h-6.894c0.9-1.404 7.074-0.774 7.074-4.86zm6.398 4.158c4.122 0 5.508-2.214 5.508-4.968 0-2.736-1.386-4.95-5.508-4.95-4.104 0-5.49 2.214-5.49 4.95 0 2.754 1.386 4.968 5.49 4.968zm13.176-9.738h-4.5l-4.68 15.66h4.5l4.68-15.66zm-13.176 6.138c-0.882 0-1.17-0.126-1.17-1.368s0.288-1.35 1.17-1.35c0.9 0 1.188 0.108 1.188 1.35s-0.288 1.368-1.188 1.368zm17.154 9.702c4.122 0 5.508-2.214 5.508-4.968 0-2.736-1.386-4.95-5.508-4.95-4.104 0-5.49 2.214-5.49 4.95 0 2.754 1.386 4.968 5.49 4.968zm0-3.6c-0.882 0-1.17-0.126-1.17-1.368s0.288-1.35 1.17-1.35c0.9 0 1.188 0.108 1.188 1.35s-0.288 1.368-1.188 1.368z" fill="#2C2C2C"/>
<path d="m702.82 158.11c1.134-0.594 1.782-1.458 1.782-2.7 0-2.952-2.538-3.78-6.966-3.78-4.374 0-7.326 0.828-7.326 4.95h4.68c0-0.99 1.08-0.99 2.826-0.99 1.656 0 2.106 0 2.106 0.648 0 0.792-0.45 0.792-3.906 0.792v2.16c3.456 0 3.906 0 3.906 0.792 0 0.648-0.45 0.648-2.106 0.648-1.746 0-2.826 0-2.826-0.99h-4.68c0 4.122 2.952 4.95 7.326 4.95 4.428 0 6.966-0.828 6.966-3.78 0-1.242-0.648-2.106-1.782-2.7zm8.18 1.638c4.122 0 5.508-2.214 5.508-4.968 0-2.736-1.386-4.95-5.508-4.95-4.104 0-5.49 2.214-5.49 4.95 0 2.754 1.386 4.968 5.49 4.968zm13.176-9.738h-4.5l-4.68 15.66h4.5l4.68-15.66zm-13.176 6.138c-0.882 0-1.17-0.126-1.17-1.368s0.288-1.35 1.17-1.35c0.9 0 1.188 0.108 1.188 1.35s-0.288 1.368-1.188 1.368zm17.154 9.702c4.122 0 5.508-2.214 5.508-4.968 0-2.736-1.386-4.95-5.508-4.95-4.104 0-5.49 2.214-5.49 4.95 0 2.754 1.386 4.968 5.49 4.968zm0-3.6c-0.882 0-1.17-0.126-1.17-1.368s0.288-1.35 1.17-1.35c0.9 0 1.188 0.108 1.188 1.35s-0.288 1.368-1.188 1.368z" fill="#2C2C2C"/>
<path d="m699.42 196.31c-2.034 0-2.97 0.36-4.302 0.828l0.594-1.638h7.992v-3.6h-11.25l-1.62 6.552 3.582 0.594c1.44-0.558 2.484-0.792 3.636-0.792 1.44 0 1.872 0.432 1.872 1.224 0 0.828-0.45 1.242-2.106 1.242-1.746 0-2.826 0-2.826-0.9h-4.68c0 4.032 3.042 4.86 7.416 4.86 4.428 0 6.876-1.188 6.876-4.32 0-2.484-1.926-4.05-5.184-4.05zm11.582 3.528c4.122 0 5.508-2.214 5.508-4.968 0-2.736-1.386-4.95-5.508-4.95-4.104 0-5.49 2.214-5.49 4.95 0 2.754 1.386 4.968 5.49 4.968zm13.176-9.738h-4.5l-4.68 15.66h4.5l4.68-15.66zm-13.176 6.138c-0.882 0-1.17-0.126-1.17-1.368s0.288-1.35 1.17-1.35c0.9 0 1.188 0.108 1.188 1.35s-0.288 1.368-1.188 1.368zm17.154 9.702c4.122 0 5.508-2.214 5.508-4.968 0-2.736-1.386-4.95-5.508-4.95-4.104 0-5.49 2.214-5.49 4.95 0 2.754 1.386 4.968 5.49 4.968zm0-3.6c-0.882 0-1.17-0.126-1.17-1.368s0.288-1.35 1.17-1.35c0.9 0 1.188 0.108 1.188 1.35s-0.288 1.368-1.188 1.368z" fill="#2C2C2C"/>
<path d="m685.77 240.63v-8.64h-4.68c0 1.8-1.746 1.8-3.6 1.8v3.96c1.314 0 2.286 0 3.654-1.206l-0.036 4.086h-3.618v3.96h11.88v-3.96h-3.6zm11.348 4.14c4.986 0 7.38-2.124 7.38-6.498 0-4.356-2.394-6.462-7.38-6.462-5.004 0-7.38 2.088-7.38 6.462 0 4.392 2.376 6.498 7.38 6.498zm0-3.96c-2.214 0-2.7-1.188-2.7-2.538 0-1.332 0.468-2.502 2.7-2.502s2.7 1.188 2.7 2.502c0 1.332-0.486 2.538-2.7 2.538zm13.767-0.882c4.122 0 5.508-2.214 5.508-4.968 0-2.736-1.386-4.95-5.508-4.95-4.104 0-5.49 2.214-5.49 4.95 0 2.754 1.386 4.968 5.49 4.968zm13.176-9.738h-4.5l-4.68 15.66h4.5l4.68-15.66zm-13.176 6.138c-0.882 0-1.17-0.126-1.17-1.368s0.288-1.35 1.17-1.35c0.9 0 1.188 0.108 1.188 1.35s-0.288 1.368-1.188 1.368zm17.154 9.702c4.122 0 5.508-2.214 5.508-4.968 0-2.736-1.386-4.95-5.508-4.95-4.104 0-5.49 2.214-5.49 4.95 0 2.754 1.386 4.968 5.49 4.968zm0-3.6c-0.882 0-1.17-0.126-1.17-1.368s0.288-1.35 1.17-1.35c0.9 0 1.188 0.108 1.188 1.35s-0.288 1.368-1.188 1.368z" fill="#2C2C2C"/>
<path d="m689.61 275.87c0-3.132-2.538-3.96-6.876-3.96-4.284 0-7.236 0.828-7.236 5.13h4.68c0-1.17 1.08-1.17 2.736-1.17 1.566 0 2.016 0.09 2.016 0.63 0 1.764-9.612 1.314-9.612 6.03v2.16h14.112v-3.96h-6.894c0.9-1.404 7.074-0.774 7.074-4.86zm7.748 9c4.986 0 7.38-2.124 7.38-6.498 0-4.356-2.394-6.462-7.38-6.462-5.004 0-7.38 2.088-7.38 6.462 0 4.392 2.376 6.498 7.38 6.498zm0-3.96c-2.214 0-2.7-1.188-2.7-2.538 0-1.332 0.468-2.502 2.7-2.502s2.7 1.188 2.7 2.502c0 1.332-0.486 2.538-2.7 2.538zm13.768-0.882c4.122 0 5.508-2.214 5.508-4.968 0-2.736-1.386-4.95-5.508-4.95-4.104 0-5.49 2.214-5.49 4.95 0 2.754 1.386 4.968 5.49 4.968zm13.176-9.738h-4.5l-4.68 15.66h4.5l4.68-15.66zm-13.176 6.138c-0.882 0-1.17-0.126-1.17-1.368s0.288-1.35 1.17-1.35c0.9 0 1.188 0.108 1.188 1.35s-0.288 1.368-1.188 1.368zm17.154 9.702c4.122 0 5.508-2.214 5.508-4.968 0-2.736-1.386-4.95-5.508-4.95-4.104 0-5.49 2.214-5.49 4.95 0 2.754 1.386 4.968 5.49 4.968zm0-3.6c-0.882 0-1.17-0.126-1.17-1.368s0.288-1.35 1.17-1.35c0.9 0 1.188 0.108 1.188 1.35s-0.288 1.368-1.188 1.368z" fill="#2C2C2C"/>
<path d="m689.15 319.38h-1.8v-7.2h-4.68l-8.172 7.2v3.96h8.172v1.44h4.68v-1.44h1.8v-3.96zm-10.332 0 3.852-3.24v3.24h-3.852zm18.244 5.58c4.986 0 7.38-2.124 7.38-6.498 0-4.356-2.394-6.462-7.38-6.462-5.004 0-7.38 2.088-7.38 6.462 0 4.392 2.376 6.498 7.38 6.498zm0-3.96c-2.214 0-2.7-1.188-2.7-2.538 0-1.332 0.468-2.502 2.7-2.502s2.7 1.188 2.7 2.502c0 1.332-0.486 2.538-2.7 2.538zm13.767-0.882c4.122 0 5.508-2.214 5.508-4.968 0-2.736-1.386-4.95-5.508-4.95-4.104 0-5.49 2.214-5.49 4.95 0 2.754 1.386 4.968 5.49 4.968zm13.176-9.738h-4.5l-4.68 15.66h4.5l4.68-15.66zm-13.176 6.138c-0.882 0-1.17-0.126-1.17-1.368s0.288-1.35 1.17-1.35c0.9 0 1.188 0.108 1.188 1.35s-0.288 1.368-1.188 1.368zm17.154 9.702c4.122 0 5.508-2.214 5.508-4.968 0-2.736-1.386-4.95-5.508-4.95-4.104 0-5.49 2.214-5.49 4.95 0 2.754 1.386 4.968 5.49 4.968zm0-3.6c-0.882 0-1.17-0.126-1.17-1.368s0.288-1.35 1.17-1.35c0.9 0 1.188 0.108 1.188 1.35s-0.288 1.368-1.188 1.368z" fill="#2C2C2C"/>
<path d="m689.61 356.05c0-3.132-2.538-3.96-6.876-3.96-4.284 0-7.236 0.828-7.236 5.13h4.68c0-1.17 1.08-1.17 2.736-1.17 1.566 0 2.016 0.09 2.016 0.63 0 1.764-9.612 1.314-9.612 6.03v2.16h14.112v-3.96h-6.894c0.9-1.404 7.074-0.774 7.074-4.86zm7.748 9c4.986 0 7.38-2.124 7.38-6.498 0-4.356-2.394-6.462-7.38-6.462-5.004 0-7.38 2.088-7.38 6.462 0 4.392 2.376 6.498 7.38 6.498zm0-3.96c-2.214 0-2.7-1.188-2.7-2.538 0-1.332 0.468-2.502 2.7-2.502s2.7 1.188 2.7 2.502c0 1.332-0.486 2.538-2.7 2.538zm13.768-0.882c4.122 0 5.508-2.214 5.508-4.968 0-2.736-1.386-4.95-5.508-4.95-4.104 0-5.49 2.214-5.49 4.95 0 2.754 1.386 4.968 5.49 4.968zm13.176-9.738h-4.5l-4.68 15.66h4.5l4.68-15.66zm-13.176 6.138c-0.882 0-1.17-0.126-1.17-1.368s0.288-1.35 1.17-1.35c0.9 0 1.188 0.108 1.188 1.35s-0.288 1.368-1.188 1.368zm17.154 9.702c4.122 0 5.508-2.214 5.508-4.968 0-2.736-1.386-4.95-5.508-4.95-4.104 0-5.49 2.214-5.49 4.95 0 2.754 1.386 4.968 5.49 4.968zm0-3.6c-0.882 0-1.17-0.126-1.17-1.368s0.288-1.35 1.17-1.35c0.9 0 1.188 0.108 1.188 1.35s-0.288 1.368-1.188 1.368z" fill="#2C2C2C"/>
<path d="m610.99 61.545h-11v14h3.6v-3.74h7.4c3.18 0 5.36-2 5.36-5.12s-2.18-5.14-5.36-5.14zm-1 7.24h-6.4v-4.22h6.4c1.08 0 2.76 0 2.76 2.12 0 2.1-1.68 2.1-2.76 2.1zm17.331-5.22c-2.2 0-4.28 0.62-6.04 2.2v-2h-3.42v11.78h3.42v-7.06c2.08-1.62 4.28-2.06 6.2-2.06 1 0 1.9 0.12 3.02 0.4v-2.86c-0.8-0.2-1.78-0.4-3.18-0.4zm4.583-4.02v2.98h3.42v-2.98h-3.42zm0 4.22v11.78h3.42v-11.78h-3.42zm18.705 0h-13.88v2.86h8.82l-8.82 6.06v2.86h13.88v-2.86h-8.82l8.82-6.06v-2.86zm8.821 9.2c-2.28 0-4.08-0.62-4.46-2.5h12.72c0-5.36-3.58-6.9-8.06-6.9-4.78 0-8.16 1.76-8.16 6.1 0 4.32 3.48 6.08 7.96 6.08 4.36 0 7.28-1.42 8.06-4.42h-3.4c-0.86 1.2-2.3 1.64-4.66 1.64zm0.18-6.8c2.16 0 3.84 0.46 4.42 2.12h-8.94c0.54-1.66 2.18-2.12 4.52-2.12zm29.74-4.62h-11v14h3.6v-3.74h7.4c3.18 0 5.36-2 5.36-5.12s-2.18-5.14-5.36-5.14zm-1 7.24h-6.4v-4.22h6.4c1.08 0 2.76 0 2.76 2.12 0 2.1-1.68 2.1-2.76 2.1zm15.401 6.96c4.86 0 8.16-1.76 8.16-6.08 0-4.34-3.3-6.1-8.16-6.1-4.88 0-8.16 1.76-8.16 6.1 0 4.32 3.28 6.08 8.16 6.08zm0-2.86c-3.18 0-4.74-0.78-4.74-3.22 0-2.46 1.56-3.24 4.74-3.24 3.16 0 4.72 0.78 4.72 3.24 0 2.44-1.56 3.22-4.72 3.22zm17.305 2.86c4.86 0 8.16-1.76 8.16-6.08 0-4.34-3.3-6.1-8.16-6.1-4.88 0-8.16 1.76-8.16 6.1 0 4.32 3.28 6.08 8.16 6.08zm0-2.86c-3.18 0-4.74-0.78-4.74-3.22 0-2.46 1.56-3.24 4.74-3.24 3.16 0 4.72 0.78 4.72 3.24 0 2.44-1.56 3.22-4.72 3.22zm9.462-13.34v16h3.42v-16h-3.42z" fill="#2C2C2C"/>
<g clip-path="url(#z)">
<path d="m212.93 58.553 0.188 53.191-15.888 91.198v-86.582l15.7-57.807z" fill="url(#x)"/>
<path d="m193.38 202.68c0.423 0.023 0.87 0.046 1.293 0.07 0.211 0.023 0.423 0.023 0.634 0.023 0.635 0.047 1.27 0.094 1.928 0.141v-86.559c-0.635-0.047-1.27-0.093-1.928-0.14-0.211-0.024-0.423-0.024-0.634-0.024-0.423-0.023-0.87-0.047-1.293-0.07h-0.07c-0.4-0.023-0.799-0.023-1.199-0.047-0.211 0-0.423-0.023-0.634-0.023-0.635-0.024-1.27-0.024-1.904-0.024v86.559c0.634 0 1.269 0 1.904 0.023 0.211 0 0.423 0.024 0.634 0.024 0.447 0.023 0.846 0.023 1.269 0.047z" fill="url(#m)"/>
<path d="m189.59 116.03v-58.487c8.532 0 14.877 0.2812 23.338 1.0076l-15.699 57.807c-2.515-0.211-5.053-0.328-7.639-0.328z" fill="url(#h)"/>
<path d="m189.99 116.08c3.031-0.633 6.58 0.047 6.533 0.234l7.78-26.642-7.122 26.549v21.393l-0.752-20.737c-1.715-0.656-4.348-0.914-6.439-0.797z" fill="#fff"/>
<path d="m148.98 225.32c0.047-0.094 0.071-0.164 0.118-0.258 0.07-0.164 0.164-0.351 0.235-0.515 0.023-0.071 0.07-0.141 0.094-0.211 0.117-0.235 0.235-0.492 0.352-0.727 0-0.023 0.024-0.023 0.024-0.047 0.164-0.304 0.329-0.609 0.493-0.937 0.024-0.047 0.047-0.094 0.094-0.14 0.165-0.305 0.353-0.61 0.517-0.891 0.024-0.047 0.071-0.117 0.118-0.164 0.188-0.304 0.376-0.586 0.564-0.89 0.024-0.047 0.047-0.071 0.071-0.117 0.188-0.282 0.376-0.563 0.587-0.844 0.024-0.023 0.047-0.07 0.071-0.094 0.211-0.281 0.423-0.562 0.634-0.843 0.047-0.047 0.071-0.117 0.118-0.164 0.211-0.281 0.423-0.563 0.658-0.82 0.047-0.047 0.07-0.094 0.117-0.141 0.235-0.281 0.47-0.562 0.705-0.82 0 0 0-0.024 0.024-0.024 0.235-0.281 0.493-0.539 0.728-0.82 0.047-0.047 0.094-0.093 0.118-0.14 0.258-0.258 0.493-0.539 0.752-0.797l0.141-0.141c0.259-0.257 0.517-0.515 0.799-0.773 0.047-0.023 0.071-0.07 0.118-0.094 0.282-0.257 0.564-0.515 0.846-0.773l0.023-0.023c0.282-0.258 0.588-0.516 0.893-0.75 0.047-0.047 0.094-0.07 0.141-0.117 0.282-0.235 0.588-0.469 0.893-0.703 0.047-0.047 0.118-0.094 0.165-0.117 0.305-0.235 0.611-0.446 0.916-0.656 0.047-0.024 0.094-0.071 0.141-0.094 0.33-0.235 0.659-0.445 0.988-0.68 0 0 0.023 0 0.023-0.023l0.987-0.633c0.047-0.023 0.094-0.07 0.165-0.094 0.094-0.07 0.188-0.117 0.305-0.187 0.118-0.07 0.212-0.141 0.329-0.211 0.094-0.07 0.212-0.117 0.306-0.187 0.117-0.071 0.235-0.141 0.329-0.188s0.211-0.117 0.305-0.164c0.118-0.07 0.235-0.117 0.353-0.187 0.094-0.047 0.211-0.117 0.305-0.164 0.118-0.071 0.235-0.118 0.353-0.188 0.094-0.047 0.211-0.117 0.329-0.164 0.118-0.07 0.235-0.117 0.353-0.187 0.117-0.047 0.211-0.094 0.329-0.164 0.117-0.047 0.235-0.117 0.352-0.164 0.118-0.047 0.212-0.094 0.329-0.164 0.118-0.047 0.235-0.118 0.353-0.164 0.117-0.047 0.211-0.094 0.329-0.141 0.117-0.047 0.235-0.117 0.352-0.164 0.118-0.047 0.235-0.094 0.329-0.141 0.118-0.046 0.235-0.093 0.353-0.14 0.117-0.047 0.235-0.094 0.329-0.141 0.117-0.047 0.235-0.094 0.376-0.14 0.117-0.047 0.235-0.094 0.352-0.141 0.118-0.047 0.235-0.094 0.376-0.141 0.118-0.046 0.235-0.093 0.353-0.117 0.118-0.047 0.259-0.093 0.376-0.14 0.118-0.047 0.235-0.071 0.353-0.118 0.117-0.046 0.258-0.093 0.376-0.117 0.117-0.047 0.235-0.07 0.352-0.117 0.118-0.047 0.259-0.07 0.376-0.117 0.118-0.047 0.235-0.07 0.353-0.117 0.117-0.047 0.258-0.07 0.376-0.117 0.117-0.024 0.235-0.071 0.352-0.094 0.118-0.047 0.259-0.07 0.4-0.117 0.117-0.024 0.235-0.07 0.352-0.094 0.141-0.023 0.259-0.07 0.4-0.094 0.117-0.023 0.235-0.07 0.352-0.093 0.141-0.024 0.259-0.071 0.4-0.094 0.118-0.024 0.235-0.047 0.376-0.094 0.141-0.023 0.259-0.07 0.4-0.094 0.117-0.023 0.235-0.046 0.376-0.07 0.141-0.023 0.282-0.047 0.399-0.094 0.118-0.023 0.235-0.046 0.376-0.07 0.141-0.023 0.282-0.047 0.4-0.07 0.117-0.024 0.258-0.047 0.376-0.07 0.141-0.024 0.282-0.047 0.423-0.071 0.117-0.023 0.235-0.047 0.376-0.07 0.141-0.024 0.282-0.047 0.423-0.07 0.117-0.024 0.235-0.047 0.376-0.047 0.141-0.024 0.282-0.047 0.423-0.047 0.117-0.024 0.235-0.024 0.376-0.047s0.282-0.023 0.423-0.047c0.118-0.023 0.259-0.023 0.376-0.047 0.141-0.023 0.282-0.023 0.447-0.047 0.117-0.023 0.258-0.023 0.376-0.023 0.141-0.023 0.305-0.023 0.446-0.047 0.118 0 0.235-0.023 0.376-0.023 0.165 0 0.306-0.024 0.47-0.024 0.118 0 0.235-0.023 0.353-0.023 0.164 0 0.329-0.024 0.493-0.024 0.118 0 0.212 0 0.329-0.023 0.188 0 0.376 0 0.564-0.023h0.259 0.823l-0.235-51.856h-0.823-0.259c-0.188 0-0.376 0-0.564 0.023-0.117 0-0.211 0-0.329 0.024-0.164 0-0.329 0.023-0.493 0.023-0.118 0-0.235 0.024-0.353 0.024-0.164 0-0.305 0.023-0.47 0.023-0.117 0-0.235 0.024-0.376 0.024s-0.305 0.023-0.446 0.046c-0.118 0-0.259 0.024-0.376 0.024-0.141 0.023-0.282 0.023-0.447 0.047-0.117 0.023-0.258 0.023-0.376 0.047-0.141 0.023-0.282 0.023-0.423 0.047-0.118 0.023-0.235 0.023-0.376 0.046-0.141 0.024-0.282 0.047-0.423 0.047-0.118 0.024-0.235 0.047-0.376 0.047-0.141 0.024-0.282 0.047-0.423 0.07-0.118 0.024-0.259 0.047-0.376 0.071-0.141 0.023-0.282 0.047-0.423 0.07-0.118 0.023-0.259 0.047-0.376 0.07-0.141 0.024-0.282 0.047-0.4 0.071-0.117 0.023-0.235 0.046-0.376 0.07-0.141 0.023-0.282 0.047-0.399 0.094-0.118 0.023-0.235 0.046-0.376 0.07-0.141 0.023-0.259 0.07-0.4 0.094-0.118 0.023-0.235 0.047-0.376 0.093-0.141 0.024-0.259 0.071-0.4 0.094-0.117 0.024-0.235 0.07-0.352 0.094-0.141 0.023-0.259 0.07-0.4 0.094-0.117 0.023-0.235 0.07-0.352 0.093-0.141 0.047-0.259 0.071-0.4 0.117-0.117 0.024-0.235 0.071-0.352 0.094-0.118 0.047-0.259 0.07-0.376 0.117-0.118 0.047-0.235 0.071-0.353 0.118-0.117 0.046-0.258 0.07-0.376 0.117-0.117 0.047-0.235 0.07-0.352 0.117-0.118 0.047-0.259 0.094-0.376 0.117-0.118 0.047-0.235 0.07-0.353 0.117-0.117 0.047-0.259 0.094-0.376 0.141-0.118 0.047-0.235 0.093-0.353 0.117-0.117 0.047-0.258 0.094-0.376 0.141-0.117 0.046-0.235 0.093-0.352 0.14-0.118 0.047-0.235 0.094-0.376 0.141-0.118 0.047-0.235 0.093-0.329 0.14-0.118 0.047-0.235 0.094-0.353 0.141-0.117 0.047-0.235 0.094-0.329 0.14-0.117 0.047-0.235 0.094-0.352 0.164-0.118 0.047-0.212 0.094-0.329 0.141-0.118 0.047-0.235 0.117-0.353 0.164-0.117 0.047-0.211 0.094-0.329 0.164-0.117 0.047-0.235 0.117-0.352 0.164-0.118 0.047-0.212 0.094-0.329 0.164-0.118 0.047-0.236 0.117-0.353 0.188-0.118 0.047-0.212 0.117-0.329 0.164-0.118 0.07-0.235 0.117-0.353 0.187-0.094 0.047-0.211 0.117-0.305 0.164-0.118 0.07-0.235 0.117-0.353 0.188-0.094 0.046-0.211 0.117-0.305 0.164-0.118 0.07-0.235 0.117-0.329 0.187s-0.212 0.117-0.306 0.188c-0.117 0.07-0.211 0.14-0.329 0.21-0.094 0.071-0.188 0.118-0.305 0.188-0.024 0.023-0.047 0.023-0.071 0.047-0.023 0.023-0.047 0.047-0.094 0.047-0.329 0.211-0.658 0.421-0.987 0.632 0 0-0.023 0-0.023 0.024-0.329 0.211-0.658 0.445-0.988 0.679-0.047 0.024-0.094 0.071-0.141 0.094-0.305 0.211-0.611 0.445-0.916 0.656-0.047 0.047-0.118 0.094-0.165 0.117-0.305 0.235-0.587 0.469-0.893 0.703-0.047 0.047-0.094 0.071-0.141 0.117-0.305 0.258-0.587 0.492-0.893 0.75l-0.023 0.024c-0.282 0.257-0.564 0.515-0.846 0.773-0.047 0.023-0.071 0.07-0.118 0.094-0.282 0.257-0.541 0.515-0.799 0.773-0.047 0.047-0.094 0.094-0.141 0.14-0.259 0.258-0.517 0.516-0.752 0.797l-0.047 0.047c-0.024 0.023-0.047 0.047-0.071 0.094-0.258 0.258-0.493 0.539-0.728 0.82 0 0 0 0.023-0.024 0.023-0.235 0.282-0.47 0.539-0.705 0.82-0.047 0.047-0.07 0.094-0.117 0.141-0.212 0.281-0.447 0.539-0.658 0.82-0.047 0.047-0.094 0.117-0.118 0.164-0.211 0.281-0.423 0.563-0.634 0.844-0.024 0.023-0.047 0.07-0.071 0.094-0.188 0.281-0.399 0.562-0.588 0.843-0.023 0.047-0.047 0.07-0.07 0.117-0.188 0.305-0.376 0.586-0.564 0.891-0.047 0.047-0.071 0.117-0.118 0.164-0.188 0.304-0.352 0.585-0.517 0.89-0.023 0.047-0.047 0.094-0.094 0.141-0.164 0.304-0.329 0.609-0.493 0.937 0 0 0 0.023-0.024 0.023-0.117 0.235-0.235 0.469-0.352 0.727-0.024 0.07-0.071 0.14-0.094 0.211-0.071 0.164-0.165 0.351-0.235 0.515-0.047 0.094-0.071 0.164-0.118 0.258-0.07 0.164-0.141 0.351-0.211 0.515-0.024 0.071-0.071 0.165-0.094 0.235-0.094 0.258-0.188 0.492-0.282 0.75l0.235 51.855c0.094-0.258 0.188-0.492 0.282-0.75 0.023-0.07 0.07-0.164 0.094-0.234 0.07-0.164 0.141-0.328 0.211-0.492z" fill="url(#g)"/>
<path d="m148.14 174.94 0.235 51.855-79.508-22.307-0.2351-51.856 79.509 22.308z" fill="url(#f)"/>
<path d="m68.627 152.63c16.922-44.943 63.104-73.905 117.84-73.905v72.242c-17.932 0-33.091 10.052-38.332 23.971l-79.509-22.308z" fill="url(#e)"/>
<path d="m100.66 161.7 47.334 11.834s9.448-23.034 37.58-23.432l0.893-39.671v40.397l0.235 26.221-1.175-25.963s-25.312-0.938-37.016 23.338l0.259 18.418-1.387-18.418-46.723-12.724z" fill="#fff"/>
<path d="m234.44 76.15v77.983l-24.631 51.457v-77.982l24.631-51.458z" fill="url(#d)"/>
<path d="m205.93 204.89c0.07 0.023 0.164 0.023 0.235 0.023 0.188 0.024 0.352 0.047 0.54 0.094 0.141 0.024 0.259 0.047 0.4 0.07 0.188 0.024 0.376 0.071 0.564 0.094 0.117 0.024 0.235 0.047 0.352 0.07 0.212 0.047 0.4 0.071 0.611 0.118 0.094 0.023 0.212 0.046 0.306 0.07 0.305 0.07 0.611 0.117 0.893 0.187v-78.005c-0.306-0.071-0.588-0.141-0.893-0.188-0.094-0.023-0.212-0.047-0.306-0.07-0.211-0.047-0.399-0.071-0.611-0.117-0.117-0.024-0.235-0.047-0.352-0.071-0.188-0.023-0.376-0.07-0.564-0.093-0.118-0.024-0.259-0.047-0.4-0.071-0.188-0.023-0.352-0.047-0.54-0.093-0.047 0-0.071-0.024-0.118-0.024s-0.094 0-0.117-0.023c-0.494-0.071-1.011-0.141-1.528-0.188-0.047 0-0.094 0-0.141-0.023-0.541-0.07-1.081-0.117-1.622-0.164v77.982c0.541 0.047 1.081 0.094 1.622 0.164 0.047 0 0.094 0 0.141 0.024 0.517 0.093 1.01 0.164 1.528 0.234z" fill="url(#c)"/>
<path d="m202.64 126.53 10.177-53.707c7.755 0.6561 14.172 1.6871 21.622 3.3274l-24.631 51.458c-2.279-0.493-4.677-0.867-7.168-1.078z" fill="url(#b)"/>
<path d="m203.58 126.62s0.94-0.468 6.44 0.469l14.877-31.141-14.29 32.008-0.775 53.519-0.118-53.144c0-0.047-3.737-1.523-6.134-1.711z" fill="#fff"/>
<path d="m272.63 93.959v71.843l-47.169 45.763v-71.82l47.169-45.786z" fill="url(#a)"/>
<path d="m217.33 208.38c0.141 0.046 0.306 0.093 0.447 0.14 0.305 0.094 0.611 0.188 0.916 0.281 0.118 0.047 0.259 0.071 0.376 0.118 0.423 0.14 0.846 0.281 1.246 0.421 0.047 0.024 0.094 0.047 0.141 0.047 0.352 0.141 0.705 0.258 1.081 0.398 0.141 0.047 0.258 0.118 0.399 0.165 0.283 0.117 0.541 0.234 0.823 0.328 0.141 0.07 0.282 0.117 0.423 0.187 0.282 0.117 0.541 0.234 0.799 0.375 0.118 0.047 0.235 0.117 0.353 0.164 0.376 0.187 0.752 0.375 1.128 0.562v-71.819c-0.376-0.188-0.752-0.375-1.128-0.563-0.118-0.047-0.235-0.117-0.353-0.164-0.258-0.117-0.54-0.258-0.799-0.375-0.141-0.07-0.282-0.117-0.423-0.187-0.258-0.117-0.54-0.235-0.823-0.328-0.141-0.047-0.258-0.117-0.399-0.164-0.353-0.141-0.705-0.281-1.081-0.399-0.047-0.023-0.094-0.046-0.141-0.046-0.4-0.141-0.823-0.282-1.246-0.422-0.117-0.047-0.258-0.071-0.376-0.117-0.305-0.094-0.611-0.188-0.916-0.282-0.141-0.046-0.306-0.093-0.447-0.14-0.117-0.047-0.259-0.07-0.376-0.117-0.165-0.047-0.353-0.094-0.517-0.141-0.141-0.047-0.259-0.07-0.4-0.094-0.423-0.117-0.869-0.211-1.316-0.328v71.843c0.447 0.094 0.87 0.211 1.316 0.329 0.141 0.023 0.259 0.07 0.4 0.093 0.282 0.071 0.588 0.141 0.893 0.235z" fill="url(#w)"/>
<path d="m214.72 135.86 24.795-53.801c12.48 2.8588 22.492 6.4673 33.115 11.904l-47.169 45.787c-3.243-1.664-6.863-3-10.741-3.89z" fill="url(#v)"/>
<path d="m215.28 136s3.244-0.351 9.942 3.656l29.942-28.728-29.707 29.759v37.585l-1.222-37.609c-0.024-0.047-0.776-1.406-8.955-4.663z" fill="#fff"/>
<path d="m320.81 153.57v60.479l-74.809 17.129v-60.479l74.809-17.129z" fill="url(#u)"/>
<path d="m274.63 108.74c22.727 11.645 37.51 25.986 46.182 44.825l-74.808 17.129c-2.655-7.217-8.649-13.497-16.733-17.949l45.359-44.005z" fill="url(#t)"/>
<path d="m246 170.7v60.502c-2.655-7.217-8.649-13.497-16.733-17.949v-60.525c8.108 4.475 14.078 10.755 16.733 17.972z" fill="url(#s)"/>
<path d="m246 170.7v60.479c-2.655-7.217-8.649-13.497-16.733-17.949v-60.502c8.108 4.475 14.078 10.755 16.733 17.972z" fill="url(#r)"/>
<path d="m233.45 155.33s6.863 3.819 12.574 14.036l62.634-13.005-62.423 14.387-0.211 38.851-0.846-38.804c-0.024 0-4.536-10.357-11.728-15.465z" fill="#fff"/>
<path d="m248.23 203.67v68.937c0-2.929-0.54-5.764-1.527-8.482v-68.938c0.987 2.718 1.527 5.554 1.527 8.483z" fill="#643BB4"/>
<path d="m248.23 203.67v68.937c0-2.929-0.54-5.764-1.527-8.482v-68.938c0.987 2.718 1.527 5.554 1.527 8.483z" fill="#643BB4"/>
<path d="m275.31 278.28v68.937l-48.157-46.747v-68.914l48.157 46.724z" fill="#643BB4"/>
<path d="m328 206.55c0 0.492 0 1.007-0.023 1.499 0 0.164 0 0.328-0.024 0.493 0 0.328-0.023 0.632-0.047 0.96 0 0.188-0.023 0.352-0.023 0.539-0.024 0.305-0.047 0.633-0.071 0.937-0.023 0.188-0.023 0.352-0.047 0.539-0.023 0.328-0.047 0.68-0.094 1.008-0.023 0.141-0.023 0.281-0.047 0.422-0.047 0.468-0.094 0.96-0.164 1.429 0 0.07-0.024 0.141-0.024 0.188-0.047 0.421-0.117 0.82-0.164 1.242-0.024 0.164-0.047 0.328-0.071 0.492-0.047 0.328-0.094 0.632-0.164 0.96-0.024 0.188-0.071 0.352-0.094 0.539-0.047 0.305-0.118 0.609-0.165 0.914-0.023 0.164-0.07 0.352-0.094 0.516-0.07 0.328-0.141 0.656-0.211 0.984-0.024 0.14-0.071 0.281-0.094 0.422-0.118 0.515-0.236 1.031-0.377 1.523-0.023 0.117-0.07 0.234-0.094 0.351-0.094 0.398-0.211 0.797-0.329 1.195-0.047 0.164-0.094 0.305-0.141 0.469-0.117 0.422-0.258 0.843-0.376 1.242-0.023 0.093-0.07 0.187-0.094 0.304-0.164 0.516-0.329 1.008-0.493 1.5-0.047 0.141-0.094 0.258-0.141 0.398-0.141 0.375-0.282 0.774-0.423 1.149-0.047 0.14-0.118 0.304-0.165 0.445-0.164 0.422-0.329 0.867-0.517 1.288-0.023 0.071-0.047 0.141-0.094 0.211-0.211 0.492-0.423 0.985-0.634 1.477-0.071 0.14-0.118 0.281-0.188 0.398-0.165 0.375-0.329 0.75-0.517 1.125-0.071 0.164-0.141 0.328-0.235 0.492-0.094 0.187-0.189 0.398-0.283 0.586-0.094 0.21-0.211 0.421-0.305 0.609-0.094 0.187-0.188 0.398-0.282 0.586-0.094 0.211-0.212 0.421-0.329 0.609-0.094 0.187-0.212 0.375-0.306 0.586-0.117 0.211-0.211 0.398-0.329 0.609-0.094 0.187-0.211 0.375-0.329 0.586-0.117 0.211-0.235 0.398-0.352 0.609-0.118 0.187-0.212 0.375-0.329 0.562-0.118 0.211-0.235 0.399-0.353 0.61-0.117 0.187-0.235 0.374-0.352 0.562-0.118 0.211-0.235 0.398-0.376 0.609-0.118 0.188-0.235 0.375-0.353 0.563-0.117 0.21-0.258 0.398-0.376 0.609-0.117 0.187-0.235 0.375-0.376 0.562-0.141 0.188-0.259 0.399-0.4 0.586-0.117 0.187-0.258 0.375-0.376 0.562-0.141 0.188-0.282 0.399-0.399 0.586-0.118 0.188-0.259 0.375-0.4 0.563-0.141 0.187-0.282 0.398-0.423 0.585-0.141 0.188-0.258 0.375-0.399 0.563-0.141 0.187-0.282 0.398-0.423 0.586-0.141 0.187-0.282 0.374-0.423 0.538-0.141 0.188-0.306 0.375-0.447 0.586-0.141 0.188-0.282 0.375-0.423 0.539-0.141 0.188-0.305 0.375-0.47 0.586-0.141 0.187-0.282 0.351-0.447 0.539-0.164 0.187-0.305 0.375-0.47 0.562-0.141 0.188-0.305 0.352-0.446 0.539-0.165 0.188-0.329 0.375-0.494 0.563-0.141 0.187-0.305 0.351-0.446 0.539-0.212 0.234-0.4 0.468-0.611 0.703-0.094 0.093-0.188 0.21-0.282 0.304-0.306 0.328-0.611 0.68-0.917 1.008-0.047 0.047-0.094 0.093-0.117 0.14-0.282 0.282-0.541 0.586-0.823 0.867-0.117 0.117-0.212 0.235-0.329 0.328-0.212 0.235-0.423 0.446-0.658 0.68-0.118 0.117-0.235 0.258-0.376 0.375-0.212 0.211-0.423 0.422-0.635 0.633-0.117 0.117-0.235 0.234-0.376 0.351-0.235 0.234-0.47 0.469-0.705 0.68-0.094 0.093-0.211 0.187-0.305 0.304-0.353 0.328-0.682 0.656-1.034 0.961-0.047 0.047-0.094 0.07-0.118 0.117-0.305 0.281-0.611 0.562-0.94 0.844-0.118 0.117-0.235 0.21-0.353 0.328-0.235 0.211-0.493 0.421-0.728 0.632-0.141 0.117-0.282 0.235-0.4 0.352-0.235 0.211-0.47 0.398-0.705 0.609-0.141 0.117-0.282 0.234-0.399 0.352-0.259 0.21-0.517 0.445-0.776 0.656-0.117 0.093-0.235 0.187-0.352 0.281-0.376 0.304-0.752 0.609-1.152 0.914-0.024 0.023-0.071 0.047-0.118 0.093-0.352 0.282-0.705 0.563-1.057 0.844-0.141 0.094-0.259 0.211-0.4 0.305-0.258 0.21-0.54 0.398-0.799 0.609-0.141 0.117-0.305 0.234-0.446 0.328-0.259 0.187-0.517 0.398-0.776 0.586-0.141 0.117-0.305 0.211-0.446 0.328-0.282 0.211-0.564 0.398-0.847 0.609-0.117 0.094-0.258 0.187-0.376 0.281-0.423 0.305-0.822 0.586-1.245 0.867-0.024 0.024-0.047 0.047-0.094 0.07-0.4 0.282-0.799 0.539-1.199 0.797-0.141 0.094-0.282 0.188-0.423 0.281-0.282 0.188-0.587 0.399-0.869 0.586-0.165 0.094-0.329 0.211-0.494 0.305-0.282 0.187-0.564 0.375-0.846 0.539-0.165 0.093-0.329 0.211-0.494 0.304-0.305 0.188-0.611 0.375-0.916 0.563-0.141 0.093-0.282 0.164-0.423 0.257-0.447 0.282-0.893 0.539-1.363 0.821-0.024 0-0.024 0.023-0.047 0.023-0.447 0.258-0.894 0.515-1.34 0.773-0.141 0.094-0.306 0.164-0.447 0.258-0.329 0.187-0.634 0.375-0.963 0.539-0.165 0.094-0.353 0.187-0.517 0.305-0.306 0.164-0.611 0.328-0.917 0.515-0.188 0.094-0.352 0.188-0.54 0.281-0.329 0.188-0.658 0.352-0.987 0.539-0.165 0.094-0.306 0.164-0.471 0.258-0.493 0.258-0.963 0.515-1.457 0.75v68.937c0.494-0.257 0.987-0.515 1.457-0.773 0.165-0.07 0.306-0.164 0.471-0.234 0.329-0.188 0.658-0.352 0.987-0.539 0.188-0.094 0.352-0.188 0.54-0.281 0.306-0.164 0.611-0.328 0.917-0.516 0.164-0.094 0.352-0.187 0.517-0.281 0.329-0.187 0.634-0.352 0.963-0.539 0.141-0.094 0.306-0.164 0.447-0.258 0.446-0.257 0.893-0.515 1.34-0.773 0.023 0 0.023-0.023 0.047-0.023 0.446-0.282 0.916-0.539 1.363-0.821 0.141-0.093 0.282-0.164 0.423-0.257 0.305-0.188 0.611-0.375 0.916-0.563 0.165-0.093 0.329-0.211 0.494-0.304 0.282-0.188 0.564-0.375 0.846-0.539 0.165-0.094 0.329-0.211 0.494-0.305 0.305-0.187 0.587-0.375 0.869-0.586 0.141-0.093 0.282-0.187 0.423-0.281 0.4-0.258 0.799-0.539 1.199-0.82 0.023-0.023 0.047-0.047 0.07-0.047 0.423-0.281 0.846-0.586 1.246-0.867 0.141-0.094 0.258-0.187 0.376-0.281 0.282-0.211 0.564-0.398 0.846-0.609 0.141-0.117 0.306-0.211 0.447-0.328 0.258-0.188 0.517-0.375 0.775-0.586 0.141-0.117 0.306-0.211 0.447-0.328 0.282-0.211 0.54-0.399 0.799-0.609 0.141-0.094 0.258-0.188 0.399-0.305 0.353-0.281 0.705-0.562 1.058-0.82 0.047-0.024 0.07-0.047 0.117-0.094 0.377-0.305 0.776-0.609 1.152-0.914 0.118-0.093 0.235-0.187 0.353-0.281 0.258-0.211 0.517-0.422 0.775-0.656 0.141-0.117 0.282-0.234 0.4-0.352 0.235-0.21 0.47-0.398 0.705-0.609 0.141-0.117 0.282-0.234 0.399-0.351 0.235-0.211 0.494-0.422 0.729-0.633 0.117-0.117 0.235-0.211 0.352-0.328 0.306-0.281 0.635-0.562 0.941-0.844 0.047-0.046 0.094-0.07 0.117-0.117 0.353-0.328 0.682-0.656 1.034-0.96 0.094-0.094 0.212-0.211 0.306-0.305 0.235-0.234 0.47-0.445 0.705-0.68 0.117-0.117 0.235-0.234 0.376-0.351 0.211-0.211 0.423-0.422 0.634-0.633 0.118-0.117 0.235-0.257 0.376-0.375 0.212-0.21 0.423-0.445 0.658-0.679 0.118-0.117 0.212-0.234 0.33-0.328 0.282-0.281 0.54-0.586 0.822-0.867 0.047-0.047 0.094-0.094 0.118-0.141 0.305-0.328 0.611-0.679 0.916-1.007 0.094-0.094 0.188-0.211 0.282-0.305 0.165-0.187 0.306-0.351 0.47-0.539 0.047-0.047 0.094-0.117 0.141-0.164 0.165-0.187 0.306-0.351 0.447-0.539 0.164-0.187 0.329-0.375 0.493-0.562 0.141-0.188 0.306-0.352 0.447-0.539 0.164-0.188 0.305-0.375 0.47-0.586 0.141-0.187 0.282-0.351 0.423-0.539 0.165-0.187 0.306-0.375 0.47-0.586 0.141-0.187 0.282-0.351 0.423-0.539 0.141-0.187 0.306-0.398 0.447-0.586 0.141-0.187 0.282-0.374 0.423-0.538 0.141-0.188 0.282-0.399 0.423-0.586 0.141-0.188 0.258-0.375 0.399-0.563 0.141-0.187 0.282-0.398 0.423-0.585 0.141-0.188 0.259-0.375 0.376-0.563 0.141-0.187 0.282-0.398 0.4-0.586 0.117-0.187 0.258-0.375 0.376-0.562 0.141-0.187 0.258-0.398 0.399-0.586 0.118-0.187 0.236-0.375 0.377-0.562 0.117-0.211 0.258-0.399 0.376-0.609 0.117-0.188 0.235-0.375 0.352-0.563 0.118-0.211 0.259-0.398 0.376-0.609 0.118-0.187 0.235-0.375 0.353-0.562 0.117-0.211 0.235-0.399 0.352-0.61 0.118-0.187 0.212-0.375 0.329-0.562 0.118-0.211 0.235-0.398 0.353-0.609 0.117-0.188 0.211-0.375 0.329-0.586 0.117-0.211 0.211-0.398 0.329-0.609 0.094-0.188 0.211-0.375 0.305-0.586 0.118-0.211 0.212-0.422 0.329-0.609 0.094-0.188 0.188-0.399 0.282-0.586 0.094-0.211 0.212-0.422 0.306-0.609 0.094-0.188 0.188-0.399 0.282-0.586 0.047-0.07 0.071-0.164 0.118-0.235 0.047-0.093 0.07-0.164 0.117-0.257 0.165-0.375 0.353-0.75 0.517-1.125 0.071-0.141 0.118-0.281 0.188-0.398 0.212-0.492 0.423-0.984 0.635-1.477 0.023-0.07 0.047-0.14 0.094-0.21 0.164-0.422 0.352-0.867 0.517-1.289 0.047-0.141 0.117-0.305 0.164-0.445 0.141-0.375 0.282-0.774 0.423-1.149 0.047-0.14 0.094-0.257 0.141-0.398 0.165-0.492 0.353-1.008 0.494-1.5 0.023-0.093 0.07-0.187 0.094-0.304 0.141-0.422 0.258-0.82 0.376-1.242 0.047-0.164 0.094-0.305 0.141-0.469 0.117-0.398 0.211-0.797 0.329-1.195 0.023-0.117 0.07-0.234 0.094-0.351 0.141-0.516 0.258-1.031 0.376-1.523 0-0.024 0.023-0.071 0.023-0.094 0.024-0.117 0.047-0.234 0.071-0.328 0.071-0.328 0.141-0.656 0.212-0.984 0.047-0.164 0.07-0.352 0.094-0.516 0.07-0.305 0.117-0.609 0.164-0.914 0.024-0.187 0.071-0.351 0.094-0.539 0.047-0.328 0.118-0.632 0.165-0.96 0.023-0.164 0.047-0.328 0.07-0.492 0.071-0.422 0.118-0.821 0.165-1.242 0-0.071 0.023-0.141 0.023-0.188 0.071-0.468 0.118-0.961 0.165-1.429 0.023-0.141 0.023-0.281 0.047-0.422 0.023-0.328 0.07-0.68 0.094-1.008 0.023-0.187 0.023-0.351 0.047-0.539 0.023-0.304 0.047-0.632 0.07-0.937 0-0.187 0.024-0.351 0.024-0.539 0.023-0.328 0.023-0.632 0.047-0.96 0-0.118 0-0.235 0.023-0.352v-0.141c0.024-0.492 0.024-1.007 0.024-1.499v-68.961h0.07z" fill="url(#q)"/>
<path d="m246.68 195.19 74.808-17.129c17.368 37.656-0.729 76.952-46.182 100.22l-48.157-46.724c12.715-6.022 21.082-16.262 21.082-27.884 0-2.929-0.541-5.765-1.551-8.483z" fill="url(#p)"/>
<path d="m232.28 236.52 43.033 41.756s3.361-1.734 9.189-5.132c12.621-7.873 34.549-24.768 41.317-50.121 0 0-5.758 34.281-50.271 56.776l-0.235 38.593-0.893-38.546-42.14-43.326z" fill="#fff"/>
<path d="m152.13 218.43v46.232c-1.34 3.023-2.069 6.233-2.069 9.584v-46.232c0-3.351 0.729-6.561 2.069-9.584z" fill="url(#o)"/>
<path d="m152.13 218.43v46.232c-0.635 1.429-1.128 2.929-1.481 4.428v-46.231c0.353-1.5 0.846-3 1.481-4.429z" fill="url(#n)"/>
<path d="m150.65 222.86v46.231c-0.329 1.477-0.54 3-0.564 4.546v-46.232c0.024-1.546 0.235-3.046 0.564-4.545z" fill="url(#l)"/>
<path d="m150.09 227.41v46.231 0.61-46.232c-0.024-0.211-0.024-0.399 0-0.609z" fill="url(#k)"/>
<path d="m267.01 352.2c0.564-0.281 1.128-0.585 1.669-0.866v-46.232c-0.564 0.304-1.105 0.586-1.669 0.867-0.141 0.07-0.282 0.14-0.423 0.211-0.54 0.281-1.104 0.562-1.645 0.82-0.423 0.211-0.846 0.422-1.269 0.609-0.541 0.258-1.081 0.492-1.598 0.75-1.199 0.562-2.397 1.101-3.62 1.64-0.587 0.258-1.198 0.516-1.809 0.773-1.246 0.516-2.492 1.031-3.737 1.5-0.517 0.211-1.034 0.398-1.551 0.609-1.763 0.656-3.526 1.289-5.335 1.898-0.212 0.071-0.423 0.141-0.635 0.211-1.598 0.516-3.196 1.031-4.818 1.5-0.282 0.094-0.564 0.164-0.846 0.234-0.211 0.07-0.423 0.117-0.635 0.188-0.07 0.023-0.141 0.046-0.235 0.07-0.446 0.117-0.869 0.234-1.316 0.351-0.211 0.071-0.423 0.118-0.658 0.188-0.634 0.164-1.245 0.328-1.88 0.492s-1.269 0.328-1.904 0.469c-1.339 0.328-2.702 0.632-4.066 0.937-0.517 0.117-1.01 0.234-1.527 0.328-1.857 0.375-3.714 0.75-5.594 1.054-0.164 0.024-0.329 0.047-0.493 0.071-0.094 0.023-0.188 0.023-0.282 0.046-0.071 0-0.141 0.024-0.212 0.047-0.681 0.117-1.363 0.211-2.045 0.328-0.188 0.024-0.352 0.047-0.54 0.094-0.682 0.094-1.387 0.211-2.092 0.305-0.634 0.093-1.245 0.164-1.88 0.234-1.293 0.164-2.585 0.305-3.901 0.445-0.659 0.071-1.317 0.141-1.975 0.188-1.41 0.117-2.82 0.234-4.23 0.328-0.494 0.023-0.987 0.07-1.481 0.094-0.728 0.046-1.433 0.07-2.162 0.117-0.282 0.023-0.588 0.023-0.87 0.047-0.893 0.046-1.786 0.07-2.655 0.093-0.4 0-0.823 0-1.222 0.024-1.552 0.023-3.126 0.047-4.677 0.047-0.376 0-0.776 0-1.152-0.024-0.893-0.023-1.763-0.023-2.656-0.047-0.282 0-0.564-0.023-0.846-0.023-0.634-0.024-1.292-0.047-1.927-0.07-0.259 0-0.494-0.024-0.752-0.047-1.692-0.071-3.361-0.188-5.03-0.305-0.305-0.023-0.634-0.047-0.94-0.07-1.786-0.141-3.549-0.328-5.311-0.516-0.376-0.047-0.776-0.093-1.152-0.14-0.846-0.094-1.692-0.211-2.538-0.328-0.259-0.047-0.541-0.071-0.799-0.118-0.682-0.093-1.34-0.187-2.021-0.281-0.212-0.023-0.423-0.07-0.635-0.093-1.669-0.258-3.337-0.539-5.006-0.844-0.306-0.047-0.611-0.117-0.917-0.164-1.739-0.328-3.478-0.703-5.194-1.078-0.352-0.07-0.728-0.164-1.081-0.258-1.762-0.398-3.502-0.82-5.217-1.288-0.235-0.071-0.47-0.141-0.705-0.188-0.024 0-0.071-0.023-0.094-0.023-0.212-0.071-0.423-0.118-0.635-0.188-0.047 0-0.07-0.023-0.117-0.023-0.212-0.047-0.423-0.117-0.611-0.164h-0.024c-0.212-0.047-0.4-0.117-0.588-0.164-0.047-0.024-0.094-0.024-0.164-0.047-0.165-0.047-0.306-0.094-0.447-0.141-0.047-0.023-0.094-0.023-0.141-0.047-0.188-0.046-0.376-0.117-0.54-0.164-0.047-0.023-0.071-0.023-0.118-0.046-0.141-0.047-0.282-0.094-0.446-0.141-0.047-0.024-0.094-0.024-0.141-0.047-0.188-0.047-0.353-0.117-0.541-0.164-0.305-0.094-0.634-0.187-0.94-0.281-1.645-0.516-3.29-1.055-4.912-1.617-0.352-0.117-0.728-0.258-1.081-0.375-1.669-0.586-3.314-1.195-4.936-1.828-1.927-0.773-3.478-1.429-5.006-2.085-0.305-0.141-0.587-0.258-0.893-0.375-1.551-0.68-3.078-1.406-4.606-2.156l-0.987-0.492c-1.551-0.773-3.079-1.546-4.583-2.39-1.739-0.961-3.173-1.781-4.583-2.648-0.259-0.164-0.541-0.328-0.799-0.468-1.434-0.867-2.844-1.781-4.231-2.695-0.258-0.188-0.54-0.352-0.799-0.539-1.41-0.961-2.82-1.945-4.183-2.953-1.5043-1.124-2.7969-2.132-4.066-3.163-0.2586-0.211-0.4936-0.398-0.7521-0.609-1.2691-1.031-2.4913-2.109-3.7134-3.21-0.235-0.211-0.47-0.446-0.7051-0.656-1.2456-1.149-2.4677-2.297-3.6428-3.492-16.804-16.894-25.289-35.664-25.289-55.112v46.231c0 19.449 8.4844 38.218 25.218 55.113 1.1751 1.195 2.4207 2.367 3.6428 3.491 0.2351 0.211 0.4701 0.446 0.7051 0.656 1.1986 1.102 2.4442 2.156 3.7134 3.211 0.2585 0.211 0.4935 0.398 0.7521 0.609 1.2691 1.031 2.5617 2.039 4.0655 3.163 1.364 1.008 2.774 1.992 4.184 2.953 0.258 0.187 0.54 0.351 0.799 0.539 1.387 0.937 2.797 1.827 4.23 2.694 0.259 0.164 0.541 0.328 0.799 0.469 1.434 0.844 2.868 1.687 4.583 2.648 1.504 0.82 3.032 1.617 4.583 2.39l0.987 0.492c1.505 0.75 3.056 1.453 4.607 2.156 0.282 0.14 0.587 0.258 0.893 0.375 1.528 0.679 3.079 1.312 5.006 2.085 1.622 0.633 3.267 1.242 4.935 1.828 0.353 0.117 0.729 0.258 1.082 0.375 1.621 0.562 3.266 1.101 4.912 1.617 0.305 0.093 0.634 0.187 0.94 0.281 0.188 0.047 0.352 0.117 0.54 0.164 0.047 0.023 0.094 0.023 0.141 0.047 0.141 0.047 0.282 0.093 0.447 0.14 0.047 0.024 0.07 0.024 0.117 0.047 0.188 0.047 0.376 0.117 0.541 0.164 0.047 0.024 0.094 0.024 0.141 0.047 0.141 0.047 0.305 0.094 0.446 0.141 0.047 0.023 0.094 0.023 0.165 0.046 0.188 0.047 0.399 0.118 0.587 0.164h0.024c0.141 0.047 0.306 0.094 0.447 0.118 0.047 0.023 0.094 0.023 0.164 0.047 0.047 0 0.071 0.023 0.118 0.023 0.211 0.047 0.423 0.117 0.634 0.187 0.024 0 0.071 0.024 0.094 0.024 0.235 0.07 0.47 0.117 0.705 0.187 1.739 0.469 3.479 0.891 5.218 1.289 0.352 0.094 0.728 0.164 1.081 0.258 1.716 0.375 3.455 0.75 5.194 1.078 0.305 0.047 0.611 0.117 0.916 0.164 1.669 0.304 3.338 0.586 5.006 0.843 0.212 0.024 0.424 0.071 0.635 0.094 0.212 0.023 0.4 0.07 0.611 0.094 0.47 0.07 0.94 0.14 1.41 0.187 0.259 0.047 0.541 0.071 0.799 0.117 0.846 0.118 1.693 0.211 2.539 0.328 0.376 0.047 0.775 0.094 1.151 0.141 1.763 0.211 3.549 0.375 5.312 0.516 0.305 0.023 0.634 0.046 0.94 0.07 1.669 0.117 3.361 0.234 5.029 0.304 0.259 0.024 0.494 0.024 0.752 0.047h0.235c0.565 0.024 1.129 0.047 1.693 0.047 0.282 0 0.564 0.024 0.846 0.024 0.893 0.023 1.762 0.046 2.655 0.046 0.377 0 0.776 0 1.152 0.024 1.551 0 3.126 0 4.677-0.047 0.4 0 0.823 0 1.222-0.023 0.893-0.024 1.786-0.047 2.656-0.094 0.282-0.024 0.588-0.024 0.87-0.047 0.446-0.023 0.916-0.047 1.363-0.07 0.258-0.024 0.517-0.024 0.799-0.047 0.493-0.024 0.987-0.07 1.48-0.094 1.411-0.094 2.821-0.211 4.231-0.328 0.658-0.07 1.316-0.117 1.974-0.187 1.293-0.141 2.609-0.282 3.901-0.446 0.635-0.07 1.246-0.164 1.881-0.234 0.705-0.094 1.386-0.187 2.091-0.305 0.188-0.023 0.353-0.046 0.541-0.093 0.188-0.024 0.376-0.047 0.564-0.094 0.494-0.07 0.987-0.164 1.457-0.234 0.165-0.024 0.329-0.047 0.517-0.071 0.071 0 0.141-0.023 0.212-0.023 0.094-0.023 0.188-0.023 0.282-0.047 1.88-0.328 3.737-0.679 5.593-1.054 0.517-0.118 1.011-0.235 1.528-0.328 1.363-0.305 2.703-0.61 4.066-0.938 0.634-0.164 1.269-0.304 1.904-0.468 0.634-0.164 1.269-0.328 1.88-0.492 0.211-0.071 0.446-0.118 0.658-0.188 0.376-0.094 0.752-0.211 1.128-0.305 0.07-0.023 0.117-0.023 0.188-0.046 0.282-0.071 0.564-0.164 0.87-0.235 0.282-0.07 0.564-0.164 0.846-0.234 1.621-0.469 3.219-0.984 4.818-1.5 0.211-0.07 0.423-0.14 0.634-0.211 1.786-0.585 3.573-1.241 5.335-1.898 0.517-0.187 1.034-0.398 1.551-0.609 1.246-0.492 2.515-0.984 3.737-1.499 0.611-0.258 1.199-0.516 1.81-0.774 1.222-0.539 2.421-1.078 3.619-1.64 0.541-0.258 1.081-0.492 1.598-0.75 0.423-0.211 0.847-0.398 1.27-0.609 0.564-0.281 1.104-0.539 1.645-0.82 0.211-0.094 0.352-0.164 0.493-0.235z" fill="url(#j)"/>
<path d="m192.27 258.97c9.283 0 17.861-2.203 24.842-5.929l51.587 52.09c-1.645 0.891-3.337 1.711-5.029 2.531-0.541 0.258-1.081 0.492-1.598 0.75-1.199 0.562-2.398 1.101-3.62 1.64-0.587 0.258-1.198 0.515-1.809 0.773-1.246 0.516-2.492 1.031-3.737 1.5-0.517 0.211-1.034 0.398-1.551 0.609-1.763 0.656-3.526 1.289-5.335 1.898-0.212 0.07-0.424 0.141-0.635 0.211-1.598 0.516-3.196 1.031-4.818 1.5-0.564 0.164-1.128 0.328-1.716 0.492-1.269 0.351-2.561 0.703-3.854 1.031-0.635 0.164-1.269 0.328-1.904 0.468-1.339 0.328-2.703 0.633-4.066 0.938-0.517 0.117-1.01 0.234-1.527 0.328-1.857 0.375-3.714 0.75-5.594 1.054-0.329 0.047-0.658 0.094-1.011 0.164-1.551 0.258-3.102 0.492-4.653 0.703-0.635 0.094-1.246 0.164-1.88 0.234-1.293 0.165-2.585 0.305-3.902 0.446-0.658 0.07-1.316 0.14-1.974 0.187-1.41 0.117-2.82 0.234-4.23 0.328-0.494 0.024-0.987 0.071-1.481 0.094-1.904 0.117-3.784 0.187-5.687 0.234-0.4 0-0.823 0-1.223 0.024-1.551 0.023-3.125 0.047-4.677 0.047-0.376 0-0.775 0-1.151-0.024-1.81-0.023-3.62-0.07-5.429-0.14-0.259 0-0.494-0.024-0.752-0.047-1.692-0.071-3.361-0.188-5.03-0.305-0.305-0.023-0.634-0.047-0.94-0.07-1.786-0.141-3.549-0.328-5.311-0.516-0.376-0.047-0.776-0.093-1.152-0.14-1.786-0.211-3.572-0.446-5.359-0.727-0.211-0.023-0.423-0.07-0.634-0.093-1.669-0.258-3.338-0.539-5.006-0.844-0.306-0.047-0.611-0.117-0.917-0.164-1.739-0.328-3.478-0.703-5.194-1.078-0.352-0.07-0.728-0.164-1.081-0.258-1.763-0.398-3.502-0.82-5.217-1.288-2.092-0.563-3.714-1.031-5.335-1.524-0.306-0.093-0.635-0.187-0.941-0.281-1.645-0.515-3.29-1.054-4.912-1.617-0.352-0.117-0.728-0.257-1.081-0.374-1.668-0.586-3.314-1.196-4.935-1.828-1.927-0.773-3.479-1.43-5.006-2.086-0.306-0.14-0.588-0.257-0.893-0.375-1.551-0.679-3.079-1.406-4.607-2.155l-0.987-0.492c-1.551-0.774-3.079-1.547-4.583-2.391-1.739-0.96-3.173-1.78-4.583-2.647-0.258-0.164-0.54-0.328-0.799-0.469-1.434-0.867-2.844-1.781-4.23-2.695-0.259-0.187-0.541-0.351-0.799-0.539-1.411-0.96-2.821-1.945-4.184-2.952-1.5039-1.125-2.7966-2.132-4.0657-3.163-0.2585-0.211-0.4936-0.399-0.7521-0.61-1.2691-1.031-2.4912-2.109-3.7134-3.21-0.235-0.211-0.47-0.445-0.705-0.656-1.2457-1.148-2.4678-2.296-3.6429-3.491-25.359-25.588-31.822-55.464-18.52-85.505l83.386 19.871c-1.339 3.023-2.068 6.233-2.068 9.584 0 17.082 18.896 30.954 42.211 30.954z" fill="url(#i)"/>
<path d="m233.85 317.34c2.656-0.445 5.312-0.937 7.967-1.476 0.8-0.164 3.197-0.937 3.197-0.937s-41.928 16.309-91.495 4.335c-92.27-22.261-91.518-85.059-91.518-85.059 9.495 59.072 66.112 80.888 112.06 86.91 31.305 4.077 58.192-3.492 59.79-3.773z" fill="#fff"/>
</g>
<defs>
<filter id="y" x="0" y=".87866" width="798" height="434.32" color-interpolation-filters="sRGB" filterUnits="userSpaceOnUse">
<feFlood flood-opacity="0" result="BackgroundImageFix"/>
<feColorMatrix in="SourceAlpha" result="hardAlpha" values="0 0 0 0 0 0 0 0 0 0 0 0 0 0 0 0 0 0 127 0"/>
<feOffset dy="4"/>
<feGaussianBlur stdDeviation="10"/>
<feComposite in2="hardAlpha" operator="out"/>
<feColorMatrix values="0 0 0 0 0 0 0 0 0 0 0 0 0 0 0 0 0 0 0.1 0"/>
<feBlend in2="BackgroundImageFix" result="effect1_dropShadow_502_290"/>
<feBlend in="SourceGraphic" in2="effect1_dropShadow_502_290" result="shape"/>
</filter>
<radialGradient id="x" cx="0" cy="0" r="1" gradientTransform="translate(205.17 130.75) scale(51.503 51.35)" gradientUnits="userSpaceOnUse">
<stop stop-color="#F5E207" offset=".3832"/>
<stop stop-color="#EBD70B" offset=".4481"/>
<stop stop-color="#DFC90F" offset=".5705"/>
<stop stop-color="#D8C112" offset=".7236"/>
<stop stop-color="#D6BF13" offset="1"/>
</radialGradient>
<radialGradient id="m" cx="0" cy="0" r="1" gradientTransform="translate(193.42 159.48) scale(54.686 54.522)" gradientUnits="userSpaceOnUse">
<stop stop-color="#F5E207" offset=".3832"/>
<stop stop-color="#EBD70B" offset=".4481"/>
<stop stop-color="#DFC90F" offset=".5705"/>
<stop stop-color="#D8C112" offset=".7236"/>
<stop stop-color="#D6BF13" offset="1"/>
</radialGradient>
<radialGradient id="h" cx="0" cy="0" r="1" gradientTransform="translate(201.27 86.952) scale(45.521 45.385)" gradientUnits="userSpaceOnUse">
<stop stop-color="#F5E207" offset=".3832"/>
<stop stop-color="#EBD70B" offset=".4481"/>
<stop stop-color="#DFC90F" offset=".5705"/>
<stop stop-color="#D8C112" offset=".7236"/>
<stop stop-color="#D6BF13" offset="1"/>
</radialGradient>
<linearGradient id="g" x1="168.06" x2="166.76" y1="227.51" y2="147.95" gradientUnits="userSpaceOnUse">
<stop stop-color="#C7C7C7" offset=".2607"/>
<stop stop-color="#A6A6A6" offset=".8367"/>
</linearGradient>
<linearGradient id="f" x1="108.18" x2="108.79" y1="236.79" y2="147.24" gradientUnits="userSpaceOnUse">
<stop stop-color="#C7C7C7" offset=".1107"/>
<stop stop-color="#A6A6A6" offset=".6543"/>
</linearGradient>
<linearGradient id="e" x1="162.12" x2="104.69" y1="177.07" y2="74.471" gradientUnits="userSpaceOnUse">
<stop stop-color="#C7C7C7" offset=".1037"/>
<stop stop-color="#A6A6A6" offset=".7253"/>
</linearGradient>
<linearGradient id="d" x1="218.12" x2="234.19" y1="141.83" y2="137.98" gradientUnits="userSpaceOnUse">
<stop stop-color="#B4DD00" offset=".1162"/>
<stop stop-color="#95CF10" offset="1"/>
</linearGradient>
<radialGradient id="c" cx="0" cy="0" r="1" gradientTransform="translate(208.35 176.97) scale(43.079 42.95)" gradientUnits="userSpaceOnUse">
<stop stop-color="#B4DD00" offset=".1162"/>
<stop stop-color="#95CF10" offset="1"/>
</radialGradient>
<linearGradient id="b" x1="208.05" x2="224.04" y1="124.61" y2="72.89" gradientUnits="userSpaceOnUse">
<stop stop-color="#B4DD00" offset=".1162"/>
<stop stop-color="#95CF10" offset="1"/>
</linearGradient>
<linearGradient id="a" x1="292.18" x2="206.01" y1="128.41" y2="177.35" gradientUnits="userSpaceOnUse">
<stop stop-color="#82D118" offset="0"/>
<stop stop-color="#01B13E" offset=".8349"/>
</linearGradient>
<linearGradient id="w" x1="221.12" x2="219.08" y1="144.92" y2="201.64" gradientUnits="userSpaceOnUse">
<stop stop-color="#01B13E" offset=".1651"/>
<stop stop-color="#82D118" offset="1"/>
</linearGradient>
<linearGradient id="v" x1="249.06" x2="225.1" y1="103.15" y2="155.71" gradientUnits="userSpaceOnUse">
<stop stop-color="#01B13E" offset="0"/>
<stop stop-color="#82D118" offset="1"/>
</linearGradient>
<linearGradient id="u" x1="263.46" x2="385.44" y1="198.33" y2="161.7" gradientUnits="userSpaceOnUse">
<stop stop-color="#4EB4EC" offset=".1871"/>
<stop stop-color="#00A2E0" offset=".5246"/>
</linearGradient>
<linearGradient id="t" x1="229.28" x2="320.82" y1="139.72" y2="139.72" gradientUnits="userSpaceOnUse">
<stop stop-color="#3FBBEC" offset=".2766"/>
<stop stop-color="#00A2E0" offset="1"/>
</linearGradient>
<linearGradient id="s" x1="229.28" x2="246.01" y1="191.96" y2="191.96" gradientUnits="userSpaceOnUse">
<stop stop-color="#3FBBEC" offset="0"/>
<stop stop-color="#00A2E0" offset="1"/>
</linearGradient>
<linearGradient id="r" x1="235.27" x2="239.99" y1="230.53" y2="153.39" gradientUnits="userSpaceOnUse">
<stop stop-color="#3FBBEC" offset=".4378"/>
<stop stop-color="#00A2E0" offset=".9529"/>
</linearGradient>
<linearGradient id="q" x1="275.31" x2="328" y1="276.88" y2="276.88" gradientUnits="userSpaceOnUse">
<stop stop-color="#8F59D9" offset="0"/>
<stop stop-color="#562FAD" offset="1"/>
</linearGradient>
<linearGradient id="p" x1="227.15" x2="328" y1="228.16" y2="228.16" gradientUnits="userSpaceOnUse">
<stop stop-color="#8F59D9" offset="0"/>
<stop stop-color="#562FAD" offset="1"/>
</linearGradient>
<radialGradient id="o" cx="0" cy="0" r="1" gradientTransform="translate(151.1 246.34) scale(19.804 19.745)" gradientUnits="userSpaceOnUse">
<stop stop-color="#BF1D5F" offset=".2337"/>
<stop stop-color="#B3195A" offset=".3175"/>
<stop stop-color="#95104C" offset=".5646"/>
<stop stop-color="#8A0C47" offset=".7043"/>
</radialGradient>
<radialGradient id="n" cx="0" cy="0" r="1" gradientTransform="translate(151.4 243.77) scale(17.974 17.921)" gradientUnits="userSpaceOnUse">
<stop stop-color="#BF1D5F" offset=".2337"/>
<stop stop-color="#B3195A" offset=".3175"/>
<stop stop-color="#95104C" offset=".5646"/>
<stop stop-color="#8A0C47" offset=".7043"/>
</radialGradient>
<radialGradient id="l" cx="0" cy="0" r="1" gradientTransform="translate(150.37 248.26) scale(18.004 17.951)" gradientUnits="userSpaceOnUse">
<stop stop-color="#BF1D5F" offset=".2337"/>
<stop stop-color="#B3195A" offset=".3175"/>
<stop stop-color="#95104C" offset=".5646"/>
<stop stop-color="#8A0C47" offset=".7043"/>
</radialGradient>
<radialGradient id="k" cx="0" cy="0" r="1" gradientTransform="translate(150.08 250.83) scale(16.606 16.557)" gradientUnits="userSpaceOnUse">
<stop stop-color="#BF1D5F" offset=".2337"/>
<stop stop-color="#B3195A" offset=".3175"/>
<stop stop-color="#95104C" offset=".5646"/>
<stop stop-color="#8A0C47" offset=".7043"/>
</radialGradient>
<radialGradient id="j" cx="0" cy="0" r="1" gradientTransform="translate(69.728 347.31) scale(164.51 164.02)" gradientUnits="userSpaceOnUse">
<stop stop-color="#BF1D5F" offset="0"/>
<stop stop-color="#B3195A" offset=".1473"/>
<stop stop-color="#95104C" offset=".581"/>
<stop stop-color="#8A0C47" offset=".8263"/>
</radialGradient>
<radialGradient id="i" cx="0" cy="0" r="1" gradientTransform="translate(165.34 260.93) scale(158.45 157.98)" gradientUnits="userSpaceOnUse">
<stop stop-color="#BF1D5F" offset=".2337"/>
<stop stop-color="#B3195A" offset=".3175"/>
<stop stop-color="#95104C" offset=".5646"/>
<stop stop-color="#8A0C47" offset=".7043"/>
</radialGradient>
<clip-path id="z">
<rect transform="translate(62 57.545)" width="266" height="312" fill="#fff"/>
</clip-path>
</defs>
</svg>
