<svg width="28" height="29" viewBox="0 0 28 29" fill="none" xmlns="http://www.w3.org/2000/svg">
<path d="M7 14.5103C6.96813 17.4549 7.45958 19.0935 8.40846 20.0424C9.36051 20.9945 11.0193 21.4995 14.0001 21.4995C16.9805 21.4995 18.6213 20.9946 19.565 20.0447C20.5102 19.0933 21.0001 17.4508 21.0001 14.4995C21.0001 11.5482 20.5102 9.90569 19.565 8.95431C18.6213 8.00447 16.9805 7.49951 14.0001 7.49951C11.02 7.49951 9.39707 8.00437 8.46177 8.95198C7.52024 9.9059 7.03202 11.5523 7 14.5103Z" stroke="#FFC46C" stroke-width="2" stroke-linecap="round" stroke-linejoin="round"/>
<path d="M15 1.49951C15 0.947227 14.5523 0.499512 14 0.499512C13.4477 0.499512 13 0.947227 13 1.49951H15ZM13 3.49951C13 4.0518 13.4477 4.49951 14 4.49951C14.5523 4.49951 15 4.0518 15 3.49951H13ZM13 1.49951V3.49951H15V1.49951H13Z" fill="#FFC46C"/>
<path d="M15 25.4995C15 24.9472 14.5523 24.4995 14 24.4995C13.4477 24.4995 13 24.9472 13 25.4995H15ZM13 27.4995C13 28.0518 13.4477 28.4995 14 28.4995C14.5523 28.4995 15 28.0518 15 27.4995H13ZM13 25.4995V27.4995H15V25.4995H13Z" fill="#FFC46C"/>
<path d="M27 15.4995C27.5523 15.4995 28 15.0518 28 14.4995C28 13.9472 27.5523 13.4995 27 13.4995L27 15.4995ZM25 13.4995C24.4477 13.4995 24 13.9472 24 14.4995C24 15.0518 24.4477 15.4995 25 15.4995L25 13.4995ZM27 13.4995L25 13.4995L25 15.4995L27 15.4995L27 13.4995Z" fill="#FFC46C"/>
<path d="M3 15.4995C3.55228 15.4995 4 15.0518 4 14.4995C4 13.9472 3.55228 13.4995 3 13.4995L3 15.4995ZM1 13.4995C0.447715 13.4995 2.41411e-08 13.9472 0 14.4995C-2.41411e-08 15.0518 0.447715 15.4995 1 15.4995L1 13.4995ZM3 13.4995L1 13.4995L1 15.4995L3 15.4995L3 13.4995Z" fill="#FFC46C"/>
<path d="M4.70711 3.7924C4.31658 3.40188 3.68342 3.40188 3.29289 3.7924C2.90237 4.18293 2.90237 4.81609 3.29289 5.20662L4.70711 3.7924ZM4.70711 6.62083C5.09763 7.01136 5.7308 7.01136 6.12132 6.62083C6.51184 6.23031 6.51184 5.59714 6.12132 5.20662L4.70711 6.62083ZM3.29289 5.20662L4.70711 6.62083L6.12132 5.20662L4.70711 3.7924L3.29289 5.20662Z" fill="#FFC46C"/>
<path d="M4.70711 25.6207C4.31658 26.0112 3.68342 26.0112 3.29289 25.6207C2.90237 25.2302 2.90237 24.597 3.29289 24.2065L4.70711 25.6207ZM4.70711 22.7923C5.09763 22.4017 5.7308 22.4017 6.12132 22.7923C6.51184 23.1828 6.51184 23.8159 6.12132 24.2065L4.70711 22.7923ZM3.29289 24.2065L4.70711 22.7923L6.12132 24.2065L4.70711 25.6207L3.29289 24.2065Z" fill="#FFC46C"/>
<path d="M23.707 3.7924C24.0975 3.40188 24.7306 3.40188 25.1212 3.7924C25.5117 4.18293 25.5117 4.81609 25.1212 5.20662L23.707 3.7924ZM23.707 6.62083C23.3164 7.01136 22.6833 7.01136 22.2927 6.62083C21.9022 6.23031 21.9022 5.59714 22.2927 5.20662L23.707 6.62083ZM25.1212 5.20662L23.707 6.62083L22.2927 5.20662L23.707 3.7924L25.1212 5.20662Z" fill="#FFC46C"/>
<path d="M23.707 25.6207C24.0975 26.0112 24.7306 26.0112 25.1212 25.6207C25.5117 25.2302 25.5117 24.597 25.1212 24.2065L23.707 25.6207ZM23.707 22.7923C23.3164 22.4017 22.6833 22.4017 22.2927 22.7923C21.9022 23.1828 21.9022 23.8159 22.2927 24.2065L23.707 22.7923ZM25.1212 24.2065L23.707 22.7923L22.2927 24.2065L23.707 25.6207L25.1212 24.2065Z" fill="#FFC46C"/>
</svg>
